<?xml version="1.0" encoding="utf-8"?>
<!-- Generator: Adobe Illustrator 19.0.0, SVG Export Plug-In . SVG Version: 6.00 Build 0)  -->
<svg version="1.1" id="Layer_1" xmlns="http://www.w3.org/2000/svg" xmlns:xlink="http://www.w3.org/1999/xlink" x="0px" y="0px" viewBox="-225 -112.5 500 250"
	 enable-background="new -225 -112.5 500 250" xml:space="preserve">
	<g>
		<g id="XMLID_388_">
			<path id="XMLID_405_" fill="#FFFFFF" d="M55.632412-1.8280618c-6.9170036,0-11.8577156,10.8695698-11.8577156,18.7747002
				c0,4.940712,1.9762917,7.9051418,6.9170036,7.9051418c2.9644203,0,4.940712-0.9881477,7.9051323-5.9288578l2.9644165-17.7865639
				C59.5849762,0.148221,57.6086845-1.8280618,55.632412-1.8280618z"/>
			<path id="XMLID_409_" fill="#FFFFFF" d="M123.8142242-112.5H-55.0395355c-4.940712,0-8.89328,3.9525681-8.89328,8.89328
				v14.8221359h20.7509956c10.8695679,0,19.762846,8.89328,19.762846,19.7628479v18.774704
				c0,10.8695641-8.8932781,19.762846-19.762846,19.762846h-20.7509956v13.8339901h20.7509956
				c10.8695679,0,19.762846,8.8932762,19.762846,19.762846v18.7747002c0,10.8695698-8.8932781,19.762846-19.762846,19.762846
				h-20.7509956v13.8339996h20.7509956c10.8695679,0,19.762846,8.8932762,19.762846,19.7628441v18.774704
				c0,10.8695679-8.8932781,19.7628479-19.762846,19.7628479h-20.7509956V128.60672c0,4.9407196,3.9525681,8.89328,8.89328,8.89328
				h178.8537598c4.9407196,0,8.8932953-3.9525604,8.8932953-8.89328V-103.60672
				C132.7075195-108.5474319,128.7549438-112.5,123.8142242-112.5z M78.3596802,41.6502075
				c-7.9051361,0-14.8221397-3.9525681-16.7984314-10.8695717l0,0c-3.9525642,5.9288597-10.8695679,8.8932762-16.7984276,8.8932762
				c-11.8577156,0-18.7746983-8.8932762-18.7746983-21.7391281c0-17.7865639,12.8458424-35.5731163,28.6561222-35.5731163
				c4.940712,0,7.9051323,1.9762821,10.8695717,6.9169931l0,0l1.9762878-5.9288568h14.8221359l-6.9169846,32.608696
				c-1.9762878,6.9169941,0,10.8695698,5.9288559,10.8695698c8.89328,0,15.8102646-9.881424,15.8102646-23.7154121
				c0-18.7747002-9.881424-37.5494118-38.5375443-37.5494118c-23.7154121,0-47.4308434,20.7509842-47.4308434,51.3834
				c0,27.6679878,19.7628479,40.5138397,40.5138359,40.5138397c6.9170074,0,14.8221359-1.9762917,20.7509918-4.940712
				l4.940712,12.8458405c-8.8932724,4.940712-17.7865524,6.9170074-27.6679764,6.9170074
				c-28.6561222,0-55.3359718-16.7984276-55.3359718-54.3478317c0-40.5138397,29.644268-66.2055359,65.2173996-66.2055359
				c31.6205597,0,51.3834076,21.73913,51.3834076,51.3834C111.9565125,28.8043537,94.16996,41.6502075,78.3596802,41.6502075z"/>
			<path id="XMLID_410_" fill="#FFFFFF" d="M-79.7430954-48.2707481h15.8102798h20.7509956
				c1.9762917,0,2.9644165-0.9881439,2.9644165-2.9644279v-17.7865601c0-1.9762802-0.9881439-2.9644318-2.9644165-2.9644318
				h-20.7509956h-15.8102798c-1.9762802,0-2.9644318,0.9881439-2.9644318,2.9644318v18.774704
				C-82.7075119-49.2588921-81.7193756-48.2707481-79.7430954-48.2707481z"/>
			<path id="XMLID_411_" fill="#FFFFFF" d="M-79.7430954,22.8754959h15.8102798h20.7509956
				c1.9762917,0,2.9644165-0.9881458,2.9644165-2.9644279V1.1363671c0-1.9762828-0.9881439-2.9644289-2.9644165-2.9644289
				h-20.7509956h-15.8102798c-1.9762802,0-2.9644318,0.9881461-2.9644318,2.9644289V19.911068
				C-82.7075119,21.8873596-81.7193756,22.8754959-79.7430954,22.8754959z"/>
			<path id="XMLID_412_" fill="#FFFFFF" d="M-43.1818199,94.0217438c1.9762917,0,2.9644165-0.9881516,2.9644165-2.9644241
				V72.2826233c0-1.9762955-0.9881439-2.9644241-2.9644165-2.9644241h-20.7509956h-15.8102798
				c-1.9762802,0-2.9644318,0.9881516-2.9644318,2.9644241v18.7746964c0,1.9762955,0.9881516,2.9644241,2.9644318,2.9644241
				h15.8102798H-43.1818199z"/>
		</g>
	</g>
</svg>
