<?xml version="1.0" encoding="utf-8"?>
<!-- Generator: Adobe Illustrator 19.0.0, SVG Export Plug-In . SVG Version: 6.00 Build 0)  -->
<svg version="1.1" id="Layer_1" xmlns="http://www.w3.org/2000/svg" xmlns:xlink="http://www.w3.org/1999/xlink" x="0px" y="0px" viewBox="-225 -112.5 500 250"
	 enable-background="new -225 -112.5 500 250" xml:space="preserve">
	<g>
		<path id="XMLID_124_" fill-rule="evenodd" clip-rule="evenodd" fill="#FFFFFF" d="M97.6950607-12.7941847h-6.522934
			c0.2192841-15.9118834,0.4649582-37.1839867,0.2104874-41.1373138
			c-1.9440308-30.1737862-27.9628754-55.7798271-59.2363853-58.2981453
			c-1.9603672-0.1566849-3.9226189-0.2457504-5.8327198-0.2661743c-17.0507965-0.175148-32.0997543,5.152565-44.727787,15.8338928
			c-12.5309563,10.6004333-20.7629261,26.2232056-22.0192585,41.790535
			c-0.2924843,3.6206322-0.2620087,26.0132694-0.2221107,42.0772057h-7.0394173
			c-9.3466148,0-16.9232445,7.576787-16.9232445,16.9231682v116.4478531c0,9.3463821,7.5766296,16.9231644,16.9232445,16.9231644
			H97.6950607c9.3464584,0,16.9232483-7.5767822,16.9232483-16.9231644V4.1289825
			C114.618309-5.2173977,107.0415192-12.7941847,97.6950607-12.7941847z M46.879055,107.9180603H4.8035445l6.4236741-52.1527596
			C5.032578,51.414669,1.0043621,44.3746872,1.0043621,36.4247169c0-13.2133751,11.1197548-23.9242706,24.8362675-23.9247169
			c13.7169609,0,24.8367157,10.710783,24.8367157,23.9242706c0,7.9498558-4.027771,14.9898415-10.2215157,19.3410301
			L46.879055,107.9180603z M-12.8209486-12.7941847c0.1878691-19.3927917,1.1636543-46.9060249,5.6696711-54.2428703
			c6.9891486-11.3812866,18.4953098-18.0672684,31.5678806-18.3444366c0.4652729-0.0102081,0.9242611-0.0121689,1.381052-0.0078506
			c13.2550983,0.1361847,24.8709011,6.6939163,31.8666477,17.9903717
			c4.8380852,7.8115463,5.8223534,34.2714767,5.7969055,54.6047859H-12.8209486z"/>
	</g>
</svg>
