<?xml version="1.0" encoding="utf-8"?>
<!-- Generator: Adobe Illustrator 19.0.0, SVG Export Plug-In . SVG Version: 6.00 Build 0)  -->
<svg version="1.1" id="Layer_1" xmlns="http://www.w3.org/2000/svg" xmlns:xlink="http://www.w3.org/1999/xlink" x="0px" y="0px" viewBox="-225 -112.5 500 250"
	 enable-background="new -225 -112.5 500 250" xml:space="preserve">
	<g>
		<g>
			<path fill="#FFFFFF" d="M97.6950684-12.7941895H93.166687h-1.9945679H63.4611816H58.333313h-71.1542358
				c0.1878662-19.3927612,1.1636353-46.9060059,5.6696777-54.2428589
				C-0.1621094-78.418335,11.3440552-85.1043091,24.416626-85.3814697c0.465271-0.0102539,0.9242554-0.012207,1.3810425-0.0078735
				c13.2550659,0.1361694,24.8709106,6.6939087,31.8666382,17.9903564
				c2.342041,3.7814941,3.7791748,11.9379272,4.6376343,21.6489868h29.1886597
				c0.0026245-3.9718628-0.027832-6.9365234-0.1079712-8.1815186
				c-1.9440308-30.1737671-27.9628906-55.7797852-59.2363892-58.2981567
				c-1.9603882-0.1566772-3.9226074-0.2457275-5.8327026-0.2661133
				c-17.0508423-0.1751709-32.0997925,5.1525269-44.7277832,15.8338623
				c-12.5309448,10.6004028-20.7629395,26.2232056-22.0192871,41.7905273
				c-0.2924805,3.6206665-0.2620239,26.0133057-0.2221069,42.0772095h-7.0394287
				c-9.3466187,0-16.9232178,7.5767822-16.9232178,16.9231567v116.447876c0,9.3463745,7.5765991,16.9231567,16.9232178,16.9231567
				H97.6950684c9.3464355,0,16.9232178-7.5767822,16.9232178-16.9231567V4.1289673
				C114.6182861-5.2174072,107.0415039-12.7941895,97.6950684-12.7941895z M46.8790283,107.9180298H4.8035278l6.4237061-52.152771
				C5.0325928,51.4146729,1.0043335,44.3746948,1.0043335,36.4246826c0-13.2133179,11.119812-23.9242554,24.8363037-23.9246826
				c13.71698,0,24.836731,10.7107544,24.836731,23.9242554c0,7.9498291-4.027771,14.9898682-10.2215576,19.3410034
				L46.8790283,107.9180298z"/>
		</g>
	</g>
</svg>
