<svg enable-background="new -225 -112.5 500 250" height="250" viewBox="-225 -112.5 179.23657 250" width="179.23657" xmlns="http://www.w3.org/2000/svg"><path d="m97.695068-12.79419h-4.528381-1.994568-27.710937-5.127869-71.154236c.187866-19.392761 1.163636-46.906005 5.6696779-54.242858 6.9891357-11.381287 18.4953001-18.067261 31.5678711-18.344422.465271-.01025.924255-.01221 1.381042-.0079 13.255066.136169 24.870911 6.693908 31.866639 17.990356 2.342041 3.781494 3.779174 11.937927 4.637634 21.648987h29.18866c.0026-3.971863-.02783-6.936523-.107971-8.181519-1.944031-30.173767-27.962891-55.779784-59.23639-58.298164-1.960388-.15667-3.922607-.24572-5.832702-.26611-17.0508426-.17517-32.0997928 5.15253-44.727783 15.833867-12.530945 10.600402-20.76294 26.223205-22.019288 41.790527-.29248 3.620666-.262023 26.013306-.222106 42.077209h-7.039429c-9.346619 0-16.923218 7.5767827-16.923218 16.9231572v116.4478998c0 9.34638 7.576599 16.92316 16.923218 16.92316h145.390136c9.346432 0 16.923222-7.57678 16.923222-16.92316v-116.4478727c0-9.3463745-7.57679-16.9231573-16.923222-16.9231573zm-50.81604 120.71222h-42.0755002l6.4237062-52.152771c-6.1946412-4.350586-10.2229005-11.390564-10.2229005-19.340576 0-13.213318 11.1198115-23.924256 24.8363035-23.924683 13.71698 0 24.836731 10.710754 24.836731 23.924255 0 7.949829-4.027771 14.989869-10.221557 19.341004z" fill="#fff" transform="translate(-160.38171 .000003)"/></svg>