<?xml version="1.0" encoding="utf-8"?>
<!-- Generator: Adobe Illustrator 19.0.0, SVG Export Plug-In . SVG Version: 6.00 Build 0)  -->
<svg version="1.1" id="Layer_1" xmlns="http://www.w3.org/2000/svg" xmlns:xlink="http://www.w3.org/1999/xlink" x="0px" y="0px" viewBox="-225 -112.5 500 250"
	 enable-background="new -225 -112.5 500 250" xml:space="preserve">
	<g>
		<g id="XMLID_387_">
			<g id="XMLID_403_">
				<path id="XMLID_404_" fill="#FFFFFF" d="M-15.3281403-71.4544296
					c-6.2044144,5.190506-13.0157852,9.8804932-20.0700188,14.2218323
					c-6.6516304,4.0936546-13.4829712,7.9090347-20.1315498,11.617157
					c-2.0532608,1.1453209-4.0617561,2.2727699-6.0266304,3.3873329
					c-30.3397484,17.2089767-49.8588524,31.1818409-49.8588524,54.7285767c0,19.893198,14.0018539,32.8561783,36.6970062,46.719696
					c2.5924225,1.5836716,5.3095093,3.1815147,8.1203156,4.8003006c-0.9997406,0.5580139-1.9812927,1.1098862-3.0042191,1.6762695
					c-6.803009,3.7680283-13.8374252,7.664566-20.8024368,11.9437408c-0.6902237,0.4241943-1.3809204,0.8540192-2.0714722,1.2867203
					c-2.4574738-1.6004181-4.8882294-3.2322464-7.2482758-4.9370193
					c-19.9787216-14.4300652-35.7605591-32.9634285-35.7605591-61.4897079
					c0-34.0419197,22.4677734-54.0005112,47.7701721-69.7330627c7.0619583-4.391098,14.3443832-8.4531937,21.42099-12.3999786
					c1.6094513-0.8976364,3.1831284-1.7815933,4.7373314-2.6591034c8.1266022-4.5888596,15.414505-8.9260025,21.8227959-13.253334
					l-21.8234253-12.5996628l-21.83004,12.6035309c2.7428436,1.8542252,5.6141968,3.7097321,8.6947403,5.5869827
					c2.5890579,1.5775604,5.3021164,3.1728287,8.1077652,4.7912903c-0.6992416,0.392128-1.3831787,0.7787933-2.0951462,1.1757584
					c-7.1059189,3.9633713-14.4540482,8.0613785-21.6224594,12.5188217c-0.6942444,0.431591-1.3678818,0.8609238-2.0437698,1.290741
					c-2.4566727-1.5907555-4.8877411-3.2116356-7.2500534-4.9023972c-2.8362427-2.0297623-5.5591278-4.1646805-8.1935883-6.3723907
					l-49.58815,28.6296692V67.8215027l49.2910309,28.4581604c6.2446747-5.2684479,13.1195068-10.0104523,20.2473297-14.3896332
					c6.8036499-4.1799774,13.8028107-8.0608978,20.6104736-11.831665c1.931366-1.0697937,3.8195648-2.1229935,5.6724968-3.1655884
					c14.5195961-8.1707191,26.5586853-15.602417,35.1695442-23.7051849h-51.610672l15.4734344-26.8511314h50.6321907h24.1625595
					c-0.5209732,10.1734257-3.1212997,19.020359-7.1998215,26.8511314
					c-8.6188889,16.548069-23.8755798,28.5314255-40.3444099,38.7024384
					c-7.0071983,4.3276367-14.23069,8.3296814-21.2509346,12.2181549c-1.7107391,0.9477386-3.3833122,1.8806458-5.0318909,2.8062973
					c-8.269268,4.6428146-15.671833,9.0358353-22.1580696,13.4364319l22.1574402,12.7926102l22.1648407-12.7967834
					c-2.8240204-1.9181671-5.7881355-3.8350372-8.9743233-5.7715454c-2.5985527-1.5793228-5.3225517-3.1744385-8.1401253-4.7917786
					c0.7855606-0.4378662,1.5548515-0.8700867,2.3557091-1.3136063c7.0458603-3.9028168,14.331665-7.938652,21.4523888-12.3361969
					c0.6800842-0.4199982,1.3741684-0.8567429,2.0681-1.2937927c2.4455643,1.5831757,4.865036,3.1968155,7.215271,4.8814621
					c2.9080582,2.0843506,5.6971359,4.2809448,8.3906937,6.5566025l49.2879868-28.4563828V-42.82267L-15.3281403-71.4544296z
					 M-12.8938484,2.9108143c-3.8216591-14.8233223-16.6989517-25.8207989-35.5866241-37.4498672
					c-2.57761-1.587059-5.2747154-3.1881256-8.0652428-4.8098068c1.1305046-0.6359482,2.2429848-1.2656174,3.4018326-1.9120331
					c6.3176346-3.5234146,13.4776688-7.5170631,20.3141594-11.7242546c0.6834602-0.4206352,1.3672447-0.8469086,2.0510101-1.2756004
					c2.4494362,1.6055756,4.8719788,3.2423935,7.224617,4.9505539C-5.8309174-36.4411087,8.5941505-20.373106,11.719799,2.9108143
					H-12.8938484z"/>
			</g>
			<path id="XMLID_5_" fill="#FFFFFF" d="M219.810791,12.4945068L107.0819092-33.5577393l18.3105469,31.5258789H46.696167
				v-47.9693604L-61.5563965-112.5L-169.810791-50.0012207v125L-61.5563965,137.5L46.696167,74.9987793V27.020874h78.6987305
				l-18.3129883,31.5368652L219.810791,12.4945068z M41.4666748,71.9799805l-103.0230713,59.4824219l-103.0249023-59.4824219
				V-46.9824219l103.0249023-59.4799805L41.4666748-46.9824219V71.9799805z"/>
		</g>
	</g>
</svg>
