<svg enable-background="new -225 -112.5 500 250" height="250" viewBox="-225 -112.5 389.62158 250" width="389.62158" xmlns="http://www.w3.org/2000/svg"><g transform="translate(-55.18921)"><path d="m-15.32814-71.45443c-6.204415 5.190506-13.015785 9.880494-20.070019 14.221833-6.651631 4.093654-13.482971 7.909034-20.13155 11.617157-2.053261 1.145321-4.061756 2.27277-6.02663 3.387333-30.339749 17.208976-49.858851 31.181841-49.858851 54.728576 0 19.893198 14.001852 32.856179 36.697004 46.719696 2.592423 1.583672 5.30951 3.181515 8.120316 4.800301-.999741.558014-1.981293 1.109886-3.004219 1.676269-6.803009 3.768029-13.837425 7.664566-20.802437 11.943741-.690224.424195-1.38092.854019-2.071472 1.286721-2.457474-1.600419-4.888229-3.232247-7.248276-4.93702-19.978726-14.430065-35.760556-32.963428-35.760556-61.489708 0-34.041919 22.46777-54.000511 47.770169-69.733062 7.061958-4.391098 14.344383-8.453194 21.42099-12.399979 1.609451-.897636 3.183129-1.781593 4.737332-2.659103 8.126602-4.58886 15.414505-8.926003 21.822795-13.253334l-21.823425-12.599663-21.83004 12.603531c2.742844 1.854225 5.614197 3.709732 8.69474 5.586982 2.589058 1.577561 5.302117 3.172829 8.107766 4.791291-.699242.392128-1.383179.778793-2.095147 1.175758-7.105918 3.963371-14.454048 8.061379-21.622459 12.518822-.694244.431591-1.367882.860924-2.04377 1.290741-2.456672-1.590756-4.887741-3.211636-7.250053-4.902397-2.836238-2.029763-5.559128-4.164681-8.193588-6.372391l-49.58815 28.629669v110.644169l49.29103 28.45816c6.24468-5.268448 13.119507-10.010452 20.24733-14.389633 6.80365-4.179978 13.802811-8.060898 20.610474-11.831665 1.931366-1.069794 3.819565-2.122994 5.672497-3.165589 14.519596-8.170719 26.558685-15.602417 35.169544-23.705184h-51.610672l15.473434-26.851132h50.632191 24.162559c-.520973 10.173426-3.1212993 19.020359-7.1998211 26.851132-8.6188889 16.548069-23.8755799 28.531425-40.3444099 38.702438-7.007198 4.327637-14.23069 8.329681-21.250935 12.218155-1.710739.947738-3.383312 1.880646-5.03189 2.806297-8.269268 4.642818-15.671833 9.035838-22.15807 13.436428l22.15744 12.79261 22.164841-12.79678c-2.824021-1.91817-5.788136-3.83504-8.974323-5.77154-2.598553-1.57933-5.322552-3.17444-8.140126-4.791783.785561-.437866 1.554852-.870087 2.355709-1.313606 7.045861-3.902817 14.331665-7.938652 21.452389-12.336197.680084-.419999 1.374169-.856743 2.0681-1.293793 2.445564 1.583176 4.865036 3.196815 7.215271 4.881462 2.908058 2.084351 5.697136 4.280945 8.390694 6.556603l49.287987-28.456383v-110.644173zm2.434292 74.3652443c-3.821659-14.8233223-16.698952-25.8207993-35.586625-37.4498673-2.57761-1.587059-5.274715-3.188125-8.065242-4.809807 1.130504-.635948 2.242984-1.265617 3.401832-1.912033 6.317635-3.523414 13.477669-7.517063 20.31416-11.724254.68346-.420636 1.367244-.846909 2.05101-1.275601 2.449436 1.605576 4.871979 3.242394 7.224617 4.950554 17.7231786 12.869085 32.1482465 28.937088 35.273895 52.2210083z" fill="#fff"/><path d="m219.81079 12.494507-112.72888-46.052246 18.31055 31.5258786h-78.696293v-47.9693606l-108.252563-62.498779-108.254394 62.498779v125l108.254394 62.501221 108.252563-62.501221v-47.977905h78.698733l-18.31299 31.536865zm-178.344115 59.485473-103.023071 59.48242-103.024904-59.482419v-118.962403l103.024904-59.479978 103.023071 59.479978z" fill="#fff"/></g></svg>