<svg width="16" height="16" viewBox="0 0 16 16" xmlns="http://www.w3.org/2000/svg">
 <g fill="#fff">
  <path d="m6.666 1.334c-0.16667 0-0.30617 0.1193-0.32617 0.2793l-0.25391 1.7676c-0.40667 0.16667-0.77833 0.39234-1.125 0.65234l-1.6602-0.66602c-0.15333-0.06-0.3282-1.823e-4 -0.4082 0.14648l-1.332 2.3066c-0.086667 0.14667-0.046589 0.32578 0.080078 0.42578l1.4062 1.0996c-0.026667 0.21333-0.046875 0.4343-0.046875 0.6543s0.020208 0.44096 0.046875 0.6543l-1.4062 1.0996c-0.12667 0.1-0.16008 0.27911-0.080078 0.42578l1.332 2.3066c0.08 0.14667 0.26154 0.19982 0.4082 0.14648l1.6602-0.66602c0.34667 0.26667 0.71833 0.48568 1.125 0.65234l0.25391 1.7676c0.02 0.16 0.15951 0.2793 0.32617 0.2793h2.2754a5.1369 5.1369 0 0 1-2.582-4.4512 5.1369 5.1369 0 0 1 0.029297-0.53516c-0.44287-0.42492-0.72266-1.0189-0.72266-1.6797 0-1.2867 1.0473-2.334 2.334-2.334 0.29443 0 0.57435 0.060204 0.83398 0.16016a5.1369 5.1369 0 0 1 2.6621-0.74805 5.1369 5.1369 0 0 1 2.9785 0.95508c0.009468-0.070836 0.001817-0.14511-0.035156-0.21289l-1.332-2.3066c-0.08-0.14667-0.26154-0.19982-0.4082-0.14648l-1.6602 0.66602c-0.34667-0.26667-0.71833-0.48568-1.125-0.65234l-0.25391-1.7676c-0.02-0.16-0.15951-0.2793-0.32617-0.2793h-2.668z"/>
  <circle cx="11.495" cy="10.215" r="4.0823" fill="#ed5144"/>
  <rect x="10.548" y="7.1525" width="1.8983" height="3.1186"/>
  <rect x="10.548" y="11.356" width="1.8983" height="1.8983"/>
 </g>
</svg>
