<svg height="16" viewBox="0 0 16 16" width="16" xmlns="http://www.w3.org/2000/svg"><path d="m14 2h-12c-.73333333 0-1.33333333.6-1.33333333 1.33333333v7.99999997c0 .7333334.6 1.3333334 1.33333333 1.3333334h3.33333333v1.3333333h5.33333337v-1.3333333h3.3333333c.7333333 0 1.3266667-.6 1.3266667-1.3333334l.0066666-7.99999997c0-.73333333-.6-1.33333333-1.3333333-1.33333333zm0 9.3333333h-12v-7.99999997h12zm-1.3333333-5.99999997h-7.33333337v1.33333334h7.33333337zm0 2.66666667h-7.33333337v1.33333333h7.33333337zm-8.00000003-2.66666667h-1.33333334v1.33333334h1.33333334zm0 2.66666667h-1.33333334v1.33333333h1.33333334z" fill="#fff" fill-rule="evenodd"/></svg>