<svg height="16" viewBox="0 0 16 16" width="16" xmlns="http://www.w3.org/2000/svg"><path d="m7.99333333 1.33333333c-3.68 0-6.66 2.98666667-6.66 6.66666667s2.98 6.6666667 6.66 6.6666667c3.68666667 0 6.67333337-2.9866667 6.67333337-6.6666667s-2.9866667-6.66666667-6.67333337-6.66666667zm.00666667 11.99999997c-2.94666667 0-5.33333333-2.3866666-5.33333333-5.3333333 0-2.94666667 2.38666666-5.33333333 5.33333333-5.33333333 2.9466667 0 5.3333333 2.38666666 5.3333333 5.33333333 0 2.9466667-2.3866666 5.3333333-5.3333333 5.3333333zm.33333333-8.66666663h-1v4l3.49999997 2.10000003.5-.82000003-2.99999997-1.78z" fill="#fff" fill-rule="evenodd"/></svg>