<svg width="16" height="16" viewBox="0 0 16 16" xmlns="http://www.w3.org/2000/svg">
 <defs>
  <radialGradient id="a" cx="7" cy="6.6667" r="5.1299" gradientTransform="matrix(1.2486 0 0 1.2486 -1.7399 -1.6571)" gradientUnits="userSpaceOnUse">
   <stop stop-color="#2ac940" offset="0"/>
   <stop stop-color="#2ac940" stop-opacity="0" offset="1"/>
  </radialGradient>
 </defs>
 <g transform="translate(1 2)" fill="#fff" fill-opacity="0.7">
  <path d="m7 0.26163c-3.5228 0-6.405 2.8823-6.405 6.405 0 3.5228 2.8823 6.405 6.405 6.405 3.5228 0 6.405-2.8823 6.405-6.405 0-3.5228-2.8823-6.405-6.405-6.405z" fill="url(#a)" fill-opacity=".5"/>
  <path d="m11 6.6667c0-2.2067-1.7933-4-4-4s-4 1.7933-4 4c0 1.48 0.80667 2.7667 2 3.46l0.66667-1.16c-0.79333-0.46667-1.3333-1.3133-1.3333-2.3 0-1.4733 1.1933-2.6667 2.6667-2.6667s2.6667 1.1933 2.6667 2.6667c0 0.98667-0.54 1.8333-1.3333 2.3l0.66667 1.16c1.1933-0.69333 2-1.98 2-3.46z"/>
  <path d="m7 0c-3.68 0-6.6667 2.9867-6.6667 6.6667 0 2.4667 1.34 4.6133 3.3267 5.7667l0.66667-1.1533c-1.5867-0.92667-2.66-2.64-2.66-4.6133 0-2.9467 2.3867-5.3333 5.3333-5.3333s5.3333 2.3867 5.3333 5.3333c0 1.9733-1.0733 3.6867-2.6667 4.6133l0.66667 1.1533c1.9933-1.1533 3.3333-3.3 3.3333-5.7667 0-3.68-2.9867-6.6667-6.6667-6.6667z"/>
  <path d="m7 5.3333c-0.73333 0-1.3333 0.6-1.3333 1.3333 0 0.73333 0.6 1.3333 1.3333 1.3333s1.3333-0.6 1.3333-1.3333c0-0.73333-0.6-1.3333-1.3333-1.3333z" fill="#2ac940"/>
 </g>
</svg>
