<svg width="16" height="16" version="1.1" viewBox="0 0 16 16" xmlns="http://www.w3.org/2000/svg">
  <path d="m4.8613 2.4004a3.8131 3.8131 0 0 0-2.6426 1.1172 3.8131 3.8131 0 0 0-0.23828 5.125l2.9141 0.0097657 1.4473-5.4004 2.1543 6.6484 1.5918-4.1543 1.2598 2.873h2.7012a3.8131 3.8131 0 0 0-0.30273-5.0488 3.8131 3.8131 0 0 0-5.3926 0 3.8131 3.8131 0 0 0-0.35156 0.41211 3.8131 3.8131 0 0 0-0.39062-0.46484 3.8131 3.8131 0 0 0-2.75-1.1172zm1.5918 5.0254-0.66406 2.4648-2.6191-0.017578 4.832 4.834 4.873-4.873h-2.291l-0.4082-1.0605-1.7793 4.8516-1.9434-6.1992z" fill="#fff" fill-opacity=".7"/>
</svg>
