<?xml version="1.0" encoding="utf-8"?>
<!-- Generator: Adobe Illustrator 19.0.0, SVG Export Plug-In . SVG Version: 6.00 Build 0)  -->
<svg version="1.1" id="Layer_1" xmlns="http://www.w3.org/2000/svg" xmlns:xlink="http://www.w3.org/1999/xlink" x="0px" y="0px" 
	viewBox="0 0 400 1640" enable-background="new 0 0 400 1640" xml:space="preserve">
	<g>
		<g>
			<g>
				<path fill="#FFFFFF" d="M88.5451508,1101.5096436c0-33.1817627,14.7907257-57.3465576,30.6626282-73.2075195
					l32.8251801,29.2137451c-10.8228455,11.8931885-17.6776123,23.0834961-17.6776123,43.2801514
					c0,36.0687256,28.4894257,62.0389404,75.7376404,62.0389404c48.3402405,0,76.4728394-22.0024414,76.4728394-66.3745117
					c0-9.3740234-2.5298767-19.1154785-7.2222595-24.8782959h-40.3934631v38.9447021h-43.2801514v-86.1928711h108.20578
					c14.790741,16.9422607,28.4894409,46.1669922,28.4894409,78.9812012
					c0,63.487793-41.4744263,113.9796143-120.4664612,113.9796143
					C133.9985046,1217.2947998,88.5451508,1165.354126,88.5451508,1101.5096436z"/>
				<path fill="#FFFFFF" d="M149.1460724,993.3145142v-43.2801514l31.3763123-3.6112061v-1.4488525
					c-24.1647034-12.9741821-35.7118835-32.4573364-35.7118835-50.8484497c0-10.0985107,1.4488678-16.2287598,3.6112366-21.2780151
					l45.8101959,8.6496582c-1.8055267,6.4979248-2.8869019,11.9038086-2.8869019,19.4831543
					c0,13.3418579,8.6496429,29.9274292,32.8143463,39.3120728h103.8810577v53.0217896H149.1460724z"/>
				<path fill="#FFFFFF" d="M95.0430756,866.7175903c-16.2285538,0-27.4082413-12.9851685-27.4082413-30.6627808
					c0-18.0343018,11.1796875-30.6517944,27.4082413-30.6517944c16.2287521,0,27.7759323,12.6174927,27.7759323,30.6517944
					C122.8190079,853.7324219,111.2718277,866.7175903,95.0430756,866.7175903z M149.1460724,862.3927002v-53.0216064h178.8943634
					v53.0216064H149.1460724z"/>
				<path fill="#FFFFFF" d="M144.8105011,710.5390625c0-19.8399658,7.2224579-31.7437744,18.7588043-44.0046387
					l-27.4082489,2.1623535h-60.957756v-53.0216064h252.8371277v43.2909546l-17.6773987,3.6004028v1.4486694
					c12.6283569,12.6177368,22.0021362,30.295105,22.0021362,47.6050415c0,44.3613281-35.3442078,73.2184448-93.7719116,73.2184448
					S144.8105011,748.4133301,144.8105011,710.5390625z M289.085022,697.9107056
					c0-11.5363159-4.3247375-20.5534668-16.2287598-29.2139282h-73.2184296
					c-8.6602783,9.3848267-11.5363464,19.8399658-11.5363464,29.581604c0,16.953125,15.8612671,32.100647,49.7674408,32.100647
					C273.2131042,730.3790283,289.085022,718.4750366,289.085022,697.9107056z"/>
				<path fill="#FFFFFF" d="M144.8105011,498.8197327c0-22.0023499,8.3036346-40.3934631,20.5643158-52.2974854
					l32.8249817,24.1647034c-7.2222443,8.6604614-10.4657898,16.5964355-10.4657898,24.8890381
					c0,25.6135864,19.8397827,41.8422852,50.8592529,41.8422852s50.859436-16.953064,50.859436-40.0365906
					c0-12.985199-6.1412659-23.4403687-12.985199-32.100647l33.5386658-21.2780151
					c15.147583,17.3099365,22.3590088,40.0366211,22.3590088,59.5090942c0,49.7781067-34.263031,88.3658142-93.7719116,88.3658142
					S144.8105011,548.2409668,144.8105011,498.8197327z"/>
				<path fill="#FFFFFF" d="M144.8105011,358.8699341c0-45.0858765,34.2738647-86.9279785,93.7827606-86.9279785
					s93.7719116,41.8421021,93.7719116,86.9279785c0,45.4425049-34.263031,87.2848206-93.7719116,87.2848206
					S144.8105011,404.312439,144.8105011,358.8699341z M289.4526978,358.8699341
					c0-21.6346436-19.8399658-32.8249817-50.859436-32.8249817s-50.8592529,11.1903381-50.8592529,32.8249817
					c0,22.0023499,19.8397827,32.8249817,50.8592529,32.8249817S289.4526978,380.8722839,289.4526978,358.8699341z"/>
				<path fill="#FFFFFF" d="M95.0430756,252.4696655c-16.2285538,0-27.4082413-12.9852142-27.4082413-30.6628265
					c0-18.0342712,11.1796875-30.6517944,27.4082413-30.6517944c16.2287521,0,27.7759323,12.6175232,27.7759323,30.6517944
					C122.8190079,239.4844513,111.2718277,252.4696655,95.0430756,252.4696655z M149.1460724,248.1447449v-53.0216217h178.8943634
					v53.0216217H149.1460724z"/>
				<path fill="#FFFFFF" d="M149.1460724,161.2276001v-43.2801514l22.7160339-3.6112289v-1.4488602
					c-14.423233-15.147377-27.0516052-33.181839-27.0516052-57.3465385C144.8105011,16.5962372,172.2295837,0,216.9477692,0
					l111.0926666,0v53.0218124H223.802536c-25.9702148,0-33.9061737,6.8547668-33.9061737,22.0021439
					c0,13.3420486,6.130249,21.6348495,17.3207703,33.1818314h120.8233032v53.0218124H149.1460724z"/>
			</g>
			<g id="XMLID_2_">
				<g id="XMLID_4_">
					<polygon id="XMLID_15_" fill="#FFFFFF" points="31.2804165,1345.5456543 199.9998779,1248.135376 368.7193298,1345.5456543 
						368.7193298,1540.3660889 199.9998779,1637.7762451 31.2804165,1540.3660889 					"/>
					<g id="XMLID_11_">
						
							<linearGradient id="XMLID_3_" gradientUnits="userSpaceOnUse" x1="199.9998779" y1="1249.3907471" x2="199.9998779" y2="1640.786499">
							<stop  offset="0.0017896" style="stop-color:#7F00F7"/>
							<stop  offset="0.5360029" style="stop-color:#41007F"/>
							<stop  offset="1" style="stop-color:#41007F"/>
						</linearGradient>
						<path id="XMLID_12_" fill="url(#XMLID_3_)" d="M272.8725586,1310.6157227
							c-9.780304,8.1820068-20.5173798,15.5750732-31.6372681,22.418457
							c-10.48526,6.4530029-21.2538147,12.4674072-31.7342377,18.3126221
							c-3.2366486,1.8054199-6.4027405,3.5827637-9.5000305,5.3395996
							c-47.825882,27.1273193-78.5947037,49.1533203-78.5947037,86.2711182
							c0,31.3585205,22.0717239,51.7926025,57.847084,73.6462402c4.0865631,2.49646,8.3696136,5.0151367,12.800415,7.5668945
							c-1.575943,0.8796387-3.1231842,1.7496338-4.735672,2.6424561
							c-10.723877,5.9396973-21.8125458,12.0820312-32.7917938,18.8273926
							c-1.088028,0.6687012-2.1768188,1.3461914-3.2653503,2.0283203
							c-3.8738403-2.5228271-7.7055359-5.0950928-11.4257812-7.7824707
							c-31.4933243-22.7467041-56.3709183-51.9616699-56.3709183-96.928833
							c0-53.6617432,35.4169159-85.1234131,75.3021927-109.9233398c11.1320801-6.921875,22.6116791-13.3250732,33.766861-19.5466309
							c2.5370331-1.414917,5.0177002-2.8083496,7.4676666-4.1916504
							c12.8103027-7.2336426,24.2985382-14.0704346,34.4002228-20.8917236L200,1268.5427246l-34.4116364,19.8674316
							c4.3236694,2.9229736,8.8499146,5.8479004,13.7059174,8.8071289
							c4.0812225,2.4866943,8.3579407,5.0014648,12.7806091,7.5526123
							c-1.1022491,0.6181641-2.1803741,1.2276611-3.3026581,1.8533936
							c-11.2013855,6.2476807-22.7845612,12.7075195-34.0844269,19.7340088
							c-1.0943756,0.6802979-2.15625,1.3571777-3.2216797,2.034668c-3.8725739-2.5075684-7.7047729-5.0626221-11.4285889-7.7279053
							c-4.4709015-3.199585-8.763092-6.5649414-12.9159164-10.0450439l-78.1679688,45.130249v174.413208l77.6996002,44.8598633
							c9.8437653-8.3049316,20.6808472-15.7799072,31.916748-22.6831055
							c10.7248993-6.5889893,21.7579651-12.706665,32.4891968-18.6507568
							c3.0444946-1.6862793,6.0209503-3.3465576,8.9418182-4.9899902
							c22.8878632-12.8798828,41.8656006-24.5948486,55.4392548-37.3675537H174.084137l24.3914642-42.3266602h79.8137054h38.088501
							c-0.821228,16.0368652-4.9202271,29.982666-11.3493652,42.3266602
							c-13.5863647,26.0854492-37.6361389,44.9753418-63.5966644,61.0083008
							c-11.0457764,6.8218994-22.4324646,13.1304932-33.4987946,19.2600098
							c-2.696701,1.4940186-5.333252,2.9645996-7.9319611,4.4237061
							c-13.0352325,7.3187256-24.7042084,14.2436523-34.9287567,21.1804199L200,1617.3688965l34.9394073-20.1721191
							c-4.4515991-3.0236816-9.1240692-6.0452881-14.1466064-9.0979004
							c-4.0962067-2.489502-8.3901825-5.0040283-12.8316345-7.5534668c1.2383118-0.6901855,2.4509735-1.371582,3.7133942-2.0706787
							c11.1066895-6.1522217,22.591629-12.5140381,33.8163605-19.4460449
							c1.0720367-0.6621094,2.166153-1.3505859,3.2600098-2.0395508c3.8550568,2.4957275,7.6689911,5.0393066,11.3737335,7.6949463
							c4.584137,3.2856445,8.9806519,6.7481689,13.2266541,10.3354492l77.6947937-44.8570557v-174.413208L272.8725586,1310.6157227z
							 M276.7098389,1427.8409424c-6.0242615-23.3666992-26.3233185-40.7025146-56.096756-59.0339355
							c-4.0632172-2.501709-8.3147888-5.0255127-12.7136078-7.5819092c1.782074-1.0024414,3.5357056-1.9949951,5.3624573-3.0140381
							c9.9587402-5.5540771,21.2454224-11.8493652,32.0220947-18.4814453
							c1.0773621-0.6630859,2.1552429-1.3349609,3.2331085-2.0107422c3.861145,2.5308838,7.6798859,5.111084,11.3884735,7.8037109
							c27.9378052,20.2861328,50.6766663,45.6148682,55.6037598,82.3183594H276.7098389z"/>
					</g>
					<g id="XMLID_7_">
						<linearGradient id="XMLID_5_" gradientUnits="userSpaceOnUse" x1="200" y1="1249.3907471" x2="200" y2="1640.786499">
							<stop  offset="0.0017896" style="stop-color:#7F00F7"/>
							<stop  offset="0.5360029" style="stop-color:#41007F"/>
							<stop  offset="1" style="stop-color:#41007F"/>
						</linearGradient>
						<path id="XMLID_8_" fill="url(#XMLID_5_)" d="M199.999588,1640L29.35536,1541.4771729v-197.043335l170.6442261-98.5220947
							l170.6450653,98.5220947v197.043335L199.999588,1640z M37.5979881,1536.7186279l162.4015961,93.7626953l162.40242-93.7626953
							v-187.5262451l-162.40242-93.7619629l-162.4015961,93.7619629V1536.7186279z"/>
					</g>
				</g>
			</g>
		</g>
	</g>
</svg>
