<?xml version="1.0" encoding="utf-8"?>
<!-- Generator: Adobe Illustrator 19.0.0, SVG Export Plug-In . SVG Version: 6.00 Build 0)  -->
<svg version="1.1" id="Layer_1" xmlns="http://www.w3.org/2000/svg" xmlns:xlink="http://www.w3.org/1999/xlink" x="0px" y="0px" viewBox="0 0 1640 400"
	 enable-background="new 0 0 1640 400" xml:space="preserve">
	<g>
		<g>
			<g>
				<g>
					<g>
						<path fill="#FFFFFF" d="M248.2669983,65.6745987c-9.927002,8.3048019-20.8249969,15.8087997-32.1117554,22.7547989
							c-10.6426544,6.5498047-21.5726471,12.6544037-32.2102509,18.5874023
							c-3.285202,1.8326035-6.4987946,3.6363983-9.6425934,5.4196014
							c-48.5434036,27.5341949-79.7738037,49.8907928-79.7738037,87.5653992
							c0,31.8287964,22.4029999,52.569397,58.7149963,74.7510071c4.1478119,2.533783,8.4952087,5.0903931,12.9924011,7.6803894
							c-1.5995941,0.8927917-3.1699982,1.7758179-4.8067474,2.6820068
							c-10.8846436,6.0288086-22.1396484,12.2631836-33.2836456,19.1099854
							c-1.1043549,0.6786194-2.2096024,1.3664246-3.3143539,2.0586243
							c-3.9319992-2.5606079-7.8210449-5.1716003-11.5972519-7.8992004
							c-31.9657974-23.0877991-57.2163963-52.7412109-57.2163963-98.3828125
							c0-54.4667969,35.9482002-86.4003983,76.4318085-111.572403c11.298996-7.0255966,22.9507904-13.5249939,34.2733917-19.839798
							c2.5749969-1.436203,5.092804-2.8506012,7.5796051-4.2546005
							c13.0023956-7.3419991,24.6629944-14.2813988,34.9161987-21.2052002l-34.9172058-20.1591988l-34.9277954,20.1654015
							c4.3883972,2.9667969,8.982605,5.9356003,13.9114075,8.9391975c4.142395,2.5240021,8.4833984,5.0764008,12.9723969,7.6660004
							c-1.1188049,0.6273994-2.2132111,1.2460022-3.3521576,1.8811989
							c-11.3694458,6.3414001-23.1264496,12.898201-34.5958405,20.0299988
							c-1.1108093,0.6906052-2.1886063,1.3774033-3.2700043,2.0652008
							c-3.930603-2.5451965-7.8204041-5.1385956-11.5999985-7.8437958
							c-4.538002-3.2476044-8.8945999-6.6633987-13.1096039-10.1958008L20.9892426,111.485199V288.514801l78.8651581,45.5328064
							c9.991394-8.4294128,20.9909973-16.0166016,32.395401-23.0231934
							c10.885788-6.6880188,22.0843964-12.8973999,32.976593-18.930603c3.0901947-1.7116089,6.1114044-3.3968201,9.076004-5.0648193
							c23.2312012-13.0731812,42.4935913-24.9638062,56.2709961-37.9281921h-82.5765991l24.7574005-42.9615936h81.0110474
							h38.6597443c-0.8335876,16.2773895-4.993988,30.4323883-11.5195923,42.9615936
							c-13.7901611,26.4768066-38.2008057,45.6499939-64.5507965,61.9236145
							c-11.2113495,6.9241943-22.7689972,13.3273926-34.0012054,19.5487976
							c-2.7371979,1.5163879-5.4131927,3.0090027-8.0509949,4.4901733
							c-13.2308044,7.4284058-25.0747986,14.4572144-35.4528046,21.49823l35.4517975,20.4679871l35.4636078-20.4747925
							c-4.5184021-3.0690002-9.2610016-6.1360168-14.3590088-9.2344055
							c-4.1575928-2.5270081-8.5159912-5.07901-13.0240021-7.6668091c1.2568054-0.700592,2.4878082-1.3921814,3.7690125-2.1018066
							c11.2733917-6.2443848,22.9305878-12.7017822,34.3237915-19.737793
							c1.0879974-0.6719971,2.1986084-1.3707886,3.3088074-2.0700073c3.9129944,2.53302,7.7839966,5.1148071,11.5443878,7.8102112
							c4.6528015,3.3349915,9.1154022,6.8496094,13.4250031,10.4906006l78.8604431-45.5299988V111.485199L248.2669983,65.6745987z
							 M252.1619873,184.6584015c-6.1145935-23.7172089-26.7181854-41.3130035-56.938385-59.9194031
							c-4.1240082-2.5393982-8.4394073-5.1009979-12.9042053-7.6958008c1.8087921-1.017395,3.5885925-2.0249939,5.4427948-3.0591965
							c10.1082001-5.6373978,21.564209-12.0271988,32.5026093-18.7585983
							c1.093399-0.6730042,2.1873932-1.3552017,3.281601-2.0410004c3.9189911,2.5687943,7.7949982,5.1877975,11.5591888,7.9207993
							c28.3569946,20.5904007,51.4370117,46.2990036,56.4379883,83.5531998H252.1619873z"/>
					</g>
					<g>
						<path fill="#FFFFFF" d="M174.3009949,400L1.0968,299.9992065V100L174.3009949,0l173.204834,100v199.9992065L174.3009949,400z
							 M9.4632425,295.1694031l164.8377533,95.1691895l164.8386536-95.1691895V104.8300018L174.3009949,9.6613998
							L9.4632425,104.8300018V295.1694031z"/>
					</g>
				</g>
			</g>
			<g>
				<path fill="#FFFFFF" d="M520.8696289,86.8731995c33.6796265,0,58.2067871,15.0126038,74.3057861,31.1225967
					l-29.6519775,33.3176041c-12.0715942-10.985199-23.4298096-17.9427948-43.9293823-17.9427948
					c-36.6098022,0-62.9696045,28.9167938-62.9696045,76.8737946c0,49.0654144,22.3323975,77.6200104,67.3701782,77.6200104
					c9.5145874,0,19.4022217-2.5678101,25.2514038-7.3305969v-40.9994202h-39.5287781v-43.9293976h87.4858093v109.8289948
					c-17.1964111,15.0126038-46.8596191,28.9168091-80.1660156,28.9168091
					c-64.4402161,0-115.6893921-42.0965881-115.6893921-122.2736053
					C403.3476562,133.0084076,456.0674438,86.8731995,520.8696289,86.8731995z"/>
				<path fill="#FFFFFF" d="M630.6878662,148.383194h43.9293823l3.6654053,31.8470001h1.4705811
					c13.1688232-24.5271912,32.9442139-36.2475891,51.6112061-36.2475891c10.25,0,16.472229,1.4705963,21.597229,3.66539
					l-8.7794189,46.497406c-6.5953979-1.8325958-12.0823975-2.9302063-19.7753906-2.9302063
					c-13.5419922,0-30.3764038,8.7794037-39.9017944,33.3066101v105.4394073h-53.8171997V148.383194z"/>
				<path fill="#FFFFFF" d="M759.1838379,93.4685974c0-16.4720001,13.1799927-27.819397,31.1228027-27.819397
					c18.3048096,0,31.1115723,11.3473969,31.1115723,27.819397c0,16.4722061-12.8067627,28.1926041-31.1115723,28.1926041
					C772.3638306,121.6612015,759.1838379,109.9408035,759.1838379,93.4685974z M763.5736694,148.383194h53.8169556v181.5780182
					h-53.8169556V148.383194z"/>
				<path fill="#FFFFFF" d="M917.7052612,143.982605c20.1375732,0,32.2199707,7.3307953,44.6647949,19.0401917l-2.1948242-27.819397
					v-61.8722h53.8170166v256.6300049h-43.9404297l-3.6543579-17.942627h-1.4703979
					c-12.8070068,12.8178101-30.7496338,22.3322144-48.3192139,22.3322144
					c-45.0267944,0-74.3168335-35.8743896-74.3168335-95.1786041S879.2628174,143.982605,917.7052612,143.982605z
					 M930.5230713,290.4213867c11.7093506,0,20.8617554-4.3895874,29.6521606-16.4721985v-74.3167877
					c-9.5255737-8.7902069-20.1375732-11.7093964-30.0253906-11.7093964c-17.2073975,0-32.5822144,16.0991974-32.5822144,50.5139923
					C897.567627,274.3114014,909.6502686,290.4213867,930.5230713,290.4213867z"/>
				<path fill="#FFFFFF" d="M1132.6005859,143.982605c22.3323975,0,40.9995117,8.4281921,53.0820312,20.8727875
					l-24.5272217,33.3174133c-8.7904053-7.3306122-16.8453369-10.6228027-25.2623291-10.6228027
					c-25.9978027,0-42.4699707,20.1373901-42.4699707,51.6221924s17.2073975,51.6223907,40.637207,51.6223907
					c13.1799316,0,23.7919922-6.2333984,32.5821533-13.1799927l21.597168,34.0418091
					c-17.5695801,15.3747864-40.637207,22.694397-60.4017334,22.694397c-50.5249023,0-89.6914062-34.7770081-89.6914062-95.1786041
					S1082.4379883,143.982605,1132.6005859,143.982605z"/>
				<path fill="#FFFFFF" d="M1274.6499023,143.982605c45.762085,0,88.2319336,34.7879944,88.2319336,95.1895905
					s-42.4698486,95.1786041-88.2319336,95.1786041c-46.1242676,0-88.5942383-34.7770081-88.5942383-95.1786041
					S1228.5256348,143.982605,1274.6499023,143.982605z M1274.6499023,290.7945862
					c21.9591064,0,33.3173828-20.1375732,33.3173828-51.6223907s-11.3582764-51.6221924-33.3173828-51.6221924
					c-22.3325195,0-33.3175049,20.1373901-33.3175049,51.6221924S1252.3173828,290.7945862,1274.6499023,290.7945862z"/>
				<path fill="#FFFFFF" d="M1382.6462402,93.4685974c0-16.4720001,13.1800537-27.819397,31.1228027-27.819397
					c18.3048096,0,31.1115723,11.3473969,31.1115723,27.819397c0,16.4722061-12.8067627,28.1926041-31.1115723,28.1926041
					C1395.8262939,121.6612015,1382.6462402,109.9408035,1382.6462402,93.4685974z M1387.0360107,148.383194h53.8170166v181.5780182
					h-53.8170166V148.383194z"/>
				<path fill="#FFFFFF" d="M1475.2570801,148.383194h43.9293213l3.6654053,23.0568085h1.4705811
					c15.3746338-14.6396027,33.6796875-27.4573975,58.2069092-27.4573975c39.5286865,0,56.3739014,27.8303986,56.3739014,73.2193909
					v112.7592163h-53.8171387V224.1596069c0-26.3598022-6.9576416-34.4148102-22.3322754-34.4148102
					c-13.5421143,0-21.9593506,6.2221985-33.6795654,17.5805969v122.6358185h-53.8171387V148.383194z"/>
			</g>
		</g>
	</g>
</svg>
