<?xml version="1.0" encoding="UTF-8" standalone="no"?>
<!-- Generator: Adobe Illustrator 19.0.0, SVG Export Plug-In . SVG Version: 6.00 Build 0)  -->

<svg
   xmlns:dc="http://purl.org/dc/elements/1.1/"
   xmlns:cc="http://creativecommons.org/ns#"
   xmlns:rdf="http://www.w3.org/1999/02/22-rdf-syntax-ns#"
   xmlns:svg="http://www.w3.org/2000/svg"
   xmlns="http://www.w3.org/2000/svg"
   xmlns:sodipodi="http://sodipodi.sourceforge.net/DTD/sodipodi-0.dtd"
   xmlns:inkscape="http://www.inkscape.org/namespaces/inkscape"
   version="1.1"
   id="Layer_1"
   x="0px"
   y="0px"
   viewBox="0 0 500 500"
   enable-background="new 0 0 500 500"
   xml:space="preserve"
   inkscape:version="0.48.4 r9939"
   width="100%"
   height="100%"
   sodipodi:docname="gridcoin_testnet.svg"><metadata
     id="metadata3131"><rdf:RDF><cc:Work
         rdf:about=""><dc:format>image/svg+xml</dc:format><dc:type
           rdf:resource="http://purl.org/dc/dcmitype/StillImage" /></cc:Work></rdf:RDF></metadata><defs
     id="defs3129" /><sodipodi:namedview
     pagecolor="#ffffff"
     bordercolor="#666666"
     borderopacity="1"
     objecttolerance="10"
     gridtolerance="10"
     guidetolerance="10"
     inkscape:pageopacity="0"
     inkscape:pageshadow="2"
     inkscape:window-width="1938"
     inkscape:window-height="1476"
     id="namedview3127"
     showgrid="false"
     inkscape:zoom="2.9019662"
     inkscape:cx="299.47565"
     inkscape:cy="212.38108"
     inkscape:window-x="1138"
     inkscape:window-y="228"
     inkscape:window-maximized="0"
     inkscape:current-layer="Layer_1" /><g
     extraneous="self"
     id="g3104"><g
       id="XMLID_2_"><g
         id="XMLID_4_"><polygon
           id="XMLID_15_"
           fill="#FFFFFF"
           points="35.9367828,126.4105606 249.9998474,2.8211956 464.0628967,126.4105606       464.0628967,373.5892944 249.9998474,497.1786499 35.9367828,373.5892944     " /><g
           id="XMLID_11_"><linearGradient
             id="XMLID_3_"
             gradientUnits="userSpaceOnUse"
             x1="249.9998474"
             y1="4.4139061"
             x2="249.9998474"
             y2="500.9979248"><stop
               offset="0.0017896"
               style="stop-color:#7F00F7"
               id="stop3111" /><stop
               offset="0.5360029"
               style="stop-color:#41007F"
               id="stop3113" /><stop
               offset="1"
               style="stop-color:#41007F"
               id="stop3115" /></linearGradient><path
             id="XMLID_12_"
             fill="url(#XMLID_3_)"
             d="M342.4571533,82.0932159       c-12.408783,10.3809509-26.0314331,19.7608719-40.1398315,28.4434967       c-13.3031616,8.1872635-26.9657898,15.8179779-40.2628479,23.2341766       c-4.1065063,2.2906342-8.1234894,4.545517-12.0531769,6.7746277       c-60.6791687,34.4177551-99.7171478,62.3633118-99.7171478,109.4564972       c0,39.7861938,28.00354,65.7119751,73.3935699,93.4388428c5.184845,3.1673279,10.6189728,6.3630066,16.2405548,9.6005554       c-1.9994812,1.1159973-3.9625549,2.2197876-6.0084076,3.3525391       c-13.6059265,7.5360107-27.6746826,15.3290405-41.6046295,23.8873596       c-1.3804321,0.8483582-2.7618256,1.7079773-4.1429138,2.5733948c-4.9149323-3.2008057-9.7763977-6.464447-14.4964752-9.8739929       c-39.9571991-28.8599548-71.5206833-65.9264832-71.5206833-122.9786987       c0-68.0834351,44.9352646-108.0003815,95.539772-139.4653015       c14.1238251-8.7821426,28.6885986-16.9062805,42.8417358-24.7998123       c3.2188721-1.7952652,6.3662262-3.5631638,9.4746246-5.3181763       c16.2530975-9.1776581,30.8288116-17.8519058,43.64534-26.5065079L250,28.713028l-43.6598206,25.2069168       c5.4856567,3.7084274,11.2283325,7.419426,17.3894043,11.173912       c5.1780701,3.1550903,10.6041412,6.3456116,16.2154236,9.5825119c-1.3984833,0.7842636-2.7663422,1.557579-4.1902618,2.3515015       c-14.2117615,7.9267044-28.9079285,16.1226654-43.2446594,25.0375061       c-1.3884888,0.8631744-2.7357483,1.7218323-4.0875244,2.5814667c-4.9133148-3.1815033-9.7754364-6.423233-14.5000153-9.8047485       c-5.6724701-4.059494-11.1181946-8.3292999-16.3871002-12.7446899l-99.1757202,57.2589951v221.2870636l98.5814972,56.9159851       c12.4892731-10.5368347,26.2388611-20.020813,40.4944153-28.7791138       c13.6072235-8.3598938,27.6054535-16.1217041,41.2207184-23.6631775       c3.8627014-2.1395874,7.6390839-4.2460022,11.3449402-6.3311462       c29.0390167-16.3413391,53.1170502-31.2046814,70.3386383-47.4100952H217.1192169l30.946701-53.7019653h101.2637634h48.3248291       c-1.0419312,20.3467407-6.2425537,38.0404968-14.3995361,53.7019653       c-17.2377014,33.0959167-47.750885,57.0625-80.6883545,77.4044189       c-14.0143433,8.6552429-28.4612122,16.6592407-42.5016174,24.4361877       c-3.4214478,1.8954163-6.7665863,3.7612305-10.0637054,5.6125488       c-16.5384674,9.285553-31.3435059,18.0715637-44.3159027,26.8727112L250,471.2868347l44.3294373-25.5934143       c-5.6479797-3.8363037-11.5762024-7.6700134-17.9485474-11.5430298       c-5.197052-3.1586304-10.64505-6.3488159-16.2801514-9.5834656c1.571106-0.8757324,3.1096802-1.7402039,4.7113953-2.6271973       c14.0916138-7.805603,28.663147-15.8772583,42.904541-24.6722717c1.3601379-0.8399963,2.748291-1.7134705,4.1361389-2.5875854       c4.8911133,3.1663513,9.7300415,6.3935852,14.4304504,9.7628784       c5.8161316,4.1686707,11.3942261,8.5618286,16.781311,13.1131592l98.5753784-56.9124451V139.3563995L342.4571533,82.0932159z        M347.3257141,230.8228302c-7.64328-29.6464691-33.3977356-51.6412811-71.1728516-74.8993073       c-5.1552124-3.1740875-10.5493774-6.3762054-16.1303711-9.6195526       c2.2609863-1.2718811,4.4859009-2.5312195,6.8035889-3.8240509       c12.6351929-7.0467682,26.9551697-15.0340271,40.6280823-23.4483566       c1.3669128-0.8412704,2.7344666-1.6938171,4.1020203-2.5511932c4.8988342,3.2111359,9.743866,6.4847488,14.4491272,9.9010468       c35.446167,25.7380295,64.2961121,57.873848,70.5473633,104.4414139H347.3257141z" /></g><g
           id="XMLID_7_"><linearGradient
             id="XMLID_5_"
             gradientUnits="userSpaceOnUse"
             x1="250"
             y1="4.4139061"
             x2="250"
             y2="500.9979248"><stop
               offset="0.0017896"
               style="stop-color:#7F00F7"
               id="stop3120" /><stop
               offset="0.5360029"
               style="stop-color:#41007F"
               id="stop3122" /><stop
               offset="1"
               style="stop-color:#41007F"
               id="stop3124" /></linearGradient><path
             id="XMLID_8_"
             fill="url(#XMLID_5_)"
             d="M249.9994812,500L33.4943619,374.9989624V125L249.9994812,0l216.5061646,125       v249.9989624L249.9994812,500z M43.9522095,368.9616089l206.0472717,118.9616394l206.0483093-118.9616394V131.0373535       L249.9994812,12.0767651L43.9522095,131.0373535V368.9616089z" /></g></g></g></g><path
     style="fill:#d40000"
     d="m 150.58214,253.37106 c -0.95393,-19.08241 5.07804,-36.78693 18.0195,-52.88929 5.80287,-7.2202 17.22034,-17.84031 27.53088,-25.60819 l 3.51547,-2.64852 50.34397,0 50.34397,0 3.51546,2.64793 c 23.43463,17.65154 36.89215,34.53836 42.58345,53.43474 l 0.75245,2.4983 24.74771,0 24.74772,0 -0.77451,-4.56587 c -1.82844,-10.77891 -4.80008,-20.76223 -9.10325,-30.58271 -2.86945,-6.54851 -7.99201,-15.76405 -11.61287,-20.89169 -0.82,-1.16123 -1.49091,-2.20793 -1.49091,-2.32601 0,-0.11808 15.27413,-0.21469 33.94251,-0.21469 l 33.9425,0 0,43.07425 0,43.07424 -21.88171,0 c -14.35809,0 -21.88172,-0.11848 -21.88172,-0.34459 0,-0.22868 -25.20601,-0.3446 -74.92885,-0.3446 -49.58085,0 -75.00089,0.11657 -75.14181,0.3446 -0.14035,0.22708 -16.7025,0.34459 -48.56643,0.34459 l -48.35345,0 -0.25008,-5.00249 z"
     id="path3135"
     inkscape:connector-curvature="0" /><path
     style="fill:#d40000"
     d="m 107.42754,388.85492 -49.007164,-28.30926 -0.01133,-66.59278 -0.01133,-66.59279 22.698712,0 22.698707,0 -0.28439,1.52231 c -0.9719,5.20229 -1.41606,13.79156 -1.23992,23.97765 0.272,15.72955 1.93765,26.1342 6.31641,39.456 10.67567,32.47933 34.25189,60.26823 73.51872,86.65527 l 6.0537,4.06805 5.67464,-3.45938 c 8.85371,-5.39741 18.34801,-10.87384 32.38067,-18.67758 7.10725,-3.95243 13.12424,-7.36901 13.37109,-7.59241 0.35505,-0.32132 -0.94082,-1.22164 -6.20269,-4.30938 -42.79594,-25.11333 -64.50358,-44.14007 -75.19355,-65.90714 -1.23202,-2.50865 -2.79588,-6.11186 -3.47525,-8.00712 -1.42513,-3.97574 -3.11943,-11.01106 -3.46333,-14.38091 l -0.23677,-2.32012 48.19651,-0.092 c 26.50809,-0.0506 48.22963,-0.0848 48.2701,-0.0759 0.0405,0.009 -6.8032,11.94906 -15.20815,26.53373 l -15.28173,26.51759 51.43098,0.1723 51.43098,0.17229 -3.11524,2.75676 c -16.39725,14.5103 -35.71965,26.93561 -82.25269,52.89277 -38.43456,21.43965 -54.56491,31.68375 -72.69976,46.17035 -2.61508,2.08899 -4.88881,3.78306 -5.05273,3.76459 -0.16392,-0.0185 -22.35126,-12.77276 -49.3052,-28.34286 l 0,0 z"
     id="path3137"
     inkscape:connector-curvature="0" /><path
     style="fill:#d40000"
     d="m 58.397721,186.69801 0,-40.66209 45.535719,0 45.53572,0 -5.48221,5.59965 c -6.65943,6.80208 -10.83828,11.63525 -15.5675,18.00504 -12.2397,16.48564 -20.42477,34.99756 -24.03522,54.35969 l -0.6265,3.35979 -22.680005,0 -22.680004,0 0,-40.66208 z"
     id="path3139"
     inkscape:connector-curvature="0" /><path
     style="fill:#d40000"
     d="m 103.95781,146.1208 -45.585015,-0.0874 0.09861,-3.32036 0.09861,-3.32036 48.587742,-28.01986 c 26.72327,-15.410923 48.98768,-28.253021 49.47647,-28.537996 0.86898,-0.506623 0.9647,-0.45613 4.30743,2.272179 5.7878,4.723956 12.48618,9.663882 19.97213,14.729068 3.94121,2.666719 7.28858,4.848589 7.43861,4.848589 0.15002,0 2.91498,-1.6239 6.14435,-3.60866 8.62958,-5.303723 16.73726,-10.017164 31.79319,-18.483129 l 13.43421,-7.55407 9.46404,0.09154 9.46405,0.09154 -3.55481,2.041426 c -1.95514,1.122784 -10.6879,6.06239 -19.40612,10.976901 -22.59918,12.739276 -31.51333,17.983476 -42.90195,25.239236 -15.79822,10.06515 -31.25357,21.643 -41.35127,30.97688 l -1.89527,1.75191 -45.58501,-0.0874 z"
     id="path3141"
     inkscape:connector-curvature="0" /><path
     style="fill:#d40000"
     d="m 239.99873,74.776575 c 0,-0.150149 -1.0467,-0.881212 -2.32601,-1.624591 -8.04204,-4.673056 -18.46859,-11.017427 -24.3208,-14.798777 l -6.79382,-4.389758 21.7222,-12.526799 21.7222,-12.526798 21.69748,12.513833 21.69747,12.513834 -5.59298,3.620926 c -7.06622,4.574711 -15.68451,9.877476 -23.01177,14.158967 l -5.7026,3.332158 -9.54568,0 c -5.25013,0 -9.54569,-0.122848 -9.54569,-0.272995 z"
     id="path3143"
     inkscape:connector-curvature="0" /><path
     style="fill:#d40000"
     d="m 202.77645,169.9528 c 14.26215,-10.05658 28.87547,-18.92048 60.31008,-36.58187 19.59985,-11.01209 24.14046,-13.60961 32.56412,-18.62878 14.67922,-8.74647 29.86015,-18.945515 39.1593,-26.308477 l 2.97692,-2.357097 5.57977,0 5.57977,0 34.00066,19.603374 c 18.70036,10.78186 39.50554,22.78103 46.23374,26.66482 l 12.23308,7.06144 0.0895,16.40943 0.0895,16.40942 -34.07599,0 -34.07599,0 -2.91374,-3.87668 c -12.27057,-16.32577 -30.75105,-33.06255 -53.15056,-48.13559 -5.30481,-3.56971 -5.87341,-3.87056 -6.53181,-3.45605 -5.68831,3.58123 -24.26159,14.44182 -35.95591,21.02497 -8.19703,4.61439 -14.89821,8.47559 -14.89151,8.58045 0.007,0.10486 2.91422,1.89513 6.46114,3.97839 10.67239,6.26833 24.55156,15.12534 31.22498,19.92627 l 2.72201,1.95824 -50.42577,0 -50.42576,0 3.22249,-2.27226 z"
     id="path3145"
     inkscape:connector-curvature="0" /><path
     style="fill:#d40000"
     d="m 228.28164,458.56385 c -11.84492,-6.83786 -21.65955,-12.55323 -21.81027,-12.70082 -0.28116,-0.27529 7.80978,-5.71449 15.78077,-10.60876 10.51264,-6.45485 19.499,-11.63214 42.04046,-24.22063 23.88359,-13.33801 33.46043,-18.95436 45.69269,-26.79653 38.22742,-24.50781 61.78224,-48.56333 75.4226,-77.02583 7.06277,-14.73743 10.31587,-27.28371 12.29176,-47.40585 0.1655,-1.68538 0.24423,-1.82475 0.92732,-1.64152 0.41056,0.11013 10.24433,0.20235 21.85284,0.20493 l 21.10638,0.005 -0.009,51.08605 -0.009,51.08606 -48.97097,28.2567 c -26.93404,15.54119 -49.11078,28.31049 -49.28164,28.37623 -0.17086,0.0657 -2.20394,-1.41716 -4.51795,-3.29533 -6.49686,-5.27318 -12.14692,-9.43973 -19.84571,-14.63491 -6.47391,-4.36863 -7.11258,-4.72186 -7.76849,-4.29663 -5.71237,3.70337 -20.50308,12.32097 -36.89704,21.49754 -7.58107,4.24353 -13.90407,7.83423 -14.05112,7.97933 -0.14705,0.14511 3.26443,2.33232 7.58106,4.86047 8.12512,4.75869 17.58874,10.61745 23.06187,14.2772 l 3.15265,2.1081 -21.58843,12.46515 c -11.87363,6.85584 -21.82143,12.55328 -22.10621,12.66098 -0.30756,0.11632 -9.26187,-4.85197 -22.05401,-12.23664 l -2e-5,0 z"
     id="path3147"
     inkscape:connector-curvature="0" /><path
     style="fill:#d40000"
     d="m 74.93823,101.44505 c 0,-0.076 0.581503,-0.48277 1.292228,-0.90383 2.316549,-1.372424 73.604982,-42.539626 103.808922,-59.94694 16.20453,-9.339089 32.52031,-18.745358 36.25729,-20.902819 l 6.7945,-3.922656 9.88997,0.09145 9.88996,0.09145 -37.18781,21.506441 C 185.23,49.286692 151.87948,68.553801 131.57104,80.273948 l -36.924455,21.309352 -9.854177,0 c -5.419798,0 -9.854178,-0.0622 -9.854178,-0.13825 z"
     id="path3149"
     inkscape:connector-curvature="0" /><path
     style="fill:#d40000"
     d="m 79.138732,101.2574 -3.552861,-0.19099 32.154159,-18.570248 c 17.68479,-10.21364 50.9173,-29.388412 73.85003,-42.610605 l 41.69587,-24.040351 9.36707,0.225548 9.36707,0.225548 -10.22856,5.909778 c -5.6257,3.250379 -38.83847,22.438787 -73.80614,42.640907 l -63.577582,36.731123 -5.858097,-0.0648 c -3.221953,-0.0357 -7.456884,-0.15081 -9.410959,-0.25586 z"
     id="path3151"
     inkscape:connector-curvature="0" /><path
     style="fill:#d40000"
     d="m 310.1236,46.553573 c -1.89527,-1.07565 -15.85132,-9.111608 -31.01346,-17.857692 -15.16213,-8.746082 -27.92293,-16.092046 -28.35734,-16.324365 -0.70481,-0.37693 -1.16848,-0.20697 -4.30742,1.578897 l -3.5176,2.001295 -9.82093,-0.172297 -9.82092,-0.172297 13.09457,-7.5684403 c 7.20201,-4.1626422 13.33271,-7.56858407 13.62378,-7.56876006 0.29107,-1.7595e-4 10.29291,5.63870626 22.22631,12.53084936 34.78426,20.08967 60.96947,35.249277 61.12439,35.387221 0.079,0.07032 -4.34045,0.12638 -9.82093,0.124581 l -9.96451,-0.0031 -3.44594,-1.955722 0,-1.69e-4 z"
     id="path3153"
     inkscape:connector-curvature="0" /><path
     style="fill:#d40000"
     d="M 449.16726,126.84335 C 446.33731,125.24753 381.43323,87.78784 342.97619,65.554678 l -29.17432,-16.866545 9.92339,-0.09129 9.92339,-0.09129 5.29488,3.062589 c 2.91218,1.684424 25.45362,14.690427 50.09208,28.902227 24.63847,14.211801 52.12415,30.072742 61.07928,35.246542 l 16.28207,9.4069 0,1.49661 0,1.49662 -7.49492,-0.005 -7.49492,-0.005 -2.23986,-1.26306 0,-1e-5 z"
     id="path3155"
     inkscape:connector-curvature="0" /><path
     style="fill:#d40000"
     d="m 141.61716,437.27099 -107.857906,-62.28971 -0.08681,-88.11124 -0.08681,-88.11124 5.169573,0 5.169573,0 0.0075,85.20085 0.0075,85.20085 102.355835,59.09787 c 56.29571,32.50382 102.70983,59.23525 103.1425,59.40318 0.67243,0.26098 15.73093,-8.32088 103.69842,-59.09787 l 102.91175,-59.40318 0.005,-85.20085 0.005,-85.20085 5.16956,0 5.1696,0 -0.0868,88.11419 -0.0868,88.11419 -107.85791,62.28951 c -59.32185,34.25923 -108.0905,62.28827 -108.37479,62.28676 -0.28429,-0.002 -49.05295,-28.03312 -108.3748,-62.29246 z"
     id="path3157"
     inkscape:connector-curvature="0" /><path
     style="fill:#d40000"
     d="m 456.0561,164.73014 -0.003,-34.02865 -2.32298,-1.28227 -2.32297,-1.28227 7.49492,-0.01 7.49492,-0.01 0,35.32088 0,35.32088 -5.16891,0 -5.16891,0 -0.003,-34.02866 0,0 z"
     id="path3159"
     inkscape:connector-curvature="0" /><path
     style="fill:#d40000"
     d="m 33.586957,155.23096 0,-30.08868 20.452948,-11.78486 20.452948,-11.78485 9.885239,0.0915 9.885239,0.0915 -25.083131,14.50519 -25.083128,14.5052 -0.08822,27.27682 -0.08822,27.27682 -5.166834,0 -5.166834,0 0,-30.08867 z"
     id="path3161"
     inkscape:connector-curvature="0" /><path
     style="fill:#d40000"
     d="m 33.586957,192.03922 0,-6.71959 5.168909,0 5.168909,0 0,6.71959 0,6.71958 -5.168909,0 -5.168909,0 0,-6.71958 z"
     id="path3163"
     inkscape:connector-curvature="0" /><path
     style="fill:#d40000"
     d="m 340.13773,84.14685 c 1.18548,-0.947633 2.23704,-1.72297 2.33682,-1.72297 0.22178,0 4.46471,2.340551 5.40707,2.982739 0.58298,0.397275 -0.0731,0.463201 -4.60979,0.463201 l -5.2895,0 2.1554,-1.72297 z"
     id="path3165"
     inkscape:connector-curvature="0" /></svg>