<svg height="90" viewBox="0 0 90 90" width="90" xmlns="http://www.w3.org/2000/svg">
  <g fill="none" fill-rule="evenodd">
    <path d="m0 0h90v90h-90z" fill="none" />
    <g transform="translate(6 1.5)">
      <path d="m70.5 13.47225-4.5-4.5 4.5-4.5 4.5 4.5z"
      stroke="#cdb0f1" stroke-linecap="round"
      stroke-linejoin="round" stroke-width="2" />
      <path d="m70.5 4.47225v-3z" stroke="#cdb0f1"
      stroke-linecap="round" stroke-linejoin="round"
      stroke-width="2" />
      <path d="m75 8.97225h3z" stroke="#cdb0f1"
      stroke-linecap="round" stroke-linejoin="round"
      stroke-width="2" />
      <path d="m70.5 13.47225v3z" stroke="#cdb0f1"
      stroke-linecap="round" stroke-linejoin="round"
      stroke-width="2" />
      <path d="m66 8.97225h-3z" stroke="#cdb0f1"
      stroke-linecap="round" stroke-linejoin="round"
      stroke-width="2" />
      <path d="m64.5 16.47225c0 .828-.672 1.5-1.5 1.5s-1.5-.672-1.5-1.5.672-1.5 1.5-1.5 1.5.672 1.5 1.5"
      fill="#cdb0f1" />
      <path d="m3 47.97225c0 .828-.672 1.5-1.5 1.5s-1.5-.672-1.5-1.5.672-1.5 1.5-1.5 1.5.672 1.5 1.5"
      fill="#cdb0f1" />
      <path d="m4.5 10.47225c0 .828-.672 1.5-1.5 1.5s-1.5-.672-1.5-1.5.672-1.5 1.5-1.5 1.5.672 1.5 1.5"
      fill="#cdb0f1" />
      <path d="m21 23.97225c0 .828-.672 1.5-1.5 1.5s-1.5-.672-1.5-1.5.672-1.5 1.5-1.5 1.5.672 1.5 1.5"
      fill="#cdb0f1" />
      <path d="m76.5 44.97225c0 .828-.672 1.5-1.5 1.5s-1.5-.672-1.5-1.5.672-1.5 1.5-1.5 1.5.672 1.5 1.5"
      fill="#cdb0f1" />
      <path d="m15 79.47225c0 .828-.672 1.5-1.5 1.5s-1.5-.672-1.5-1.5.672-1.5 1.5-1.5 1.5.672 1.5 1.5"
      fill="#cdb0f1" />
      <path d="m73.5 80.97225c0 .828-.672 1.5-1.5 1.5s-1.5-.672-1.5-1.5.672-1.5 1.5-1.5 1.5.672 1.5 1.5"
      fill="#cdb0f1" />
      <path d="m54 38.97225c-2.3415-4.6485-4.7955-11.2185-5.6535-16.371l-2.2725-13.1385c-.648-3.8865-2.2875-5.643-4.7415-8.6865-.837-1.035-2.424-1.035-3.2595 0-2.4555 3.0435-4.095 4.8-4.743 8.6865l-2.271 13.1385c-.8595 5.1525-3.2175 11.7225-5.559 16.371-1.242 2.466-2.2605 4.974-4.527 6.552-5.6355 3.924-13.8465 9.9525-14.973 16.713v4.4475c0 .4095.3135.7485.7215.7815l18.645 1.5045c.8745.0915 1.5375.828 1.5375 1.707v2.103c0 .3825.3105.6915.6915.6915h3.0135c.2865 0 .543.177.6465.444l1.383 3.612c.102.267.3585.444.645.444h12.837c.2865 0 .543-.177.645-.444l1.383-3.612c.1035-.267.36-.444.6465-.444h3.0135c.3825 0 .6915-.309.6915-.6915v-2.1015c0-.879.6645-1.617 1.539-1.707l18.7395-1.506c.408-.033.7215-.372.7215-.7815v-4.4475c-1.1265-6.7605-9.4335-12.789-15.069-16.713-2.2665-1.578-3.189-4.086-4.431-6.552z"
      fill="#e8dbf6" />
      <g stroke="#cdb0f1" stroke-linecap="round"
      stroke-linejoin="round" stroke-width="2">
        <path d="m58.431 45.52425c-2.2665-1.578-3.189-4.086-4.431-6.552-2.3415-4.6485-4.7955-11.2185-5.6535-16.371l-2.2725-13.1385c-.648-3.8865-2.2875-5.643-4.7415-8.6865-.837-1.035-2.424-1.035-3.2595 0-2.4555 3.0435-4.095 4.8-4.743 8.6865l-2.271 13.1385c-.8595 5.1525-3.2175 11.7225-5.559 16.371-1.242 2.466-2.2605 4.974-4.527 6.552-5.6355 3.924-13.8465 9.9525-14.973 16.713v4.4475c0 .4095.3135.7485.7215.7815l18.645 1.5045c.8745.0915 1.5375.828 1.5375 1.707v2.103c0 .3825.3105.6915.6915.6915h3.0135c.2865 0 .543.177.6465.444l1.383 3.612c.102.267.3585.444.645.444h12.837c.2865 0 .543-.177.645-.444l1.383-3.612c.1035-.267.36-.444.6465-.444h3.0135c.3825 0 .6915-.309.6915-.6915v-2.1015c0-.879.6645-1.617 1.539-1.707l18.7395-1.506c.408-.033.7215-.372.7215-.7815v-4.4475c-1.1265-6.7605-9.4335-12.789-15.069-16.713z" />
        <path d="m32.904 82.47225v1.5" />
        <path d="m37.404 82.47225v3" />
        <path d="m41.904 82.47225v3" />
        <path d="m46.404 82.47225v1.5" />
        <path d="m47.298 16.53675c-1.7865-2.7765-4.5435-4.5645-7.644-4.5645-3.021 0-5.721 1.692-7.5105 4.3485" />
        <path d="m33 61.47225h13.5" />
        <path d="m33 53.97225h13.5" />
        <path d="m33 46.47225h13.5" />
        <path d="m27 58.47225v13.5" />
        <path d="m52.5 58.47225v13.5" />
        <path d="m45 67.47225v3" />
        <path d="m34.5 67.47225v3" />
        <path d="m34.5 67.47225h10.5" />
        <path d="m6 62.97225h21" />
        <path d="m52.5 62.97225h21" />
      </g>
    </g>
  </g>
</svg>
