<svg height="90" viewBox="0 0 90 90" width="90" xmlns="http://www.w3.org/2000/svg">
  <g fill="none" fill-rule="evenodd" transform="translate(5 2)">
    <path d="m51.75 72v-13.5c0-.828.672-1.5 1.5-1.5s1.5.672 1.5 1.5v3h19.3215c-1.596-6.4485-9.4695-12.1725-14.8905-15.948-2.2665-1.578-3.189-4.086-4.431-6.552-2.3415-4.6485-4.7955-11.2185-5.6535-16.371l-.7965-4.6005c-.084.0135-.1665.0345-.2505.0345-.4935 0-.9765-.2415-1.263-.687-1.5855-2.463-3.912-3.876-6.3825-3.876-2.4045 0-4.689 1.344-6.2655 3.687-.3405.504-.9345.732-1.4985.6345l-.831 4.8075c-.8595 5.1525-3.2175 11.7225-5.559 16.371-1.242 2.466-2.2605 4.974-4.527 6.552-5.421 3.7755-13.206 9.4995-14.796 15.948h19.323v-3c0-.828.672-1.5 1.5-1.5s1.5.672 1.5 1.5v13.5c0 .717-.5145 1.2885-1.1865 1.437.087.039.1815.063.282.063h3.0135c.2865 0 .543.177.6465.444l1.383 3.612c.102.267.3585.444.645.444h12.837c.2865 0 .543-.177.645-.444l1.383-3.612c.1035-.267.36-.444.6465-.444h3.0135c.111 0 .2115-.0315.3045-.078-.636-.174-1.113-.7305-1.113-1.422"
    fill="#38454f" />
    <path d="m54.75 69.012c.0135-.0015.0255-.0105.039-.012l18.7395-1.506c.408-.033.7215-.372.7215-.7815v-2.2125h-19.5z"
    fill="#38454f" />
    <path d="m6.75 64.5v2.2125c0 .4095.3135.75.7215.7815l18.645 1.5045c.048.006.087.0315.1335.0405v-4.539z"
    fill="#38454f" />
    <path d="m29.25 72v-13.5c0-.828-.672-1.5-1.5-1.5s-1.5.672-1.5 1.5v3h-19.323c-.063.255-.1335.5085-.177.765v2.235h19.5v4.539c.8025.1515 1.404.8355 1.404 1.6665v2.103c0 .2805.1695.5205.4095.6285.672-.1485 1.1865-.72 1.1865-1.437"
    fill="#546a79" />
    <path d="m74.0715 61.5h-19.3215v-3c0-.828-.672-1.5-1.5-1.5s-1.5.672-1.5 1.5v13.5c0 .6915.477 1.248 1.113 1.422.2265-.114.387-.342.387-.6135v-2.1015c0-.8655.6465-1.5855 1.5-1.695v-4.512h19.5v-2.235c-.0435-.2565-.1155-.51-.1785-.765"
    fill="#546a79" />
    <g fill="#f3d55b">
      <path d="m78.75 7.5h-2.379l-3.621-3.621v-2.379c0-.828-.672-1.5-1.5-1.5s-1.5.672-1.5 1.5v2.379l-3.621 3.621h-2.379c-.828 0-1.5.672-1.5 1.5s.672 1.5 1.5 1.5h2.379l3.621 3.621v2.379c0 .828.672 1.5 1.5 1.5s1.5-.672 1.5-1.5v-2.379l3.621-3.621h2.379c.828 0 1.5-.672 1.5-1.5s-.672-1.5-1.5-1.5" />
      <path d="m63.75 14.25c-1.2405 0-2.25 1.0095-2.25 2.25s1.0095 2.25 2.25 2.25 2.25-1.0095 2.25-2.25-1.0095-2.25-2.25-2.25" />
      <path d="m2.25 45.75c-1.2405 0-2.25 1.0095-2.25 2.25s1.0095 2.25 2.25 2.25 2.25-1.0095 2.25-2.25-1.0095-2.25-2.25-2.25" />
      <path d="m3.75 8.25c-1.2405 0-2.25 1.0095-2.25 2.25s1.0095 2.25 2.25 2.25 2.25-1.0095 2.25-2.25-1.0095-2.25-2.25-2.25" />
      <path d="m20.25 21.75c-1.2405 0-2.25 1.0095-2.25 2.25s1.0095 2.25 2.25 2.25 2.25-1.0095 2.25-2.25-1.0095-2.25-2.25-2.25" />
      <path d="m75.75 42.75c-1.2405 0-2.25 1.0095-2.25 2.25s1.0095 2.25 2.25 2.25 2.25-1.0095 2.25-2.25-1.0095-2.25-2.25-2.25" />
      <path d="m14.25 77.25c-1.2405 0-2.25 1.0095-2.25 2.25s1.0095 2.25 2.25 2.25 2.25-1.0095 2.25-2.25-1.0095-2.25-2.25-2.25" />
      <path d="m72.75 78.75c-1.2405 0-2.25 1.0095-2.25 2.25s1.0095 2.25 2.25 2.25 2.25-1.0095 2.25-2.25-1.0095-2.25-2.25-2.25" />
    </g>
    <path d="m33.654 81c-.828 0-1.5.672-1.5 1.5v1.5c0 .828.672 1.5 1.5 1.5s1.5-.672 1.5-1.5v-1.5c0-.828-.672-1.5-1.5-1.5"
    fill="#e57e25" />
    <path d="m38.154 81c-.828 0-1.5.672-1.5 1.5v3c0 .828.672 1.5 1.5 1.5s1.5-.672 1.5-1.5v-3c0-.828-.672-1.5-1.5-1.5"
    fill="#e57e25" />
    <path d="m42.654 81c-.828 0-1.5.672-1.5 1.5v3c0 .828.672 1.5 1.5 1.5s1.5-.672 1.5-1.5v-3c0-.828-.672-1.5-1.5-1.5"
    fill="#e57e25" />
    <path d="m47.154 81c-.828 0-1.5.672-1.5 1.5v1.5c0 .828.672 1.5 1.5 1.5s1.5-.672 1.5-1.5v-1.5c0-.828-.672-1.5-1.5-1.5"
    fill="#e57e25" />
    <path d="m40.404 10.5c2.643 0 5.1345 1.086 7.122 3.0465l-.702-4.056c-.648-3.885-2.2875-5.643-4.7415-8.6865-.837-1.035-2.424-1.035-3.2595 0-2.4555 3.0435-4.095 4.8015-4.743 8.6865l-.681 3.939c1.9695-1.8825 4.4205-2.9295 7.005-2.9295"
    fill="#38454f" />
    <path d="m40.404 13.5c2.4705 0 4.797 1.413 6.3825 3.876.2865.4455.7695.687 1.263.687.084 0 .1665-.021.2505-.0345l-.774-4.482c-1.9875-1.9605-4.479-3.0465-7.122-3.0465-2.5845 0-5.0355 1.047-7.005 2.9295l-.759 4.392c.564.0975 1.158-.1305 1.4985-.6345 1.5765-2.343 3.861-3.687 6.2655-3.687"
    fill="#8697cb" />
    <path d="m47.25 60h-13.5c-.828 0-1.5.672-1.5 1.5s.672 1.5 1.5 1.5h13.5c.828 0 1.5-.672 1.5-1.5s-.672-1.5-1.5-1.5"
    fill="#546a79" />
    <path d="m47.25 52.5h-13.5c-.828 0-1.5.672-1.5 1.5s.672 1.5 1.5 1.5h13.5c.828 0 1.5-.672 1.5-1.5s-.672-1.5-1.5-1.5"
    fill="#546a79" />
    <path d="m33.75 48h13.5c.828 0 1.5-.672 1.5-1.5s-.672-1.5-1.5-1.5h-13.5c-.828 0-1.5.672-1.5 1.5s.672 1.5 1.5 1.5"
    fill="#546a79" />
    <path d="m45.75 66h-10.5c-.828 0-1.5.672-1.5 1.5v3c0 .828.672 1.5 1.5 1.5s1.5-.672 1.5-1.5v-1.5h7.5v1.5c0 .828.672 1.5 1.5 1.5s1.5-.672 1.5-1.5v-3c0-.828-.672-1.5-1.5-1.5"
    fill="#546a79" />
    <path d="m59.181 45.552c-2.2665-1.578-3.189-4.086-4.431-6.552-2.34-4.6455-4.791-11.208-5.652-16.359-1.0455 10.014-1.08 32.7615 20.1705 32.859.546.003 1.0515-.015 1.539-.042-3.2145-3.936-7.9755-7.3635-11.6265-9.906"
    fill="#546a79" />
    <path d="m31.8645 22.305-.0555.324c-.8595 5.1525-3.2175 11.7225-5.559 16.371-1.242 2.466-2.2605 4.974-4.527 6.552-3.6495 2.5425-8.37 5.97-11.556 9.9045.495.027 1.008.0465 1.5645.0435 21.498-.099 21.2115-23.3715 20.133-33.195"
    fill="#546a79" />
  </g>
</svg>
