<svg height="80" viewBox="0 0 80 80" width="80" xmlns="http://www.w3.org/2000/svg">
  <g fill="none" fill-rule="evenodd" transform="translate(1.333333 1.333333)">
    <path d="m21.6023587 3.98161909c.08 1.64533333-.748 3.304-2.808 3.856-1.1626667.31066666-2.156.11333333-2.944-.372-12.50533336 9.15066671-18.77600002 25.35066671-14.52400002 41.21866671.576 2.152 1.33333333 4.2066666 2.232 6.1666666 3.684-.6013333 5.55733333 3.888 3.692 6.36 9.11066662 12.7013334 25.44133332 19.1 41.43200002 14.8146667 9.664-2.5893333 17.4866666-8.6186667 22.504-16.4173333-1.124-2.0413334-.6653334-5.032 2.2533333-5.8133334.3026667-.0813333.5946667-.128.876-.144 3.2146667-7.6373333 4.02-16.3586666 1.708-24.9826666-5.5266667-20.62666671-26.7293333-32.86800005-47.356-27.34133338-2.484.66533333-4.8413333 1.564-7.0653333 2.65466667z"
    fill="#e8dbf6" />
    <path d="m28.667692 1.32695242c-2.484.66533333-4.8413333 1.564-7.0653333 2.65466667.08 1.64533333-.748 3.304-2.808 3.856-1.1626667.31066666-2.156.11333333-2.944-.372-12.50533336 9.15066671-18.77600002 25.35066671-14.52400002 41.21866671.576 2.152 1.33333333 4.2066666 2.232 6.1666666 3.684-.6013333 5.55733333 3.888 3.692 6.36 9.11066662 12.7013334 25.44133332 19.1 41.43200002 14.8146667 9.664-2.5893333 17.4866666-8.6186667 22.504-16.4173333-1.124-2.0413334-.6653334-5.032 2.2533333-5.8133334.3026667-.0813333.5946667-.128.876-.144 3.2146667-7.6373333 4.02-16.3586666 1.708-24.9826666-5.5266667-20.62666671-26.7293333-32.86800005-47.356-27.34133338z"
    stroke="#cdb0f1" stroke-linecap="round" stroke-linejoin="round"
    stroke-width="2" />
    <g fill="#e2cdf5">
      <path d="m3.96902534 3.06428575c.19066667.71066667-.232 1.44266667-.94266666 1.63333334-.71066667.19066666-1.44266667-.232-1.63333334-.944-.19066666-.71066667.232-1.44133334.94266667-1.632.712-.19066667 1.44266667.23066666 1.63333333.94266666" />
      <path d="m14.635692 75.0629524c.1906667.712-.2306667 1.4426667-.9426667 1.6333334-.7106666.1906666-1.4413333-.232-1.632-.9426667-.1906666-.7106667.2306667-1.4426667.9426667-1.6333333.7106667-.1906667 1.4426667.232 1.632.9426666" />
      <path d="m74.635692 68.3976191c.1906667.7106667-.2306667 1.4413333-.9426667 1.632-.7106666.1906667-1.4426666-.2306667-1.6333333-.9426667-.1893333-.7106666.232-1.4426666.944-1.6333333.7106667-.1893333 1.4413333.232 1.632.944" />
      <path d="m3.96902534 72.3976191c.19066667.7106667-.23066666 1.4413333-.94266666 1.632-.71066667.1906667-1.44266667-.2306667-1.63333334-.9426667-.18933333-.7106666.232-1.4426666.944-1.6333333.71066667-.1893333 1.44133334.232 1.632.944" />
      <path d="m9.69435868 7.79228575c.19066666.71066667-.232 1.44133334-.94266667 1.632-.712.19066667-1.44266667-.23066666-1.63333333-.94266666-.19066667-.71066667.232-1.44266667.94266666-1.63333334.712-.19066666 1.44266667.232 1.63333334.944" />
      <path d="m70.635692 4.39761909c.1906667.71066666-.232 1.44266666-.9426667 1.63333333-.7106666.19066667-1.4426666-.232-1.6333333-.944-.1906667-.71066667.232-1.44133333.9426667-1.632.712-.19066667 1.4426666.23066667 1.6333333.94266667" />
    </g>
    <path d="m67.8170253 47.4322858c3-.804 5.9986667-1.608 8.9986667-2.4106667m-39.5933333 10.608c7.7986666-2.0893333 15.5973333-4.1786667 23.396-6.268m-51.80133336 13.88c6.59866666-1.768 13.19599996-3.536 19.79466666-5.304m20.512-22.0613333c-15.932 4.2693333-31.8653333 8.5386666-47.79733332 12.808m74.69733332-20.016c-6.1893333 1.66-12.38 3.3173333-18.5706667 4.976m-5.5 33.2226666c-9.36 2.508-18.7186666 5.016-28.0786666 7.524m45.476-12.1853333c-3.452.9253333-6.904 1.8493333-10.3546667 2.7746667m-5.52-62.01866671-45.47599999 12.18533331m32.46799999 7.8653334c9.6573333-2.588 19.3146667-5.176 28.972-7.7626667m-54.1773333 14.516c5.568-1.492 11.1346666-2.984 16.7026666-4.4746667m-31.64666663 8.4786667c2.05200001-.5493333 4.10266667-1.0986667 6.15333334-1.648"
    stroke="#cdb0f1" stroke-linecap="round" stroke-linejoin="round"
    stroke-width="2" />
    <path d="m9.78635868 27.0242858c4.92666662-1.3213334 6.97333332 6.32 2.04666662 7.64-4.92666662 1.32-6.97466662-6.32-2.04666662-7.64z"
    fill="#e2cdf5" />
    <path d="m11.8330253 34.6642858c-4.92666662 1.32-6.97466662-6.32-2.04666662-7.64 4.92666662-1.3213334 6.97333332 6.32 2.04666662 7.64z"
    stroke="#cdb0f1" stroke-linecap="round" stroke-linejoin="round"
    stroke-width="2" />
    <path d="m33.9370253 60.4896191c-4.9266666 1.32-6.9746666-6.32-2.0466666-7.64 4.9266666-1.32 6.9733333 6.32 2.0466666 7.64z"
    fill="#e2cdf5" />
    <path d="m33.9370253 60.4896191c-4.9266666 1.32-6.9746666-6.32-2.0466666-7.64 4.9266666-1.32 6.9733333 6.32 2.0466666 7.64z"
    stroke="#cdb0f1" stroke-linecap="round" stroke-linejoin="round"
    stroke-width="2" />
    <path d="m37.2770253 28.3069524c-4.9266666 1.32-6.9746666-6.32-2.048-7.64 4.928-1.32 6.9746667 6.3186667 2.048 7.64z"
    fill="#e2cdf5" />
    <path d="m37.2770253 28.3069524c-4.9266666 1.32-6.9746666-6.32-2.048-7.64 4.928-1.32 6.9746667 6.3186667 2.048 7.64z"
    stroke="#cdb0f1" stroke-linecap="round" stroke-linejoin="round"
    stroke-width="2" />
    <path d="m53.7850253 59.8656191c4.9266667-1.32 6.9746667 6.32 2.048 7.6413333-4.9266666 1.32-6.9746666-6.32-2.048-7.6413333z"
    fill="#e2cdf5" />
    <path d="m55.8330253 67.5069524c-4.9266666 1.32-6.9746666-6.32-2.048-7.6413333 4.9266667-1.32 6.9746667 6.32 2.048 7.6413333z"
    stroke="#cdb0f1" stroke-linecap="round" stroke-linejoin="round"
    stroke-width="2" />
    <path d="m54.1583587 38.5069524c-4.9266667 1.32-6.9733334-6.32-2.0466667-7.64s6.9746667 6.32 2.0466667 7.64z"
    fill="#e2cdf5" />
    <path d="m54.1583587 38.5069524c-4.9266667 1.32-6.9733334-6.32-2.0466667-7.64s6.9746667 6.32 2.0466667 7.64z"
    stroke="#cdb0f1" stroke-linecap="round" stroke-linejoin="round"
    stroke-width="2" />
    <path d="m64.5930253 49.9749524c-4.9266666 1.32-6.9733333-6.32-2.0466666-7.64 4.9266666-1.32 6.9746666 6.32 2.0466666 7.64z"
    fill="#e2cdf5" />
    <path d="m64.5930253 49.9749524c-4.9266666 1.32-6.9733333-6.32-2.0466666-7.64 4.9266666-1.32 6.9746666 6.32 2.0466666 7.64z"
    stroke="#cdb0f1" stroke-linecap="round" stroke-linejoin="round"
    stroke-width="2" />
  </g>
</svg>
