<svg height="80" viewBox="0 0 80 80" width="80" xmlns="http://www.w3.org/2000/svg">
  <g fill="none" fill-rule="evenodd" transform="translate(1 1)">
    <path d="m57.7709983 34.9309031-.6906666-2.5746667 18.5386666-4.968c-1.2253333-4.024-3.0466666-7.7146666-5.3546666-10.988l-29.48 7.8986667-.6893334-2.576 28.412-7.612c-3.5986666-4.36800001-8.0946666-7.86533334-13.132-10.28533334l-48.60399998 13.02266664c-3.16 4.616-5.30933333 9.892-6.24533333 15.4773334l5.57466666-1.4933334.68933334 2.576-6.632 1.7773334c-.364 3.9906666-.104 8.0946666.84533333 12.196l47.74933338-12.7933334.6893333 2.5746667-47.74133335 12.7933333c.51733334 1.6866667 1.11333334 3.3293334 1.83066667 4.8933334 3.684-.6013334 5.55733333 3.888 3.692 6.36.21866667.3053333.46.5893333.68666667.8866666l20.32933331-5.448.6906667 2.576-19.15466668 5.132c3.42533338 3.8466667 7.56933338 6.9533334 12.16799998 9.164l29.6373334-7.9413333.6906666 2.5746667-26.2746666 7.04c7.0586666 2.4546666 14.896 2.9106666 22.6586666.8306666 7.772-2.0826666 14.3493334-6.3933333 19.2386667-12.0573333l-8.5813333 2.3-.6906667-2.576 11.9386667-3.1986667c.2013333-.2946666.4053333-.5866666.5986666-.8853333-1.124-2.0413333-.6653333-5.032 2.2533334-5.8133333.3026666-.0813334.5946666-.1266667.876-.144.968-2.3 1.6866666-4.7053334 2.1986666-7.168l-8.352 2.2373333-.6906666-2.5746667 9.5306666-2.5546666c.5733334-4.4346667.376-9.0293334-.688-13.62z"
    fill="#c68630" />
    <path d="m28.6403317 1.32556976c-2.484.66533333-4.8413334 1.564-7.0653334 2.65466666.08 1.64533334-.748 3.304-2.808 3.856-1.1626666.31066667-2.156.11333334-2.944-.372-2.3706666 1.73466667-4.5133333 3.72399998-6.40666665 5.91466668l41.91733335-11.23200001c-7.0666667-2.46133333-14.9213333-2.90266667-22.6933333-.82133333"
    fill="#c68630" />
    <path d="m59.9723317 36.6655698c0 15.096-12.2373334 27.3333333-27.3333334 27.3333333s-27.33333331-12.2373333-27.33333331-27.3333333 12.23733331-27.33333338 27.33333331-27.33333338 27.3333334 12.23733338 27.3333334 27.33333338"
    fill="#dc9628" />
    <path d="m42.6389983 35.3322364c0 8.468-6.8653333 15.3333334-15.3333333 15.3333334s-15.3333333-6.8653334-15.3333333-15.3333334 6.8653333-15.3333333 15.3333333-15.3333333 15.3333333 6.8653333 15.3333333 15.3333333"
    fill="#eeaf4b" />
    <g fill="#f3d55b">
      <path d="m3.94166499 3.06290309c.19066666.71066667-.232 1.44266667-.94266667 1.63333333-.71066667.19066667-1.44266667-.232-1.63333333-.94266666-.19066667-.712.232-1.44266667.94266666-1.63333334.712-.19066666 1.44266667.23066667 1.63333334.94266667" />
      <path d="m14.6083317 75.0615698c.1906666.712-.2306667 1.4426666-.9426667 1.6333333-.7106667.1906667-1.4413333-.2306667-1.632-.9426667-.1906667-.7106666.2306667-1.4426666.9426667-1.632.7106666-.192 1.4426666.2306667 1.632.9413334" />
      <path d="m74.6083317 68.3962364c.1906666.7106667-.2306667 1.4426667-.9426667 1.632-.7106667.1906667-1.4426667-.2306666-1.6333333-.9426666-.1893334-.7106667.232-1.4413334.944-1.632.7106666-.1906667 1.4413333.2306666 1.632.9426666" />
      <path d="m3.94166499 72.3962364c.19066666.7106667-.23066667 1.4426667-.94266667 1.632-.71066667.1906667-1.44266667-.2306666-1.63333333-.9426666-.19066667-.7106667.232-1.4413334.94266666-1.632.712-.1906667 1.44266667.2306666 1.63333334.9426666" />
      <path d="m9.66699832 7.79090309c.19066667.71066667-.232 1.44133333-.94266667 1.63333333-.712.18933334-1.44266666-.232-1.63333333-.944-.19066667-.71066666.23066667-1.44266666.94266667-1.632.712-.192 1.44266666.23066667 1.63333333.94266667" />
      <path d="m70.6083317 4.39623642c.1906666.71066667-.232 1.44266667-.9426667 1.63333334-.7106667.19066666-1.4426667-.232-1.6333333-.944-.1906667-.71066667.232-1.44133334.9426666-1.632.712-.19066667 1.4426667.232 1.6333334.94266666" />
      <path d="m68.689665 45.8095698c-.0066667-.0773334-.0026667-.1573334-.0133333-.2333334-.3093334-2.3506666-2.1413334-4.7293333-5.0453334-4.7293333-.476 0-.9666666.068-1.4573333.1986667-3.0106667.8066666-4.0613333 3.436-3.7653333 5.6853333.076.5773333.2453333 1.1546667.4986666 1.7l-21.4946666 5.76c-.808-1.5786667-2.3373334-2.828-4.4373334-2.828-.4773333 0-.9666666.0666667-1.4573333.1973333-2.8093333.7533334-3.8946667 3.0893334-3.7906667 5.2253334l-19.81733331 5.3106666c.59466666.7786667 1.216 1.532 1.86533333 2.26l18.69866668-5.0106666c.8333333 1.4813333 2.3146667 2.6293333 4.324 2.6293333.4773333 0 .9666667-.0666667 1.4573333-.1986667 2.7093334-.7266666 3.8213334-2.9266666 3.8026667-4.9973333l22.7693333-6.1026667c.7346667.48 1.6106667.784 2.6266667.784.4773333 0 .9666667-.0666666 1.4573333-.1986666 1.6186667-.4346667 2.6546667-1.4 3.236-2.5453334l8.34-2.2346666c.1986667-.956.3626667-1.9186667.488-2.892zm-35.1253333 13.3906666c-1.8293334.4866667-2.9893334-.944-3.1693334-2.3026666-.0666666-.516-.136-2.2386667 1.8133334-2.7613334.2653333-.0706666.5226666-.108.7666666-.108 1.432 0 2.248 1.2506667 2.4026667 2.4106667.0666667.516.136 2.2386667-1.8133333 2.7613333zm30.656-10.5146666c-1.828.4893333-2.9893334-.944-3.168-2.3026667-.068-.516-.1373334-2.2386667 1.812-2.7613333.2653333-.0706667.524-.108.7666666-.108 1.432 0 2.2493334 1.2493333 2.4026667 2.4106666.068.516.136 2.2386667-1.8133333 2.7613334z" />
      <path d="m51.333665 2.14690309-41.91733335 11.23200001c-.95333333 1.1026667-1.824 2.2693333-2.64533333 3.4693333l48.60399998-13.02266664c-1.3146666-.632-2.6613333-1.19733334-4.0413333-1.67866667" />
      <path d="m10.6949983 36.1482364c.4746667 0 .9653334-.0653333 1.456-.1973333 2.7093334-.7266667 3.82-2.9266667 3.8026667-4.9986667l15.6373333-4.1893333c.7773334 1.6733333 2.356 3.028 4.5466667 3.028.476 0 .9666667-.0666667 1.4573333-.1986667 2.9093334-.7786666 3.9746667-3.256 3.7773334-5.452l28.892-7.74c-.556-.7906666-1.148-1.5493333-1.7573334-2.2893333l-27.9826666 7.4973333c-.8533334-1.384-2.2906667-2.4293333-4.2093334-2.4293333-.4773333 0-.9666666.0666667-1.4573333.1986667-2.6093333.6986666-3.7413333 2.7666666-3.8066667 4.7693333l-15.7426666 4.2173333c-.808-1.5773333-2.3373334-2.828-4.4386667-2.828-.476 0-.96533335.0666667-1.45600001.1986667-2.80933334.7533333-3.89466667 3.0893333-3.79066667 5.2253333l-5.09733333 1.3653334c-.15866667.9453333-.28133334 1.8986666-.368 2.86l6.212-1.6653334c.83466666 1.4813334 2.31466666 2.628 4.32533331 2.628zm24.8533334-14.196c.2653333-.0706666.5226666-.1066666.7666666-.1066666 1.432 0 2.248 1.2506666 2.4026667 2.4106666.0666667.516.136 2.2386667-1.8133333 2.7613334-1.8266667.4893333-2.9893334-.9453334-3.1693334-2.3026667-.068-.516-.136-2.24 1.8133334-2.7626667zm-25.444 6.3573334c.2653333-.0706667.5226666-.1066667.7653333-.1066667 1.4333333 0 2.2493333 1.2493333 2.404 2.4106667.0666667.516.1373333 2.2386666-1.8133333 2.7613333-1.83866671.4906667-2.98933338-.9466667-3.16933338-2.3026667-.068-.516-.13733333-2.2386666 1.81333338-2.7626666z" />
      <path d="m59.9163317 63.1095698c-.3093334-2.352-2.1413334-4.7306667-5.0466667-4.7306667-.4773333 0-.9666667.0666667-1.4573333.1986667-3.012.8066666-4.0613334 3.436-3.764 5.684.076.5773333.2453333 1.156.4986666 1.7013333l-28.204 7.5573333c1.3173334.632 2.6693334 1.192 4.0533334 1.6733334l26.0706666-6.9853334c.7346667.48 1.6106667.7826667 2.6266667.7826667.476 0 .9666667-.0666667 1.4573333-.1986667 1.62-.4333333 2.656-1.4 3.236-2.5453333l8.5066667-2.28c.9573333-1.108 1.844-2.2693333 2.6666667-3.4746667l-10.6306667 2.848c-.008-.076-.0026667-.1546666-.0133333-.2306666zm-4.456 3.108c-1.828.4866666-2.9893334-.9453334-3.1693334-2.304-.068-.516-.1373333-2.2386667 1.812-2.7613334.2653334-.0706666.5226667-.1066666.7666667-.1066666 1.432 0 2.2493333 1.2493333 2.4026667 2.4106666.0666666.516.1373333 2.2386667-1.812 2.7613334z" />
      <path d="m53.0189983 39.9922364c.4773334 0 .9666667-.068 1.4573334-.1986666 2.7106666-.7266667 3.82-2.9266667 3.8026666-4.9986667l18.008-4.8253333c-.1-.4333334-.1733333-.868-.2906666-1.3013334-.1146667-.432-.248-.856-.3773334-1.28l-17.9853333 4.8186667c-.808-1.5773333-2.3373333-2.828-4.4373333-2.828-.4773334 0-.9666667.068-1.4573334.1986667-2.8093333.7533333-3.8946666 3.0893333-3.7906666 5.2253333l-46.94533338 12.5786667c.10133333.4333333.18.868.296 1.3013333s.27066667.8466667.40133333 1.2733333l46.99466665-12.5933333c.8346667 1.4813333 2.3146667 2.6293333 4.324 2.6293333zm-.5893333-7.8386666c.2653333-.0706667.5226667-.108.7666667-.108 1.432 0 2.248 1.2506666 2.4026666 2.4106666.0666667.516.136 2.2386667-1.8133333 2.7613334-1.8293333.488-2.9893333-.944-3.1693333-2.3026667-.0666667-.5146667-.136-2.2386667 1.8133333-2.7613333z" />
    </g>
  </g>
</svg>
