<svg height="80" viewBox="0 0 80 80" width="80" xmlns="http://www.w3.org/2000/svg">
  <g fill="none" fill-rule="evenodd" transform="translate(1.333333 4)">
    <path d="m8 30.6666667v22.5813333c7.4586667 7.3826667 18.7253333 12.0853333 31.3333333 12.0853333 11.8786667 0 22.5653334-4.176 30-10.8333333v-23.8333333c0-16.8666667-13.8-30.6666667-30.6666666-30.6666667-16.8666667 0-30.6666667 13.8-30.6666667 30.6666667z"
    fill="#e8dbf6" />
    <path d="m38.6666667 0c-16.8666667 0-30.6666667 13.8-30.6666667 30.6666667v22.5813333c7.4586667 7.3826667 18.7253333 12.0853333 31.3333333 12.0853333 11.8786667 0 22.5653334-4.176 30-10.8333333v-23.8333333c0-16.8666667-13.8-30.6666667-30.6666666-30.6666667z"
    stroke="#cdb0f1" stroke-linecap="round" stroke-linejoin="round"
    stroke-width="2" />
    <path d="m39.3333333 65.3333333c-11.0906666 0-21.14-3.6426666-28.476-9.5426666v8.8373333c6.6253334 6.5573333 16.632 8.7053333 27.8306667 8.7053333 10.5493333 0 20.0413333-1.68 26.6453333-7.5933333v-8.124c-7.0493333 4.8146667-16.108 7.7173333-26 7.7173333z"
    fill="#e2d1f5" />
    <path d="m39.3333333 65.3333333c-11.0906666 0-21.14-3.6426666-28.476-9.5426666v8.8373333c6.6253334 6.5573333 16.632 8.7053333 27.8306667 8.7053333 10.5493333 0 20.0413333-1.68 26.6453333-7.5933333v-8.124c-7.0493333 4.8146667-16.108 7.7173333-26 7.7173333z"
    stroke="#cdb0f1" stroke-linecap="round" stroke-linejoin="round"
    stroke-width="2" />
    <path d="m4.87733333 28.0386667c-1.31066666.22-2.21066666 1.46-2.21066666 2.7906666v3.3186667c0 .2866667-.232.5186667-.52.5186667-1.18533334 0-2.14666667.9613333-2.14666667 2.148v4.224c0 .8986666.72933333 1.628 1.628 1.628h.51866667c.288 0 .52.232.52.5186666v3.32c0 1.328.9 2.5693334 2.21066666 2.7893334 1.66533334.2813333 3.12266667-1.012 3.12266667-2.628v-16c0-1.616-1.45733333-2.908-3.12266667-2.628z"
    fill="#e8dbf6" />
    <path d="m4.87733333 28.0386667c-1.31066666.22-2.21066666 1.46-2.21066666 2.7906666v3.3186667c0 .2866667-.232.5186667-.52.5186667-1.18533334 0-2.14666667.9613333-2.14666667 2.148v4.224c0 .8986666.72933333 1.628 1.628 1.628h.51866667c.288 0 .52.232.52.5186666v3.32c0 1.328.9 2.5693334 2.21066666 2.7893334 1.66533334.2813333 3.12266667-1.012 3.12266667-2.628v-16c0-1.616-1.45733333-2.908-3.12266667-2.628z"
    stroke="#cdb0f1" stroke-linecap="round" stroke-linejoin="round"
    stroke-width="2" />
    <path d="m72.456 49.2946667c1.3106667-.22 2.2106667-1.46 2.2106667-2.7893334v-2.816c0-.564.4573333-1.0226666 1.0226666-1.0226666h.016c.8986667 0 1.628-.7293334 1.628-1.628v-4.744c0-.8986667-.7293333-1.628-1.628-1.628h-.016c-.5653333 0-1.0226666-.4573334-1.0226666-1.0226667v-2.8146667c0-1.3293333-.9-2.5706666-2.2106667-2.7906666-1.6653333-.28-3.1226667 1.012-3.1226667 2.628v16c0 1.616 1.4573334 2.9093333 3.1226667 2.628z"
    fill="#e8dbf6" />
    <path d="m72.456 49.2946667c1.3106667-.22 2.2106667-1.46 2.2106667-2.7893334v-2.816c0-.564.4573333-1.0226666 1.0226666-1.0226666h.016c.8986667 0 1.628-.7293334 1.628-1.628v-4.744c0-.8986667-.7293333-1.628-1.628-1.628h-.016c-.5653333 0-1.0226666-.4573334-1.0226666-1.0226667v-2.8146667c0-1.3293333-.9-2.5706666-2.2106667-2.7906666-1.6653333-.28-3.1226667 1.012-3.1226667 2.628v16c0 1.616 1.4573334 2.9093333 3.1226667 2.628z"
    stroke="#cdb0f1" stroke-linecap="round" stroke-linejoin="round"
    stroke-width="2" />
    <path d="m8 34.068v14.2853333c7.4586667 4.6706667 18.7253333 8.98 31.3333333 8.98 11.8786667 0 22.5653334-3.9746666 30-8.1866666v-15.0786667c0-10.6706667-13.8-20.7346667-30.6666666-20.7346667-16.8666667 0-30.6666667 10.064-30.6666667 20.7346667z"
    fill="#e2d1f5" />
    <g stroke="#cdb0f1" stroke-linecap="round"
    stroke-linejoin="round" stroke-width="2">
      <path d="m38.6666667 13.3333333c-16.8666667 0-30.6666667 10.064-30.6666667 20.7346667v14.2853333c7.4586667 4.6706667 18.7253333 8.98 31.3333333 8.98 11.8786667 0 22.5653334-3.9746666 30-8.1866666v-15.0786667c0-10.6706667-13.8-20.7346667-30.6666666-20.7346667z" />
      <path d="m36 24.264c1.74-.1746667 3.5253333-.264 5.3333333-.264z" />
      <path d="m14.6666667 38.6666667c0-6.5173334 6.1746666-11.084 14.668-13.2466667" />
      <path d="m49.3333333 14.6666667c0-4.4213334 3.5786667-8.00000003 8-8.00000003" />
      <path d="m28 14.6666667c0-4.4213334-3.5786667-8.00000003-8-8.00000003" />
      <path d="m38.6666667 6.43466667v-6.43466667z" />
      <path d="m70.6666667 10.6666667-4-4.00000003 4-4 4 4z" />
      <path d="m70.6666667 2.66666667v-2.66666667z" />
      <path d="m74.6666667 6.66666667h2.6666666z" />
      <path d="m70.6666667 10.6666667v2.6666666z" />
      <path d="m66.6666667 6.66666667h-2.6666667z" />
    </g>
  </g>
</svg>
