<svg height="80" viewBox="0 0 80 80" width="80" xmlns="http://www.w3.org/2000/svg">
  <g fill="none" fill-rule="evenodd" transform="translate(1 3)">
    <path d="m58.476 8.64666667c-.2293333.40266666-.6453333.68666666-1.1426667.68666666-3.676 0-6.6666666 2.99066667-6.6666666 6.66666667 0 .736-.5973334 1.3333333-1.3333334 1.3333333s-1.3333333-.5973333-1.3333333-1.3333333c0-4.704 3.5013333-8.596 8.0333333-9.232-4.6026666-3.184-10.1053333-5.144-16.0333333-5.40133333v6.40133333c0 .736-.5973333 1.33333333-1.3333333 1.33333333s-1.3333334-.59733333-1.3333334-1.33333333v-6.40133333c-5.928.25733333-11.4306666 2.21733333-16.0333333 5.40133333 4.532.636 8.0333333 4.528 8.0333333 9.232 0 .736-.5973333 1.3333333-1.3333333 1.3333333s-1.3333333-.5973333-1.3333333-1.3333333c0-3.676-2.9906667-6.66666667-6.6666667-6.66666667-.4973333 0-.9133333-.284-1.1426667-.68666666-6.6293333 5.63600003-10.8573333 14.02266663-10.8573333 23.35333333v22.5813333c7.4586667 7.3826667 18.7253333 12.0853334 31.3333333 12.0853334 11.8786667 0 22.5653334-4.176 30-10.832v-23.8346667c0-9.3306667-4.228-17.7173333-10.8573333-23.35333333"
    fill="#d1d4d1" />
    <g fill="#ecf0f1">
      <path d="m48 16c0 .736.5973333 1.3333333 1.3333333 1.3333333s1.3333334-.5973333 1.3333334-1.3333333c0-3.676 2.9906666-6.66666667 6.6666666-6.66666667.4973334 0 .9133334-.284 1.1426667-.68666666-.7826667-.66533334-1.5973333-1.29333334-2.4426667-1.87866667-4.532.636-8.0333333 4.528-8.0333333 9.232" />
      <path d="m20 9.33333333c3.676 0 6.6666667 2.99066667 6.6666667 6.66666667 0 .736.5973333 1.3333333 1.3333333 1.3333333s1.3333333-.5973333 1.3333333-1.3333333c0-4.704-3.5013333-8.596-8.0333333-9.232-.8453333.58533333-1.66 1.21333333-2.4426667 1.87866667.2293334.40266666.6453334.68666666 1.1426667.68666666" />
      <path d="m38.6666667 9.10133333c.736 0 1.3333333-.59733333 1.3333333-1.33333333v-6.40133333c-.4426667-.01866667-.8866667-.03333334-1.3333333-.03333334-.4466667 0-.8906667.01466667-1.3333334.03333334v6.40133333c0 .736.5973334 1.33333333 1.3333334 1.33333333" />
    </g>
    <path d="m39.3333333 66.6666667c-11.0906666 0-21.14-3.6413334-28.476-9.5426667v8.8373333c6.6253334 6.5573334 16.632 8.7053334 27.8293334 8.7053334 10.5506666 0 20.0426666-1.68 26.6466666-7.592v-8.124c-7.0493333 4.8133333-16.108 7.716-26 7.716"
    fill="#e6e7e8" />
    <path d="m4.87733333 29.372c-1.31066666.22-2.21066666 1.46-2.21066666 2.7906667v3.3186666c0 .2866667-.232.5186667-.52.5186667-1.18533334 0-2.14666667.9613333-2.14666667 2.148v4.224c0 .8986667.72933333 1.628 1.628 1.628h.51866667c.288 0 .52.232.52.52v3.3186667c0 1.3293333.9 2.5693333 2.21066666 2.7893333 1.66533334.2813333 3.12266667-1.012 3.12266667-2.628v-16c0-1.616-1.45733333-2.908-3.12266667-2.628"
    fill="#ecf0f1" />
    <path d="m4 41.3333333c-.34666667 0-.69333333-.1466666-.94666667-.3866666-.24-.2533334-.38666666-.6-.38666666-.9466667s.14666666-.6933333.38666666-.9466667c.50666667-.4933333 1.4-.4933333 1.89333334 0 .24.2533334.38666666.6.38666666.9466667s-.14666666.6933333-.38666666.9466667c-.25333334.24-.6.3866666-.94666667.3866666"
    fill="#a5a5a4" />
    <path d="m72.456 50.628c1.3106667-.22 2.2106667-1.46 2.2106667-2.7893333v-2.816c0-.564.4573333-1.0226667 1.0226666-1.0226667h.016c.8986667 0 1.628-.7293333 1.628-1.628v-4.744c0-.8986667-.7293333-1.628-1.628-1.628h-.016c-.5653333 0-1.0226666-.4573333-1.0226666-1.0226667v-2.8146666c0-1.3293334-.9-2.5706667-2.2106667-2.7906667-1.6653333-.28-3.1226667 1.012-3.1226667 2.628v16c0 1.616 1.4573334 2.9093333 3.1226667 2.628"
    fill="#ecf0f1" />
    <path d="m73.3333333 41.3333333c-.3466666 0-.6933333-.1466666-.9466666-.3866666-.24-.2533334-.3866667-.5866667-.3866667-.9466667s.1466667-.6933333.3866667-.9466667c.4933333-.4933333 1.4-.4933333 1.8933333 0 .24.2533334.3866667.6.3866667.9466667s-.1466667.6933333-.3866667.9466667c-.2533333.24-.6.3866666-.9466667.3866666"
    fill="#a5a5a4" />
    <path d="m77.3333333 6.66666667h-2.1146666l-3.2186667-3.21866667v-2.11466667c0-.736-.5973333-1.33333333-1.3333333-1.33333333s-1.3333334.59733333-1.3333334 1.33333333v2.11466667l-3.2186666 3.21866667h-2.1146667c-.736 0-1.3333333.59733333-1.3333333 1.33333333s.5973333 1.33333333 1.3333333 1.33333333h2.1146667l3.2186666 3.21866667v2.1146667c0 .736.5973334 1.3333333 1.3333334 1.3333333s1.3333333-.5973333 1.3333333-1.3333333v-2.1146667l3.2186667-3.21866667h2.1146666c.736 0 1.3333334-.59733333 1.3333334-1.33333333s-.5973334-1.33333333-1.3333334-1.33333333"
    fill="#f3d55b" />
    <path d="m38.6666667 10.6666667c-16.8666667 0-30.6666667 11.8946666-30.6666667 24.504v16.884c7.4586667 5.52 18.7253333 10.612 31.3333333 10.612 11.8786667 0 22.5653334-4.6986667 30-9.676v-17.82c0-12.6093334-13.8-24.504-30.6666666-24.504"
    fill="#ecf0f1" />
    <path d="m38.6666667 14.6666667c-16.8666667 0-30.6666667 10.064-30.6666667 20.7346666v14.2853334c7.4586667 4.6706666 18.7253333 8.98 31.3333333 8.98 11.8786667 0 22.5653334-3.9746667 30-8.1866667v-15.0786667c0-10.6706666-13.8-20.7346666-30.6666666-20.7346666"
    fill="#38454f" />
    <path d="m20.1266667 19.1373333c-7.356 3.932-12.1266667 9.992-12.1266667 16.264v14.2853334c3.1906667 1.9986666 7.0813333 3.9266666 11.472 5.4826666 1.18-5.7746666 1.8613333-12.5653333 1.8613333-19.836 0-5.7933333-.4346666-11.2813333-1.2066666-16.196"
    fill="#475b68" />
    <path d="m69.3333333 35.4013333c0-6.272-4.7706666-12.332-12.1266666-16.264-.772 4.9146667-1.2066667 10.4026667-1.2066667 16.196 0 7.4266667.7133333 14.3506667 1.94 20.204 4.3013333-1.436 8.156-3.224 11.3933333-5.0573333z"
    fill="#475b68" />
    <path d="m10.8573333 57.124v3.504c6.6253334 6.5573333 16.632 8.7053333 27.8293334 8.7053333 10.5506666 0 20.0426666-1.68 26.6466666-7.592v-2.7906666c-7.0493333 4.8133333-16.108 7.716-26 7.716-11.0906666 0-21.14-3.6413334-28.476-9.5426667"
    fill="#fff" />
    <path d="m35.9986667 26.9306667c-.6773334 0-1.256-.5133334-1.3253334-1.2013334-.0733333-.732.4613334-1.3853333 1.1933334-1.4586666 1.7893333-.18 3.628-.2706667 5.4666666-.2706667.736 0 1.3333334.5973333 1.3333334 1.3333333s-.5973334 1.3333334-1.3333334 1.3333334c-1.7506666 0-3.5.0866666-5.2.2573333-.0453333.004-.0906666.0066667-.1346666.0066667"
    fill="#546a79" />
    <path d="m14.6666667 41.3333333c-.736 0-1.3333334-.5973333-1.3333334-1.3333333 0-6.704 5.712-12.0026667 15.672-14.5386667.712-.1813333 1.4386667.2493334 1.6213334.964.1813333.7133334-.2506667 1.44-.964 1.6213334-8.6826667 2.2093333-13.6626667 6.5666666-13.6626667 11.9533333 0 .736-.5973333 1.3333333-1.3333333 1.3333333"
    fill="#546a79" />
  </g>
</svg>
