<svg enable-background="new -225 -112.5 500 250" height="250" viewBox="-225 -112.5 179.23662 250" width="179.23662" xmlns="http://www.w3.org/2000/svg"><path clip-rule="evenodd" d="m97.695061-12.794185h-6.522934c.219284-15.911883.464958-37.183986.210487-41.137314-1.944031-30.173786-27.962875-55.779831-59.236385-58.298141-1.960367-.15669-3.922619-.24575-5.83272-.26618-17.0507965-.17515-32.0997543 5.15257-44.727787 15.833895-12.530956 10.600433-20.762926 26.223205-22.019259 41.790535-.292484 3.620632-.262008 26.013269-.22211 42.077205h-7.039417c-9.346615 0-16.923245 7.5767874-16.923245 16.9231686v116.4478564c0 9.34638 7.57663 16.92316 16.923245 16.92316h145.390125c9.346459 0 16.923249-7.57678 16.923249-16.92316v-116.4478575c0-9.3463802-7.57679-16.9231675-16.923249-16.9231675zm-50.816006 120.712245h-42.0755105l6.4236745-52.152759c-6.194641-4.350632-10.2228569-11.390614-10.2228569-19.340584 0-13.213375 11.1197549-23.924271 24.8362679-23.924717 13.716961 0 24.836715 10.710783 24.836715 23.924271 0 7.949855-4.027771 14.989841-10.221515 19.34103zm-59.700004-120.712245c.18787-19.392791 1.163655-46.906025 5.6696715-54.24287 6.9891486-11.381287 18.4953095-18.067268 31.5678805-18.344437.465273-.01021.924261-.01217 1.381052-.0079 13.255098.136185 24.870901 6.693916 31.866648 17.990371 4.838085 7.811547 5.822353 34.271477 5.796905 54.604786h-76.282157z" fill="#8763e0" fill-rule="evenodd" transform="translate(-160.38169)"/></svg>