<svg enable-background="new 225 -113 500 250" height="250" viewBox="225 -113 396.31494 250" width="396.31494" xmlns="http://www.w3.org/2000/svg"><g fill="#8763e0" transform="translate(-51.842529)"><path d="m611.13348-71.95443c-6.2044 5.190506-13.0158 9.880497-20.07006 14.221833-6.65162 4.093654-13.48298 7.909034-20.13154 11.617157-2.05328 1.145324-4.06176 2.27277-6.02661 3.387333-30.33978 17.208974-49.85888 31.181839-49.85888 54.728572 0 19.893204 14.00189 32.856179 36.69702 46.719696 2.59241 1.583676 5.30951 3.181519 8.1203 4.800301-.9997.558006-1.98126 1.109894-3.00421 1.676277-6.80298 3.768028-13.83741 7.664574-20.80243 11.943749-.69025.424179-1.38092.853996-2.07147 1.286712-2.45746-1.600425-4.88825-3.232246-7.2483-4.937027-19.97869-14.430057-35.76049-32.963432-35.76049-61.489708 0-34.041923 22.46771-54.000507 47.77014-69.733062 7.06195-4.391098 14.34436-8.453194 21.42096-12.399979 1.60943-.897636 3.18316-1.781593 4.73736-2.659103 8.12659-4.58886 15.41449-8.926003 21.82276-13.253334l-21.82343-12.599663-21.83002 12.603531c2.74286 1.854225 5.6142 3.709732 8.69477 5.586982 2.58905 1.577561 5.30206 3.172829 8.10773 4.791291-.69922.392128-1.38318.778793-2.0951 1.175758-7.10595 3.963371-14.4541 8.061379-21.6225 12.518822-.69427.431591-1.36785.860924-2.04376 1.290745-2.45666-1.590763-4.88775-3.21164-7.25006-4.902401-2.83624-2.029763-5.55914-4.164681-8.1936-6.372383l-49.58814 28.629661v110.64418l49.29102 28.458153c6.24469-5.268448 13.11951-10.010452 20.24737-14.389633 6.80359-4.179978 13.8028-8.060898 20.61048-11.831665 1.93133-1.069794 3.81952-2.123001 5.67248-3.165581 14.5196-8.170723 26.55866-15.602432 35.16956-23.705196h-51.61072l15.47345-26.851132h50.6322 24.16254c-.521 10.173428-3.12128 19.020363-7.19983 26.851132-8.6189 16.548065-23.87555 28.531429-40.34436 38.702442-7.0072 4.327644-14.23071 8.329674-21.25098 12.218162-1.71069.947724-3.3833 1.880631-5.03186 2.806298-8.26928 4.6428-15.67187 9.03584-22.15808 13.43643l22.15741 12.7926 22.16486-12.79679c-2.82398-1.91815-5.78809-3.83502-8.97431-5.77153-2.59857-1.57934-5.32257-3.17444-8.14013-4.791776.78558-.437866 1.55487-.870101 2.35571-1.313606 7.04584-3.902824 14.33166-7.938667 21.45239-12.336204.68012-.419999 1.37415-.856736 2.06806-1.293801 2.44561 1.583191 4.86511 3.196816 7.21533 4.88147 2.90808 2.084343 5.69714 4.280945 8.39068 6.55661l49.28797-28.456383v-110.64418zm2.43427 74.3652407c-3.82166-14.8233187-16.69898-25.8207907-35.58661-37.4498667-2.57764-1.587059-5.27472-3.188126-8.06525-4.809807 1.1305-.635948 2.24298-1.265618 3.4018-1.912037 6.31769-3.523411 13.47772-7.517059 20.31421-11.724247.68341-.420639 1.36725-.846916 2.05096-1.275604 2.44946 1.605575 4.87201 3.242393 7.22461 4.950554 17.72321 12.869087 32.14826 28.937089 35.27393 52.2210078 0 .0000016-24.61365.0000016-24.61365-.0000001z"/><path d="m564.90509 137-108.25421-62.500923v-125l108.25421-62.499077 108.25238 62.499077v125zm-103.02472-65.519775 103.02472 59.482075 103.02295-59.482075v-118.962296l-103.02295-59.480229-103.02472 59.480229z"/><path d="m360.17566-2.5318604h-83.33313v29.0527344h83.33496l-18.31299 31.536865 112.72888-46.063232-112.72888-46.052246z"/></g></svg>