<svg enable-background="new 0 0 1000 500" height="400.27499" viewBox="0 0 654.09998 400.27499" width="654.09998" xmlns="http://www.w3.org/2000/svg"><g transform="translate(-173 -49.925)"><path d="m542.4 364.4-35.7 35.7h259.4v14.3h-532.2v-7.1-7.1h152.7l-35.7-35.7h-156.8c-11.6 0-21.1 9.4-21.1 21.1v43.5c0 11.6 9.4 21.1 21.1 21.1h611.9c11.6 0 21.1-9.4 21.1-21.1v-43.5c0-11.6-9.4-21.1-21.1-21.1h-263.6z" fill="#8763e0"/><path d="m661 202.2-147.4-147.4c-6.5-6.5-16.9-6.5-23.4 0l-202.6 202.7c-6.5 6.5-6.5 16.9 0 23.4l119.2 119.2h79.7l174.5-174.5c6.4-6.5 6.4-16.9 0-23.4zm-164.8 118c-.6 3.8-2.8 7.2-6 9.4-2.4 1.6-5.1 2.4-7.9 2.4-1 0-2-.1-3-.3l-92.4-20.3c-7.6-1.7-12.4-9.2-10.7-16.8s9.1-12.4 16.8-10.7l77.9 17.1 28.3-172.1c1.3-7.7 8.5-12.8 16.2-11.6 7.7 1.3 12.9 8.5 11.6 16.2z" fill="#8763e0"/></g></svg>