<svg xmlns="http://www.w3.org/2000/svg" viewBox="0 0 500 500"><path fill="#fff" d="M35.937 126.411L250 2.821l214.063 123.589v247.179L250 497.179 35.937 373.589z"/><linearGradient id="A" gradientUnits="userSpaceOnUse" x1="250" y1="4.414" x2="250" y2="500.998"><stop offset=".002" stop-color="#7f00f7"/><stop offset=".536" stop-color="#41007f"/></linearGradient><path fill="url(#A)" d="M342.457 82.093c-12.409 10.381-26.031 19.761-40.14 28.443-13.303 8.187-26.966 15.818-40.263 23.234l-12.053 6.775c-60.679 34.418-99.717 62.363-99.717 109.456 0 39.786 28.004 65.712 73.394 93.439l16.241 9.601-6.008 3.353c-13.606 7.536-27.675 15.329-41.605 23.887l-4.143 2.573c-4.915-3.201-9.776-6.464-14.496-9.874-39.957-28.86-71.521-65.926-71.521-122.979 0-68.083 44.935-108 95.54-139.465 14.124-8.782 28.689-16.906 42.842-24.8l9.475-5.318c16.253-9.178 30.829-17.852 43.645-26.507L250 28.713 206.34 53.92a436.22 436.22 0 0 0 17.389 11.174l16.215 9.583-4.19 2.352c-14.212 7.927-28.908 16.123-43.245 25.038l-4.088 2.581c-4.913-3.182-9.775-6.423-14.5-9.805-5.672-4.059-11.118-8.329-16.387-12.745L58.36 139.356v221.287l98.581 56.916c12.489-10.537 26.239-20.021 40.494-28.779 13.607-8.36 27.605-16.122 41.221-23.663l11.345-6.331c29.039-16.341 53.117-31.205 70.339-47.41H217.119l30.947-53.702H349.33h48.325c-1.042 20.347-6.243 38.04-14.4 53.702-17.238 33.096-47.751 57.063-80.688 77.404-14.014 8.655-28.461 16.659-42.502 24.436l-10.064 5.613c-16.538 9.286-31.344 18.072-44.316 26.873L250 471.287l44.329-25.593c-5.648-3.836-11.576-7.67-17.949-11.543l-16.28-9.583 4.711-2.627c14.092-7.806 28.663-15.877 42.905-24.672l4.136-2.588c4.891 3.166 9.73 6.394 14.43 9.763 5.816 4.169 11.394 8.562 16.781 13.113l98.575-56.912V139.356l-99.183-57.263zm4.869 148.73c-7.643-29.646-33.398-51.641-71.173-74.899l-16.13-9.62 6.804-3.824 40.628-23.448 4.102-2.551c4.899 3.211 9.744 6.485 14.449 9.901 35.446 25.738 64.296 57.874 70.547 104.441h-49.227z"/><path fill="url(#A)" d="M249.999 500L33.494 374.999V125L249.999 0l216.506 125v249.999L249.999 500zM43.952 368.962l206.047 118.962 206.048-118.962V131.037L249.999 12.077 43.952 131.037v237.924z"/></svg>
