<svg enable-background="new -225 -112.5 500 250" height="250" viewBox="-225 -112.5 215.41505 250" width="215.41505" xmlns="http://www.w3.org/2000/svg"><g fill="#8763e0" transform="translate(-142.29247)"><path d="m55.632412-1.8280618c-6.917004 0-11.857716 10.8695698-11.857716 18.7746998 0 4.940712 1.976292 7.905142 6.917004 7.905142 2.96442 0 4.940712-.988147 7.905132-5.928858l2.964417-17.7865635c-1.976273-.9881375-3.952564-2.9644203-5.928837-2.9644203z"/><path d="m123.81422-112.5h-178.853755c-4.940712 0-8.893281 3.95257-8.893281 8.89328v14.822136h20.750996c10.869568 0 19.762846 8.89328 19.762846 19.762848v18.774704c0 10.869564-8.893278 19.762846-19.762846 19.762846h-20.750996v13.83399h20.750996c10.869568 0 19.762846 8.8932761 19.762846 19.7628459v18.7747001c0 10.86957-8.893278 19.762846-19.762846 19.762846h-20.750996v13.834h20.750996c10.869568 0 19.762846 8.893276 19.762846 19.762844v18.774704c0 10.869566-8.893278 19.762846-19.762846 19.762846h-20.750996v14.82213c0 4.94072 3.952569 8.89328 8.893281 8.89328h178.853755c4.94072 0 8.8933-3.95256 8.8933-8.89328v-232.21344c0-4.94071-3.95258-8.89328-8.8933-8.89328zm-45.45454 154.150207c-7.905136 0-14.82214-3.952568-16.798431-10.869571-3.952564 5.92886-10.869568 8.893276-16.798428 8.893276-11.857715 0-18.774698-8.893276-18.774698-21.739128 0-17.786564 12.845842-35.573116 28.656122-35.573116 4.940712 0 7.905132 1.976282 10.869572 6.916993l1.976288-5.928857h14.822136l-6.916985 32.608696c-1.976288 6.916994 0 10.86957 5.928856 10.86957 8.89328 0 15.810264-9.881424 15.810264-23.7154124 0-18.7747006-9.881424-37.5494116-38.537544-37.5494116-23.715412 0-47.430843 20.750984-47.430843 51.3834 0 27.667988 19.762848 40.513839 40.513836 40.513839 6.917007 0 14.822135-1.976291 20.750991-4.940712l4.940712 12.845841c-8.893272 4.940712-17.786552 6.917007-27.667976 6.917007-28.656122 0-55.3359718-16.798427-55.3359718-54.347831 0-40.51384 29.6442678-66.205536 65.2173998-66.205536 31.620559 0 51.38341 21.73913 51.38341 51.3833998.98812 25.6917002-16.79843 38.5375532-32.60871 38.5375532z"/><path d="m-79.743095-48.270748h15.810279 20.750996c1.976292 0 2.964416-.988144 2.964416-2.964428v-17.78656c0-1.97628-.988143-2.964432-2.964416-2.964432h-20.750996-15.810279c-1.976281 0-2.964432.988144-2.964432 2.964432v18.774704c.000015.98814.988151 1.976284 2.964432 1.976284z"/><path d="m-79.743095 22.875496h15.810279 20.750996c1.976292 0 2.964416-.988146 2.964416-2.964428v-18.7747009c0-1.9762828-.988143-2.9644289-2.964416-2.9644289h-20.750996-15.810279c-1.976281 0-2.964432.9881461-2.964432 2.9644289v18.7747009c.000015 1.976292.988151 2.964428 2.964432 2.964428z"/><path d="m-43.18182 94.021744c1.976292 0 2.964417-.988152 2.964417-2.964424v-18.774697c0-1.976295-.988144-2.964424-2.964417-2.964424h-20.750996-15.810279c-1.976281 0-2.964432.988152-2.964432 2.964424v18.774697c0 1.976295.988151 2.964424 2.964432 2.964424h15.810279z"/></g></svg>