<?xml version="1.0" encoding="utf-8"?>
<!-- Generator: Adobe Illustrator 19.0.0, SVG Export Plug-In . SVG Version: 6.00 Build 0)  -->
<svg version="1.1" id="Layer_1" xmlns="http://www.w3.org/2000/svg" xmlns:xlink="http://www.w3.org/1999/xlink" x="0px" y="0px" viewBox="225 -113 500 250"
	 enable-background="new 225 -113 500 250" xml:space="preserve">
	<g>
		<g>
			<g id="XMLID_68_">
				<g id="XMLID_69_">
					<g id="XMLID_363_">
						<path id="XMLID_365_" fill="#8763E0" d="M611.1334839-71.9544296
							c-6.2044067,5.190506-13.0158081,9.880497-20.0700684,14.2218323
							c-6.6516113,4.0936546-13.4829712,7.9090347-20.1315308,11.617157
							c-2.0532837,1.1453247-4.0617676,2.2727699-6.0266113,3.3873329
							c-30.3397827,17.2089748-49.8588867,31.181839-49.8588867,54.7285728
							c0,19.8932037,14.0018921,32.8561783,36.6970215,46.719696c2.5924072,1.5836754,5.3095093,3.1815186,8.1203003,4.8003006
							c-0.9996948,0.5580063-1.9812622,1.1098938-3.0042114,1.6762772
							c-6.8029785,3.7680283-13.8374023,7.6645737-20.8024292,11.9437485
							c-0.6902466,0.4241791-1.3809204,0.8539963-2.0714722,1.2867126c-2.4574585-1.6004257-4.8882446-3.2322464-7.248291-4.937027
							c-19.9786987-14.4300575-35.760498-32.9634323-35.760498-61.4897079
							c0-34.0419235,22.4677124-54.0005074,47.7701416-69.7330627c7.0619507-4.391098,14.3443604-8.4531937,21.4209595-12.3999786
							c1.609436-0.8976364,3.1831665-1.7815933,4.7373657-2.6591034c8.1265869-4.5888596,15.4144897-8.9260025,21.8227539-13.253334
							l-21.8234253-12.5996628L543.074585-86.0411453c2.7428589,1.8542252,5.6141968,3.7097321,8.6947632,5.5869827
							c2.5890503,1.5775604,5.302063,3.1728287,8.1077271,4.7912903c-0.6992188,0.392128-1.3831787,0.7787933-2.0950928,1.1757584
							c-7.105957,3.9633713-14.4541016,8.0613785-21.6224976,12.5188217
							c-0.6942749,0.431591-1.3678589,0.8609238-2.0437622,1.2907448c-2.456665-1.5907631-4.8877563-3.2116394-7.250061-4.902401
							c-2.8362427-2.0297623-5.5591431-4.1646805-8.1936035-6.3723831L469.0839233-43.32267V67.3215103l49.2910156,28.4581528
							c6.2446899-5.2684479,13.1195068-10.0104523,20.2473755-14.3896332
							c6.8035889-4.1799774,13.8027954-8.0608978,20.6104736-11.831665c1.9313354-1.0697937,3.819519-2.1230011,5.6724854-3.1655807
							c14.5195923-8.170723,26.5586548-15.6024323,35.1695557-23.7051964h-51.6107178l15.4734497-26.8511314h50.6322021h24.1625366
							c-0.5209961,10.1734276-3.1212769,19.0203629-7.1998291,26.8511314
							c-8.6188965,16.5480652-23.8755493,28.5314293-40.3443604,38.7024422
							c-7.0072021,4.3276443-14.2307129,8.3296738-21.2509766,12.2181625
							c-1.7106934,0.9477234-3.3833008,1.8806305-5.0318604,2.8062973
							c-8.2692871,4.6427994-15.671875,9.0358353-22.1580811,13.4364319l22.1574097,12.7925949l22.164856-12.7967834
							c-2.8239746-1.9181519-5.7880859-3.835022-8.9743042-5.7715378c-2.5985718-1.5793304-5.3225708-3.1744385-8.1401367-4.7917709
							c0.7855835-0.4378662,1.5548706-0.8701019,2.3557129-1.3136063
							c7.0458374-3.9028244,14.331665-7.9386673,21.4523926-12.3362045
							c0.6801147-0.4199982,1.3741455-0.8567352,2.0680542-1.2938004c2.4456177,1.5831909,4.8651123,3.1968155,7.215332,4.8814697
							c2.9080811,2.084343,5.6971436,4.2809448,8.390686,6.5566101l49.2879639-28.4563828V-43.32267L611.1334839-71.9544296z
							 M613.567749,2.4108107c-3.8216553-14.8233185-16.6989746-25.8207912-35.5866089-37.4498672
							c-2.5776367-1.587059-5.2747192-3.1881256-8.0652466-4.8098068c1.1304932-0.6359482,2.242981-1.2656174,3.4017944-1.9120369
							c6.317688-3.5234108,13.4777222-7.5170593,20.314209-11.724247c0.6834106-0.420639,1.3672485-0.8469162,2.0509644-1.2756042
							c2.4494629,1.6055756,4.8720093,3.2423935,7.2246094,4.9505539
							c17.7232056,12.8690872,32.1482544,28.9370899,35.2739258,52.2210083
							C638.1813965,2.4108124,613.567749,2.4108124,613.567749,2.4108107z"/>
					</g>
					<g id="XMLID_342_">
						<path id="XMLID_345_" fill="#8763E0" d="M564.9050903,137L456.6508789,74.4990768v-125L564.9050903-113
							l108.2523804,62.4990768v125L564.9050903,137z M461.8803711,71.4802246l103.0247192,59.4820709l103.0229492-59.4820709
							V-47.4820709l-103.0229492-59.4802246L461.8803711-47.4820709V71.4802246z"/>
					</g>
				</g>
			</g>
			<polygon fill="#8763E0" points="454.5933838,11.9945068 341.864502,-34.0577393 360.1756592,-2.5318604 276.8425293,-2.5318604 
				276.8425293,26.520874 360.1774902,26.520874 341.864502,58.0577393 			"/>
		</g>
	</g>
</svg>
