<svg height="12" viewBox="0 0 12 12" width="12" xmlns="http://www.w3.org/2000/svg"><path d="m18.748759 17.0514394 3.251241 3.251241-.6973196.6973196-3.2512156-3.2512156c-.8500204.6956473-1.9366057 1.1130152-3.1206704 1.1130152-2.7232025 0-4.9307944-2.207639-4.9307944-4.9308998s2.2075919-4.9308998 4.9307944-4.9308998c2.7232026 0 4.9307944 2.207639 4.9307944 4.9308998 0 1.1839983-.4172943 2.2705303-1.1128298 3.1205396zm-3.8179646.8241802c2.1785621 0 3.9446356-1.7661112 3.9446356-3.9447198s-1.7660735-3.94471984-3.9446356-3.94471984c-2.178562 0-3.9446355 1.76611124-3.9446355 3.94471984s1.7660735 3.9447198 3.9446355 3.9447198z" fill="#3a465d" fill-rule="evenodd" transform="translate(-10 -9)"/></svg>