<svg height="16" viewBox="0 0 16 16" width="16" xmlns="http://www.w3.org/2000/svg"><path d="m12.9533333 8.65333333c.0266667-.21333333.0466667-.42666666.0466667-.65333333s-.02-.44-.0466667-.65333333l1.4066667-1.1c.1266667-.1.16-.28.08-.42666667l-1.3333333-2.30666667c-.08-.14666666-.26-.2-.4066667-.14666666l-1.66.66666666c-.3466667-.26666666-.72-.48666666-1.12666667-.65333333l-.25333333-1.76666667c-.02-.16-.16-.28-.32666667-.28h-2.66666666c-.16666667 0-.30666667.12-.32666667.28l-.25333333 1.76666667c-.40666667.16666667-.78.39333333-1.12666667.65333333l-1.66-.66666666c-.15333333-.06-.32666667 0-.40666667.14666666l-1.33333333 2.30666667c-.08666667.14666667-.04666667.32666667.08.42666667l1.40666667 1.1c-.02666667.21333333-.04666667.43333333-.04666667.65333333s.02.44.04666667.65333333l-1.40666667 1.1c-.12666667.1-.16.27999997-.08.42666667l1.33333333 2.3066667c.08.1466666.26.2.40666667.1466666l1.66-.6666666c.34666667.2666666.72.4866666 1.12666667.6533333l.25333333 1.7666667c.02.16.16.28.32666667.28h2.66666666c.16666667 0 .30666667-.12.32666667-.28l.25333333-1.7666667c.40666667-.1666667.77999997-.3933333 1.12666667-.6533333l1.66.6666666c.1533333.06.3266667 0 .4066667-.1466666l1.3333333-2.3066667c.08-.1466667.0466667-.32666667-.08-.42666667zm-4.9533333 1.67999997c-1.28666667 0-2.33333333-1.04666663-2.33333333-2.3333333s1.04666666-2.33333333 2.33333333-2.33333333 2.3333333 1.04666666 2.3333333 2.33333333-1.04666663 2.3333333-2.3333333 2.3333333z" fill="#3a465d" fill-rule="evenodd"/></svg>
