<svg height="16" viewBox="0 0 16 16" width="16" xmlns="http://www.w3.org/2000/svg"><path d="m8 11.3333333c.73333333 0 1.33333333-.6 1.33333333-1.3333333 0-.73333333-.6-1.33333333-1.33333333-1.33333333s-1.33333333.6-1.33333333 1.33333333c0 .7333333.6 1.3333333 1.33333333 1.3333333zm4-5.99999997h-.6666667v-1.33333333c0-1.84-1.4933333-3.33333333-3.3333333-3.33333333s-3.33333333 1.49333333-3.33333333 3.33333333h1.26666666c0-1.14.92666667-2.06666667 2.06666667-2.06666667s2.0666667.92666667 2.0666667 2.06666667v1.33333333h-6.0666667c-.73333333 0-1.33333333.6-1.33333333 1.33333334v6.66666663c0 .7333334.6 1.3333334 1.33333333 1.3333334h8c.7333333 0 1.3333333-.6 1.3333333-1.3333334v-6.66666663c0-.73333334-.6-1.33333334-1.3333333-1.33333334zm0 7.99999997h-8v-6.66666663h8z" fill="#9a80b2" fill-rule="evenodd"/></svg>
