<svg width="16" height="16" viewBox="0 0 16 16" xmlns="http://www.w3.org/2000/svg">
   <g transform="translate(0 2)" fill="#3a465d" fill-opacity=".3">
     <path transform="translate(0,-2)" d="m7.998 2.0059c-3.0013 0-5.823 1.2326-7.9453 3.4727-0.032982 0.034556-0.052734 0.083109-0.052734 0.13281 0 0.049111 0.017834 0.096119 0.050781 0.13086l1.1621 1.2266c0.032912 0.034741 0.078474 0.052734 0.125 0.052734s0.09017-0.018031 0.12305-0.052734c1.7486-1.8459 4.071-2.8633 6.5371-2.8633 2.2916 0 4.4521 0.88678 6.1504 2.4922l0.33398-0.33398 0.49609 0.49609 0.96484-1.0176c0.032913-0.034741 0.050782-0.081711 0.050782-0.13086 7e-5 -0.037222-0.011391-0.074654-0.03125-0.10547-0.006141-0.0095185-0.011777-0.017206-0.019532-0.025391-2.1224-2.2403-4.9438-3.4746-7.9453-3.4746z"/>
     <path transform="translate(0,-2)" d="m7.998 5.248c-2.1774 0-4.2277 0.89779-5.7715 2.5273-0.068491 0.072333-0.068526 0.18942 0 0.26172l1.1582 1.2227c0.032912 0.034741 0.078474 0.054688 0.125 0.054688s0.09017-0.019947 0.12305-0.054688c1.1676-1.2325 2.7186-1.9102 4.3652-1.9102 0.39425 0 0.78093 0.041084 1.1602 0.11719l1.2012-1.2031 2.0605 2.0605 0.93945-0.93945c-1.4888-1.3766-3.3685-2.1367-5.3613-2.1367z"/>
     <path transform="translate(0,-2)" d="m7.998 8.4922c-1.3579 0-2.6369 0.55991-3.5996 1.5762-0.032947 0.034741-0.050781 0.081675-0.050781 0.13086 0 0.049111 0.017799 0.096155 0.050781 0.13086l1.1582 1.2227c0.032912 0.034741 0.078474 0.054688 0.125 0.054688s0.09017-0.019947 0.12305-0.054688c0.58663-0.61922 1.3662-0.96094 2.1934-0.96094 0.5929 0 1.1583 0.18056 1.6484 0.50781l0.35547-0.35547-2.0605-2.0605 0.18555-0.18555c-0.043242-0.0011406-0.085494-0.0058594-0.12891-0.0058594z"/>
     <path transform="translate(0,-2)" d="m7.998 11.93c-0.47442 0-0.9206 0.19483-1.2559 0.54883-0.068491 0.072333-0.068526 0.18942 0 0.26172l1.1309 1.1934c0.032912 0.03474 0.078474 0.054687 0.125 0.054687s0.090205-0.019947 0.12305-0.054687l0.45898-0.48633-0.64062-0.64062 0.73633-0.73633c-0.2122-0.092501-0.44119-0.14062-0.67773-0.14062z"/>
   </g>
   <path d="m14.483 7.6771-2.0619 2.0619-2.0606-2.0606-1.0054 1.0054 2.0606 2.0606-2.0619 2.0619 1.0068 1.0068 2.0619-2.0619 2.0619 2.0619 1.0054-1.0054-2.0619-2.0619 2.0619-2.0619z" fill="#ed5144"/>
</svg>
