<svg height="16" viewBox="0 0 16 16" width="16" xmlns="http://www.w3.org/2000/svg"><g fill="#3a465d" transform="translate(0 2)"><path d="m15.9637895 3.50618519c-.0061404-.00951852-.0131228-.01844445-.0208772-.02662963-2.1224211-2.2402963-4.9442807-3.47411112-7.94575441-3.47411112-3.00129824 0-5.82291228 1.23355556-7.94522807 3.47362963-.03298245.03455556-.05192982.08185186-.05192982.13155556 0 .04911111.01845614.09622222.05140351.13096296l1.16185965 1.22644445c.03291228.03474074.07750877.05422222.12403509.05422222.04652631 0 .09115789-.01951852.12403508-.05422222 1.74863158-1.84588889 4.06975439-2.86240741 6.53582456-2.86240741 2.46603511 0 4.78715791 1.01655556 6.53582461 2.86237037.0329122.03474074.0775087.05422222.124.05422222.0465263 0 .0911929-.01951852.124035-.05422222l1.1618597-1.22644444c.0329123-.03474075.0514035-.08181482.0514035-.13096297.0000702-.03722222-.0106316-.07359259-.0304912-.1044074z" fill-opacity=".3"/><path d="m7.99715789 3.24885185c-2.1774035 0-4.22670175.89744445-5.77045614 2.527-.06849122.07233334-.06849122.18959259.00003509.26188889l1.15824562 1.22255556c.03291228.03474074.07750877.05425926.12403508.05425926.04652632 0 .0911579-.01951852.12403509-.05425926 1.16761404-1.23248149 2.71747369-1.9112963 4.36410526-1.9112963 1.64670176 0 3.19656141.67881481 4.36407021 1.9112963.0329123.03474074.0775438.05425926.1240701.05425926.0465264 0 .0911579-.01951852.1240351-.05425926l1.1582807-1.22255556c.0329123-.03474074.0514035-.08181481.0514035-.13096296s-.018421-.09622222-.0514035-.13096297c-1.5437544-1.62948148-3.5930526-2.52696296-5.77045611-2.52696296z"/><path d="m7.99715789 6.4922963c-1.35792982 0-2.636.55962963-3.59873684 1.57588889-.03294737.03474074-.05140351.08181481-.05140351.131 0 .04911111.01842106.09622222.05140351.13092592l1.15824562 1.22259259c.03291228.03474074.07750877.05425926.12403508.05425926.04652632 0 .0911579-.01951852.12403509-.05425926.58663158-.61922222 1.36522807-.96022222 2.19242105-.96022222.82719299 0 1.60585965.34107408 2.19245611.96022222.0329123.03474074.0775088.05425926.124.05425926.0464913 0 .0911579-.01951852.1240351-.05425926l1.1582456-1.22259259c.0684913-.07233333.0684913-.18959259 0-.26185185-.9627017-1.01633333-2.24077189-1.57596296-3.59873681-1.57596296z"/><path d="m7.99715789 9.929c-.47442105 0-.92031578.194963-1.25557894.548963-.06849123.0723333-.06849123.1895555.00003509.2618518l1.13150877 1.1944445c.03291228.0347407.07750877.0542592.12403508.0542592.04652632 0 .09119299-.0195185.12403509-.0542592l1.13150877-1.1944445c.06849123-.0723333.06849123-.1895555 0-.2618889-.33529824-.3539629-.78119298-.5489259-1.25554386-.5489259z"/></g></svg>