<svg height="16" viewBox="0 0 16 16" width="16" xmlns="http://www.w3.org/2000/svg"><path d="m12.5035645 7.74050715h-.6606179v-2.02349195c0-1.00896646-.4169367-1.93415018-1.1039101-2.60957401-.6852452-.67462968-1.6625621-1.10982339-2.73925253-1.10744095-1.07755455-.00238244-2.05487146.43281127-2.73925254 1.10744095-.68740548.67542383-1.10434219 1.60060755-1.10434219 2.60957401v2.02349195h-.66148196c-.27176496 0-.49470728.20330218-.49470728.45465037v5.34899138c0 .2529365.22294232.4558416.49470728.4558416h9.00928922c.2743574 0 .4960035-.2033022.4960035-.4558416v-5.34899138c0-.25134819-.2220782-.45465037-.4964355-.45465037zm-4.5035645 4.49616685c-.73333333 0-1.33333333-.6-1.33333333-1.3333333 0-.7333334.6-1.33333338 1.33333333-1.33333338s1.33333333.59999998 1.33333333 1.33333338c0 .7333333-.6 1.3333333-1.33333333 1.3333333zm-2.01965867-6.5196588c0-.58171423.24152084-1.09830823.61352344-1.46361683.37459494-.36610274.86411752-.57694933 1.4059192-.57694933.54093757 0 1.03046014.21084659 1.40419097.57694933.37373083.3653086.61352346.8819026.61352346 1.46361683v2.02349195h-4.03715707z" fill="#3a465d"/></svg>