<svg height="16" viewBox="0 0 16 16" width="16" xmlns="http://www.w3.org/2000/svg"><g fill="#ed5144" transform="translate(1 2)"><path d="m13.643657 2.83243956-6.40040134-2.7690989c-.15495145-.06756044-.33205825-.06756044-.48782524 0l-6.40008414 2.7690989c-.20891262.09024176-.34687379.28887912-.35462136.5109011-.00747573.22158242.11480906.42861538.31683495.53287912l6.39999353 3.31134066c.0882589.04593407.18499029.0683956.28199353.0683956.09750161 0 .19409708-.02246153.2824919-.0683956l6.40031067-3.31134066c.2018447-.10426374.3242654-.3112967.3169256-.53287912-.0087444-.22202198-.1463884-.42065934-.3556181-.5109011z"/><path d="m13.1177282 5.31010989-6.11854373 3.16659341-6.11754693-3.16659341c-.29286731-.1516044-.65550809-.04404396-.81073139.23956044-.15631068.28347253-.04544337.63520879.24660841.78641758l6.39999353 3.31226374c.0882589.04562637.18499029.06835165.28199353.06835165.09750162 0 .19409709-.02241759.28249191-.06835165l6.40031067-3.31226374c.2913722-.15120879.4021036-.50294505.246699-.78641758-.1564013-.28364835-.5193139-.39120879-.811275-.23956044z"/><path d="m13.1177282 7.58136264-6.11854373 3.16553846-6.11754693-3.16553846c-.29286731-.15173627-.65550809-.04404396-.81073139.23916483-.15631068.28347253-.04544337.63556044.24660841.78654945l6.39999353 3.31120878c.0882589.0459341.18499029.0686594.28199353.0686594.09750162 0 .19409709-.0224176.28249191-.0686594l6.40031067-3.31120878c.2913722-.15098901.4021036-.50303296.246699-.78654945-.1564013-.28320879-.5188155-.39094505-.811275-.23916483z"/></g></svg>
