<svg width="16" height="16" version="1.1" viewBox="0 0 16 16" xmlns="http://www.w3.org/2000/svg">
 <g transform="translate(1 2)" fill="#ed5144">
  <path d="m11 6.6667c0-2.2067-1.7933-4-4-4s-4 1.7933-4 4c0 1.48 0.80667 2.7667 2 3.46l0.66667-1.16c-0.79333-0.46667-1.3333-1.3133-1.3333-2.3 0-1.4733 1.1933-2.6667 2.6667-2.6667s2.6667 1.1933 2.6667 2.6667c0 0.98667-0.54 1.8333-1.3333 2.3l0.66667 1.16c1.1933-0.69333 2-1.98 2-3.46z"/>
  <path d="m7 0c-3.68 0-6.6667 2.9867-6.6667 6.6667 0 2.4667 1.34 4.6133 3.3267 5.7667l0.66667-1.1533c-1.5867-0.92667-2.66-2.64-2.66-4.6133 0-2.9467 2.3867-5.3333 5.3333-5.3333s5.3333 2.3867 5.3333 5.3333c0 1.9733-1.0733 3.6867-2.6667 4.6133l0.66667 1.1533c1.9933-1.1533 3.3333-3.3 3.3333-5.7667 0-3.68-2.9867-6.6667-6.6667-6.6667z"/>
  <path d="m7 5.3333c-0.73333 0-1.3333 0.6-1.3333 1.3333 0 0.73333 0.6 1.3333 1.3333 1.3333s1.3333-0.6 1.3333-1.3333c0-0.73333-0.6-1.3333-1.3333-1.3333z"/>
 </g>
</svg>
