<?xml version="1.0" encoding="utf-8"?>
<!-- Generator: Adobe Illustrator 19.1.0, SVG Export Plug-In . SVG Version: 6.00 Build 0)  -->
<svg version="1.1" id="Layer_1" xmlns="http://www.w3.org/2000/svg" xmlns:xlink="http://www.w3.org/1999/xlink" x="0px" y="0px"
	 viewBox="0 0 1000 500" enable-background="new 0 0 1000 500" xml:space="preserve">
<g>
	<g>
		<path fill="#8763E0" d="M542.4,364.4l-35.7,35.7h259.4v14.3H233.9v-7.1v-7.1h152.7l-35.7-35.7H194.1c-11.6,0-21.1,9.4-21.1,21.1
			v43.5c0,11.6,9.4,21.1,21.1,21.1h611.9c11.6,0,21.1-9.4,21.1-21.1v-43.5c0-11.6-9.4-21.1-21.1-21.1H542.4z"/>
		<path fill="#8763E0" d="M661,202.2L513.6,54.8c-6.5-6.5-16.9-6.5-23.4,0L287.6,257.5c-6.5,6.5-6.5,16.9,0,23.4l119.2,119.2h79.7
			L661,225.6C667.4,219.1,667.4,208.7,661,202.2z M496.2,320.2c-0.6,3.8-2.8,7.2-6,9.4c-2.4,1.6-5.1,2.4-7.9,2.4c-1,0-2-0.1-3-0.3
			l-92.4-20.3c-7.6-1.7-12.4-9.2-10.7-16.8c1.7-7.6,9.1-12.4,16.8-10.7l77.9,17.1l28.3-172.1c1.3-7.7,8.5-12.8,16.2-11.6
			c7.7,1.3,12.9,8.5,11.6,16.2L496.2,320.2z"/>
	</g>
</g>
</svg>
