<?xml version="1.0" encoding="UTF-8" standalone="no"?>
<svg
   xmlns:dc="http://purl.org/dc/elements/1.1/"
   xmlns:cc="http://creativecommons.org/ns#"
   xmlns:rdf="http://www.w3.org/1999/02/22-rdf-syntax-ns#"
   xmlns:svg="http://www.w3.org/2000/svg"
   xmlns="http://www.w3.org/2000/svg"
   xmlns:sodipodi="http://sodipodi.sourceforge.net/DTD/sodipodi-0.dtd"
   xmlns:inkscape="http://www.inkscape.org/namespaces/inkscape"
   height="16"
   viewBox="0 0 16 16"
   width="16"
   version="1.1"
   id="svg109"
   sodipodi:docname="gray_scraper.svg"
   inkscape:version="0.92.3 (2405546, 2018-03-11)">
  <sodipodi:namedview
     pagecolor="#ffffff"
     bordercolor="#666666"
     borderopacity="1"
     objecttolerance="10"
     gridtolerance="10"
     guidetolerance="10"
     inkscape:pageopacity="0"
     inkscape:pageshadow="2"
     inkscape:window-width="2315"
     inkscape:window-height="1360"
     id="namedview8"
     showgrid="false"
     inkscape:pagecheckerboard="true"
     inkscape:zoom="41.7193"
     inkscape:cx="9.3559322"
     inkscape:cy="8"
     inkscape:window-x="802"
     inkscape:window-y="194"
     inkscape:window-maximized="0"
     inkscape:current-layer="svg109" />
  <metadata
     id="metadata115">
    <rdf:RDF>
      <cc:Work
         rdf:about="">
        <dc:format>image/svg+xml</dc:format>
        <dc:type
           rdf:resource="http://purl.org/dc/dcmitype/StillImage" />
        <dc:title></dc:title>
      </cc:Work>
    </rdf:RDF>
  </metadata>
  <defs
     id="defs113" />
  <path
     style="fill:#6c768a;fill-opacity:1;stroke-width:0.1756997"
     d="M 9.3821095,15.578051 C 10.50804,14.957116 11.073411,13.708189 10.792467,12.462518 10.468408,11.025683 9.4956892,10.149325 7.9642245,10.148303 6.2712121,10.147203 5.130426,11.391744 5.130426,13.057975 c 0,1.652636 0.9835061,2.6834 2.6645503,2.792582 0.7238301,0.04702 1.1361123,-0.02377 1.5871332,-0.272506 z M 6.6503565,15.034216 C 6.0624001,14.675681 5.604938,13.694569 5.618377,13.037366 c 0.01257,-0.614989 0.4532961,-1.545437 1.0150007,-1.960938 0.677177,-0.500917 2.0211338,-0.501618 2.6911159,-0.0014 1.0503394,0.784191 1.3540724,1.893946 0.8240564,3.010873 -0.3858092,0.81303 -1.1743372,1.278317 -2.1663836,1.278317 -0.46434,0 -1.0139914,-0.136195 -1.3318099,-0.329999 z M 14.413931,9.5377453 c 0.959589,-0.9304615 1.299022,-1.3790935 1.299022,-1.7169315 0,-0.3575006 -0.776714,-1.2537107 -3.557919,-4.1052973 C 8.980956,0.46111402 8.5368382,0.06821231 8.0383904,0.07360733 7.5472856,0.07892733 7.0475766,0.51705764 3.909449,3.6937789 1.279213,6.3563613 0.325478,7.433506 0.28699,7.784965 0.24394,8.1780738 0.464814,8.4851087 1.542086,9.5296817 c 0.719036,0.6972113 1.447334,1.2676553 1.61844,1.2676553 0.171106,0 1.325974,-1.0041717 2.566371,-2.2314912 L 7.9821664,6.334355 10.237436,8.5658458 c 1.240399,1.2273195 2.395266,2.2314912 2.566372,2.2314912 0.171106,0 0.895661,-0.566816 1.610123,-1.2595917 z M 10.324757,7.9505979 7.9821664,5.6309585 5.610888,7.9244718 3.126847,10.381529 2.430646,9.8067293 C 1.920657,9.385671 0.745577,8.2685877 0.745577,7.9051281 c 0,-0.3268029 6.9940311,-7.34256834 7.3217225,-7.34256834 0.3531207,0 7.1892185,7.26367574 7.1892185,7.26367574 -1.128198,1.4143775 -1.226716,1.4039356 -2.481182,2.4855095 -0.0403,3.68e-4 -1.162155,-1.0853454 -2.450579,-2.3611471 z"
     id="path903" />
  <path
     id="path926"
     d="m 7.7323203,15.347108 c -0.024972,-0.0044 -0.1066969,-0.01661 -0.1816118,-0.0272 C 7.2644479,15.279449 6.855161,15.150292 6.6813183,15.045557 6.0958273,14.692816 5.5870261,13.691688 5.6313522,12.97962 c 0.037766,-0.606684 0.4484422,-1.423592 0.9159083,-1.821905 0.3186448,-0.271508 0.7737499,-0.423371 1.3303492,-0.443924 0.6255984,-0.0231 1.1511134,0.129015 1.5449232,0.447192 0.3038254,0.245475 0.5916091,0.590274 0.7426931,0.889833 0.266859,0.52911 0.299054,1.162757 0.08928,1.757258 -0.3404074,0.964732 -1.1268758,1.51668 -2.1952885,1.540665 -0.154824,0.0035 -0.3019296,0.0027 -0.3269012,-0.0016 z"
     style="fill:#b0b6c6;fill-opacity:1;stroke:#000000;stroke-width:0;stroke-miterlimit:4;stroke-dasharray:none;stroke-opacity:1" />
  <path
     id="path928"
     d="M 2.8015598,10.105974 C 2.2591508,9.6568542 1.9746914,9.4018447 1.620651,9.0473238 1.010777,8.4366221 0.72470651,8.0481745 0.76540708,7.8860105 0.8591083,7.5126752 6.8218823,1.4889811 7.909161,0.66927088 8.0678292,0.54964941 8.0778911,0.55051772 8.2625939,0.6997709 8.8985955,1.2137055 11.514397,3.8765656 14.828376,7.3836723 l 0.4195,0.4439464 -0.19251,0.2370979 c -0.622649,0.7668651 -0.969156,1.1220304 -1.70216,1.7446932 -0.279683,0.2375812 -0.525447,0.4471542 -0.546143,0.4657182 -0.0373,0.03346 -0.04031,0.03125 -0.345062,-0.253667 C 12.035152,9.6223979 10.886754,8.4983598 9.3145826,6.9408046 L 7.9819753,5.6205867 7.7890435,5.8087155 C 7.6829308,5.9121863 7.1016733,6.4754289 6.49736,7.0603659 5.8930467,7.6453028 4.8895769,8.6277122 4.2674271,9.2434979 3.6452772,9.8592836 3.1304077,10.362772 3.1232728,10.362361 3.1161376,10.36195 2.9713668,10.246576 2.8015598,10.105974 Z"
     style="fill:#b0b6c6;fill-opacity:1;stroke:#000000;stroke-width:0;stroke-miterlimit:4;stroke-dasharray:none;stroke-opacity:1" />
</svg>
