<?xml version="1.0" encoding="UTF-8" standalone="no"?>
<svg
   width="192"
   height="192"
   version="1.1"
   viewBox="0 0 192 192"
   xml:space="preserve"
   id="svg83"
   xmlns="http://www.w3.org/2000/svg"
   xmlns:svg="http://www.w3.org/2000/svg"
   xmlns:rdf="http://www.w3.org/1999/02/22-rdf-syntax-ns#"
   xmlns:cc="http://creativecommons.org/ns#"
   xmlns:dc="http://purl.org/dc/elements/1.1/"><metadata
     id="metadata50"><rdf:RDF><cc:Work
         rdf:about=""><dc:format>image/svg+xml</dc:format><dc:type
           rdf:resource="http://purl.org/dc/dcmitype/StillImage" /></cc:Work></rdf:RDF></metadata><defs
     id="defs63" /><g
     id="g9344"
     style="fill:#8763e0;fill-opacity:1"
     transform="matrix(3.7795276,0,0,3.7795276,-151.32677,-517.01509)"><path
       id="path9194"
       style="color:#000000;fill-opacity:1;stroke-width:0.604428;stroke-linecap:round;stroke-linejoin:round;stroke-miterlimit:10"
       d="M 47.929532 167.01602 L 40.759944 167.05478 L 40.849861 183.66565 L 47.929532 183.62792 L 47.929532 167.01602 z " /><path
       id="path9188"
       style="color:#000000;fill-opacity:1;stroke-width:0.758651;stroke-linecap:round;stroke-linejoin:round;stroke-miterlimit:10"
       d="M 62.716743 165.98559 C 62.590329 165.98359 62.458831 165.98362 62.321935 165.98662 L 62.321935 165.98611 C 61.956882 165.99311 61.552017 166.01687 61.092036 166.06207 L 61.092036 166.06156 C 59.847799 166.18182 58.618182 166.42525 57.421976 166.78813 C 55.537395 167.3651 53.757003 168.2367 52.144778 169.3704 C 52.107958 169.3962 52.066839 169.41532 52.023339 169.42672 C 50.956732 169.71148 49.866973 169.87657 48.768757 169.95331 L 48.768757 181.35985 L 52.789184 181.99547 C 52.801714 181.99747 52.814131 182.00073 52.826391 182.00373 C 53.828685 182.2665 60.764065 184.06355 65.755834 184.69918 C 67.638242 184.93852 68.969485 184.98061 69.95351 184.97461 C 71.370082 184.96661 72.784395 184.85691 74.18581 184.65008 C 77.229069 184.19187 81.905422 183.34156 86.154588 181.87506 C 87.855641 181.28764 89.370025 180.59799 89.898546 179.61112 C 90.225552 179.00074 90.122704 178.47019 89.996214 178.1032 L 89.623111 177.28878 C 89.380672 177.00505 89.109278 176.74686 88.80869 176.52552 C 86.376125 174.73741 82.596783 175.56314 80.951289 175.87284 C 77.863078 176.45476 74.853864 176.35257 71.810761 176.14259 C 69.620383 175.99132 67.546228 175.39465 65.605455 174.53907 C 65.428187 174.46097 64.770976 174.21847 64.187454 173.93756 C 63.895692 173.7971 63.617249 173.64716 63.392671 173.47454 C 63.280382 173.38824 63.178768 173.29742 63.096048 173.17585 C 63.013338 173.05428 62.944354 172.87422 62.986494 172.68131 C 63.017504 172.53882 63.116297 172.41704 63.212837 172.34954 C 63.309377 172.28204 63.405662 172.24852 63.504292 172.22242 C 63.701543 172.17022 63.925499 172.15037 64.209158 172.13457 C 64.776476 172.10297 65.573733 172.1029 66.631233 172.0586 C 70.357901 171.903 72.271587 171.43316 72.795197 171.29844 C 74.234766 170.92911 75.081963 170.56946 75.576423 170.27318 C 76.069503 169.97772 76.206677 169.77053 76.300926 169.60552 C 76.609397 169.06359 76.779241 168.20443 76.456989 167.60513 C 76.336261 167.38045 76.168742 167.19668 75.816718 167.01137 C 75.464696 166.82606 74.926862 166.65361 74.121215 166.51372 C 72.034373 166.1506 70.842684 166.4484 69.009899 166.5468 C 67.06203 166.65089 65.957939 166.43006 64.92591 166.23829 C 64.248641 166.11244 63.601642 165.9982 62.716743 165.98559 z " /></g><g
     id="g9232"
     transform="matrix(0.02762067,0,0,-0.02804462,47.688361,148.81053)"
     style="fill:#8763e0;fill-opacity:1"><path
       id="path9216"
       style="fill-opacity:1;fill-rule:nonzero;stroke:none;stroke-width:1.00715"
       d="m 2499.6318,4712.8932 -442.8719,-252.1094 c 55.6478,-37.0899 113.8519,-74.1582 176.3568,-111.7081 52.5133,-31.55 107.5613,-63.4595 164.4771,-95.8294 -14.1911,-7.85 -28.0537,-15.5995 -42.4982,-23.5395 -144.1609,-79.2699 -293.2003,-161.2184 -438.6292,-250.3683 -14.0894,-8.64 -27.7335,-17.2378 -41.4375,-25.8377 -49.8457,31.8199 -99.1634,64.248 -147.0818,98.058 -57.5446,40.5999 -112.8084,83.2876 -166.2449,127.4475 L 555.6764,3606.4673 V 1393.546 l 60.74198,-34.5432 c 1.96546,0.5978 3.54843,2.0533 5.51557,2.6465 170.25258,50.8669 345.12263,85.0288 522.21135,101.8884 65.4235,6.3206 123.8666,9.5031 176.9225,10.4465 45.0858,0.7402 101.9239,-2.096 159.4678,-7.2491 -282.1886,258.8869 -480.71442,584.0944 -480.71442,1033.2367 0,680.8393 455.79702,1080.0305 969.11382,1394.6802 143.2684,87.8199 291.026,169.0705 434.5986,248.0004 32.6522,17.96 64.572,35.588 96.0982,53.138 164.8641,91.7799 312.7302,178.5131 442.7306,265.0631 z m 937.859,-533.8172 c -125.872,-103.8099 -264.046,-197.5941 -407.1622,-284.424 -134.9402,-81.8699 -273.5554,-158.1707 -408.435,-232.3306 -41.6596,-22.9 -82.3974,-45.4731 -122.2618,-67.7631 -615.5036,-344.1797 -1011.4706,-623.6569 -1011.4706,-1094.5865 0,-397.8596 284.0425,-657.1367 744.4605,-934.4065 52.5945,-31.6699 107.6719,-63.5987 164.6893,-95.9687 -20.2771,-11.16 -40.1398,-22.2381 -60.8835,-33.5681 -22.3299,-12.1929 -45.3339,-25.0496 -67.8839,-37.3986 74.3092,7.8013 132.0939,13.8782 235.7275,18.0801 294.5601,163.4098 534.156,307.5137 708.8492,469.5635 h -1047.039 l 313.8925,537.0209 h 1027.1688 490.2492 c -10.5595,-203.4698 -63.3505,-380.401 -146.0918,-537.0209 -131.5583,-249.0084 -339.3824,-446.3465 -576.5185,-615.4393 25.5978,-22.6268 56.2016,-41.8115 75.1611,-74.1538 50.3681,-92.2547 34.4327,-204.65845 -1.8323,-296.21023 32.4881,-24.78903 64.3903,-50.11273 95.5325,-76.05067 l 999.8738,569.1265 v 2212.9213 z m -313.4682,-343.8995 c 49.6936,-32.11 98.8612,-64.8034 146.5869,-98.9634 359.5603,-257.3897 652.1919,-578.7636 715.6098,-1044.4432 h -499.3712 c -77.5376,296.4698 -338.7994,516.4258 -721.9739,749.0156 -52.2904,31.74 -106.9464,63.7477 -163.5579,96.1776 22.9347,12.72 45.4318,25.3043 68.9446,38.2343 128.1645,70.4699 273.4185,150.3497 412.1121,234.4896 13.8663,8.42 27.7832,16.9195 41.6496,25.4895 z M 2875.2563,591.32279 c -38.7428,-11.68654 -116.2761,-29.32159 -166.0328,-38.70976 -58.6201,-11.10394 -273.8774,-43.57516 -550.2842,-71.53586 l 340.6925,-193.95707 449.6604,255.93976 c -24.0101,16.07793 -48.9057,32.16378 -74.0359,48.26293 z" /><path
       id="path9224"
       style="fill-opacity:1;fill-rule:nonzero;stroke:none;stroke-width:0.99051"
       d="M 2499.9854,4953.3025 334.9122,3726.9505 V 1274.177 l 43.44719,-24.6123 c 49.07527,23.2665 83.73359,38.8697 117.98929,51.634 l -56.8528,32.1753 V 3667.6839 L 2499.9854,4834.8389 4560.4749,3667.6839 V 1333.374 L 2499.9854,166.21903 1990.7421,454.66567 c -27.8032,0.29161 -42.3197,-0.83837 -74.205,-3.18697 -54.4881,-2.24648 -78.0541,-2.68818 -122.5446,-3.8304 l 416.1426,-235.67351 c 74.0111,-30.87029 196.06,-80.72444 409.2911,-96.57579 l 2045.6324,1158.778 v 2452.7735 z" /></g></svg>
