<?xml version="1.0" encoding="UTF-8" standalone="no"?>
<svg
   xmlns:dc="http://purl.org/dc/elements/1.1/"
   xmlns:cc="http://creativecommons.org/ns#"
   xmlns:rdf="http://www.w3.org/1999/02/22-rdf-syntax-ns#"
   xmlns:svg="http://www.w3.org/2000/svg"
   xmlns="http://www.w3.org/2000/svg"
   xmlns:sodipodi="http://sodipodi.sourceforge.net/DTD/sodipodi-0.dtd"
   xmlns:inkscape="http://www.inkscape.org/namespaces/inkscape"
   width="200"
   height="200"
   version="1.1"
   viewBox="0 0 200 200"
   xml:space="preserve"
   id="svg83"
   sodipodi:docname="tx_contract_mrc.svg"
   inkscape:version="0.92.5 (2060ec1f9f, 2020-04-08)"><metadata
     id="metadata50"><rdf:RDF><cc:Work
         rdf:about=""><dc:format>image/svg+xml</dc:format><dc:type
           rdf:resource="http://purl.org/dc/dcmitype/StillImage" /><dc:title></dc:title></cc:Work></rdf:RDF></metadata><sodipodi:namedview
     id="namedview85"
     pagecolor="#ffffff"
     bordercolor="#666666"
     borderopacity="1.0"
     inkscape:pageshadow="2"
     inkscape:pageopacity="0.0"
     inkscape:pagecheckerboard="0"
     showgrid="false"
     inkscape:zoom="3.865"
     inkscape:cx="38.292367"
     inkscape:cy="69.210867"
     inkscape:window-width="3836"
     inkscape:window-height="1717"
     inkscape:window-x="0"
     inkscape:window-y="0"
     inkscape:window-maximized="1"
     inkscape:current-layer="svg83" /><defs
     id="defs63"><linearGradient
       id="linearGradient21590"
       inkscape:swatch="solid"><stop
         style="stop-color:#8763e0;stop-opacity:1;"
         offset="0"
         id="stop21588" /></linearGradient><linearGradient
       id="linearGradient20387"
       inkscape:swatch="solid"><stop
         style="stop-color:#8763e0;stop-opacity:1;"
         offset="0"
         id="stop20385" /></linearGradient><linearGradient
       id="linearGradient7940"
       inkscape:swatch="solid"><stop
         style="stop-color:#8763e0;stop-opacity:1;"
         offset="0"
         id="stop7938" /></linearGradient><linearGradient
       id="linearGradient7422"
       inkscape:swatch="solid"><stop
         style="stop-color:#000000;stop-opacity:1;"
         offset="0"
         id="stop7420" /></linearGradient><linearGradient
       id="linearGradient5820"
       inkscape:swatch="solid"><stop
         style="stop-color:#000000;stop-opacity:1;"
         offset="0"
         id="stop5818" /></linearGradient><linearGradient
       id="linearGradient5726"
       inkscape:swatch="solid"><stop
         style="stop-color:#000000;stop-opacity:1;"
         offset="0"
         id="stop5724" /></linearGradient><linearGradient
       id="linearGradient5676"
       inkscape:swatch="solid"><stop
         style="stop-color:#000000;stop-opacity:1;"
         offset="0"
         id="stop5674" /></linearGradient><linearGradient
       id="linearGradient5634"
       inkscape:swatch="solid"><stop
         style="stop-color:#000000;stop-opacity:1;"
         offset="0"
         id="stop5632" /></linearGradient><linearGradient
       id="linearGradient5502"
       inkscape:swatch="solid"><stop
         style="stop-color:#8763e0;stop-opacity:1;"
         offset="0"
         id="stop5500" /></linearGradient><linearGradient
       id="linearGradient5478"
       inkscape:swatch="solid"><stop
         style="stop-color:#8763e0;stop-opacity:1;"
         offset="0"
         id="stop5476" /></linearGradient><linearGradient
       id="linearGradient5428"
       inkscape:swatch="solid"><stop
         style="stop-color:#000000;stop-opacity:1;"
         offset="0"
         id="stop5426" /></linearGradient><linearGradient
       id="linearGradient5378"
       inkscape:swatch="solid"><stop
         style="stop-color:#8763e0;stop-opacity:1;"
         offset="0"
         id="stop5376" /></linearGradient><linearGradient
       id="linearGradient4911"
       inkscape:swatch="solid"><stop
         style="stop-color:#8763e0;stop-opacity:1;"
         offset="0"
         id="stop4909" /></linearGradient><linearGradient
       id="linearGradient4869"
       inkscape:swatch="solid"><stop
         style="stop-color:#8763e0;stop-opacity:1;"
         offset="0"
         id="stop4867" /></linearGradient><linearGradient
       id="linearGradient4777"
       inkscape:swatch="solid"><stop
         style="stop-color:#ffffff;stop-opacity:1;"
         offset="0"
         id="stop4775" /></linearGradient><linearGradient
       id="linearGradient3779"
       inkscape:swatch="solid"><stop
         style="stop-color:#8763e0;stop-opacity:1;"
         offset="0"
         id="stop3777" /></linearGradient><linearGradient
       id="linearGradient3112"
       inkscape:swatch="solid"><stop
         style="stop-color:#ffffff;stop-opacity:1;"
         offset="0"
         id="stop3110" /></linearGradient><linearGradient
       id="A"
       x1="250"
       y1="4.41"
       x2="250"
       y2="501"
       gradientUnits="userSpaceOnUse"
       inkscape:swatch="gradient"><stop
         offset="0"
         stop-color="#7f00f7"
         id="stop3701" /><stop
         offset=".54"
         stop-color="#41007f"
         id="stop3703" /></linearGradient><inkscape:path-effect
       effect="fill_between_many"
       method="originald"
       linkedpaths="#g3715-6,0,1"
       id="path-effect7416" /></defs><path
     d="M 4.032887,179.37477 3.6882655,115.11888 33.00793,114.95886 33.36076,179.21475 Z"
     stroke-miterlimit="10"
     id="path33"
     style="mix-blend-mode:normal;fill:#8763e0;fill-opacity:1;stroke:#ffffff;stroke-width:2.255;stroke-linecap:round;stroke-linejoin:round;stroke-miterlimit:10;stroke-dasharray:none"
     inkscape:connector-curvature="0" /><path
     inkscape:connector-curvature="0"
     style="fill:#8763e0;fill-opacity:1;stroke:#ffffff;stroke-width:0.61500001;stroke-miterlimit:4;stroke-dasharray:none;stroke-opacity:1"
     id="path39"
     d="m 152.67693,35.406392 a 91.869132,91.869132 0 0 1 -10.78064,7.640987 c -3.57475,2.196956 -7.25155,4.246188 -10.81556,6.239023 q -1.65174,0.921215 -3.23634,1.820944 c -16.2972,9.252448 -26.78241,16.748407 -26.78241,29.395649 0,10.686643 7.52013,17.648139 19.71348,25.095745 1.39123,0.8514 2.85228,1.70816 4.36168,2.57835 l -1.61146,0.89972 c -3.65532,2.02506 -7.4315,4.11727 -11.17276,6.41628 q -0.56133,0.34378 -1.11459,0.69024 c -1.31871,-0.85944 -2.62399,-1.735 -3.89167,-2.65085 -10.743042,-7.75109 -19.208562,-17.707213 -19.208562,-33.034851 0,-18.284661 12.067122,-29.006215 25.657072,-37.455622 3.79498,-2.36078 7.70545,-4.541618 11.50849,-6.660681 l 2.54073,-1.423454 c 4.36436,-2.465529 8.2802,-4.794086 11.72334,-7.119952 l -11.72334,-6.76812 -11.72603,6.770803 c 1.47448,0.996417 3.0161,1.992835 4.67053,2.999998 l 4.35362,2.575639 -1.12533,0.623101 c -3.81647,2.127119 -7.76185,4.329448 -11.61323,6.7144 l -1.09848,0.692926 c -1.31871,-0.854072 -2.62398,-1.726945 -3.89435,-2.634731 -1.52283,-1.090416 -2.98657,-2.237241 -4.39928,-3.421662 L 76.374468,50.787743 v 59.430517 l 26.476232,15.28735 a 89.36869,89.36869 0 0 1 10.87733,-7.72963 c 3.65263,-2.24528 7.41269,-4.32943 11.07071,-6.3545 q 1.55505,-0.86212 3.04565,-1.70009 c 7.7887,-4.39121 14.26676,-8.38226 18.89163,-12.733187 h -27.72241 l 8.31242,-14.425218 h 40.17361 a 34.624828,34.624828 0 0 1 -3.86481,14.425218 c -4.63025,8.887187 -12.82719,15.324947 -21.6714,20.787777 -3.76007,2.32588 -7.64368,4.47449 -11.41717,6.564 l -2.70187,1.50672 c -4.44225,2.49238 -8.41718,4.85317 -11.90061,7.21664 l 11.90061,6.87286 11.90597,-6.87555 a 114.56918,114.56918 0 0 0 -4.82093,-3.09936 q -2.0949,-1.27306 -4.37243,-2.57297 l 1.26499,-0.70635 c 3.78424,-2.09758 7.70008,-4.26499 11.52461,-6.62577 l 1.10922,-0.69562 c 1.31333,0.8514 2.61324,1.7162 3.87555,2.62131 1.56311,1.11996 3.06177,2.29901 4.50671,3.52372 L 179.3143,110.21826 V 50.787743 Z m 1.30796,39.945325 c -2.0546,-7.960596 -8.97044,-13.869277 -19.11724,-20.116356 l -4.33213,-2.583699 1.829,-1.025964 c 3.39212,-1.88003 7.23812,-4.028639 10.90956,-6.298103 q 0.55327,-0.338411 1.10385,-0.684871 c 1.31602,0.862128 2.61593,1.743057 3.88093,2.658905 9.51833,6.913141 17.26675,15.545179 18.94535,28.050088 z" /><path
     inkscape:connector-curvature="0"
     style="fill:#8763e0;fill-opacity:1;stroke:#ffffff;stroke-width:0.615;stroke-miterlimit:4;stroke-dasharray:none;stroke-opacity:1"
     id="path41"
     d="M 127.76334,147.43066 69.61393,113.85865 V 46.714628 l 58.14941,-33.572008 58.1494,33.572008 v 67.144022 z m -55.326676,-35.18347 55.326676,31.93907 55.3401,-31.93907 V 48.326085 L 127.77676,16.365534 72.436664,48.326085 Z" /><path
     d="m 182.04164,171.97169 c 6.40221,-2.21134 12.4126,-4.74474 14.75933,-9.11202 1.45029,-2.71596 0.9949,-5.20011 0.44923,-6.77757 l -1.54669,-3.38265 c -0.99285,-1.18567 -2.13134,-2.25031 -3.3806,-3.17344 -9.79305,-7.19399 -24.38417,-3.8216 -30.43354,-2.68311 -11.33155,2.13953 -22.43744,1.76208 -33.75875,0.98462 -7.98173,-0.5518 -15.56137,-2.73236 -22.68565,-5.87296 -1.63491,-0.72207 -9.382795,-3.42982 -8.966371,-5.32935 0.256405,-1.19388 4.326251,-0.88821 12.283391,-1.21644 14.00646,-0.58666 21.29894,-2.36518 23.30307,-2.87801 10.9131,-2.80419 13.10802,-5.48938 13.96547,-6.99505 1.33953,-2.35492 2.13133,-5.97757 0.59284,-8.83098 -1.14465,-2.14775 -3.5406,-3.72521 -9.7274,-4.80012 -8.0043,-1.39284 -12.67724,-0.25642 -19.39124,0.10466 -14.2793,0.76103 -15.60856,-3.18162 -29.615052,-1.80313 -4.744727,0.45746 -9.423813,1.3785 -13.975714,2.7652 -7.179657,2.19492 -13.967511,5.514 -20.105093,9.83205 -6.67503,1.7785 -13.573655,2.54773 -20.480483,2.27491 l 0.2318,43.73642 23.253883,3.66983 c 3.758036,0.98464 29.639676,7.7089 48.438079,10.09665 7.09146,0.90465 12.13156,1.05644 15.85882,1.04001 5.35192,-0.0308 10.70589,-0.43897 16.00244,-1.22463 11.4013,-1.71492 28.91761,-4.89652 44.92823,-10.42489 z"
     stroke-miterlimit="10"
     id="path31"
     style="mix-blend-mode:normal;fill:#8763e0;fill-opacity:1;stroke:#ffffff;stroke-width:2.83186102;stroke-linecap:round;stroke-linejoin:round;stroke-miterlimit:10;opacity:1;stroke-opacity:1;paint-order:normal"
     inkscape:connector-curvature="0" /></svg>