<?xml version="1.0" encoding="utf-8"?>
<!-- Generator: Adobe Illustrator 19.0.0, SVG Export Plug-In . SVG Version: 6.00 Build 0)  -->
<svg version="1.1" id="Layer_1" xmlns="http://www.w3.org/2000/svg" xmlns:xlink="http://www.w3.org/1999/xlink" x="0px" y="0px" viewBox="-289 -318 660 660"
	 enable-background="new -289 -318 660 660" xml:space="preserve">
	<g>
		<path id="XMLID_506_" fill="#0C8C3A" d="M118.3751373,79.5127716H41.000145v52.1527557
			c0.0005798-0.0005798,0.0017433-0.0005798,0.0023232-0.0011749
			C72.9455643,113.688591,99.4312744,97.3385239,118.3751373,79.5127716z"/>
		<path id="XMLID_351_" fill="#0DAC49" d="M-50.164402-40.6333122
			C-62.0850639-25.1699409-68.6873016-8.1959925-68.6873016,12.0008726c0,20.2160492,6.644104,37.1585999,18.6380272,52.5661507
			c13.9719772,17.9478607,35.2293854,33.8060303,62.095356,50.2177277
			c5.7033358,3.4839783,11.6811094,6.9987793,17.8647118,10.5606766c-2.1995831,1.227417-4.3590469,2.4414597-6.6092167,3.6874847
			c-14.9668207,8.2895813-30.4424019,16.8623047-45.7656441,26.2763824
			c-1.518137,0.9332123-3.0380192,1.8786316-4.5567379,2.8304443c-5.4068012-3.5205994-10.7542934-7.1109924-15.9465466-10.8612671
			c-21.6272011-15.6203613-40.9908638-33.446701-55.1105309-54.9820404
			c-14.5766754-22.2319031-23.5628128-48.4170036-23.5628128-80.2955627c0-31.8273888,8.9873047-58.0183105,23.5261841-80.3188171
			l-71.6902695-41.3903122v243.4159546l108.4401245,62.607605c13.7382393-11.5904083,28.8632126-22.0231628,44.5440369-31.6570282
			c14.9685659-9.1960449,30.3662338-17.7338867,45.3435211-26.0298615c4.2479916-2.3530884,8.4012127-4.6701202,12.4770985-6.962738
			V79.5129166H4.8315878l34.0415077-59.0724564H41v-8.4401674v-0.0005817L-50.164402-40.6333122z"/>
		<path id="XMLID_333_" fill="#0DAC49" d="M-7.7453752,227.27211l48.7455215,28.1428223v-57.7020111
			C22.8080807,207.9264832,6.5237188,217.591156-7.7453752,227.27211z"/>
		<path id="XMLID_201_" fill="#D50936" d="M41.0005798-231.4185638L41-231.417984l-48.025116,27.7276611
			c6.034174,4.0787964,12.3509274,8.161087,19.1281796,12.2910461c5.695776,3.4706116,11.6648293,6.9801788,17.8373852,10.5409088
			c-1.5384865,0.862854-3.043251,1.713501-4.6096478,2.5868225c-15.6331501,8.7192535-31.7988987,17.7350464-47.5692673,27.5410156
			c-1.527441,0.9494934-3.0095291,1.8943329-4.4962692,2.8397522c-5.4044743-3.4996796-10.7531338-7.0656433-15.9500332-10.7851105
			c-6.2400055-4.4654541-12.2299881-9.162323-18.0257721-14.0190735l-109.0942383,62.9849548v0.0017471l71.6902695,41.3903122
			c19.6724091-30.1737747,49.5595322-53.1912003,81.5683289-73.0938568
			c15.5366306-9.660614,31.5576-18.5967407,47.1262131-27.279953C34.1204147-170.665741,37.5811386-172.6106567,41-174.540451
			c0.0005798-0.0005798,0.0017433-0.0005798,0.002327-0.0011597c17.8786659-10.0955353,33.91185-19.6375275,48.0099945-29.1574249
			L41.0005798-231.4185638z"/>
		<path id="XMLID_200_" fill="#D50936" d="M142.7041473-172.6996155
			c-13.6492767,11.4188843-28.6347122,21.7370911-44.1539001,31.2878113
			c-14.6336517,9.0059052-29.6626892,17.4001389-44.2893677,25.5577316
			c-4.5172005,2.5199585-8.9361382,5.0003738-13.2585526,7.452301c-0.0005836,0.0005875-0.0017471,0.0005875-0.002327,0.0011673
			C0.2765948-85.3017807-31.5100937-64.832222-50.164402-40.6333122L41,11.9997091l91.0899811-52.5905762
			C118.094162-58.7538567,96.796051-74.8457642,69.7690201-91.4859619
			c-5.6707764-3.4915466-11.6043587-7.0139008-17.7431908-10.5816116c2.4868126-1.398941,4.9340897-2.7845078,7.4836998-4.206131
			c13.8987198-7.7517395,29.651062-16.5378647,44.6911469-25.7938004c1.5036011-0.9250641,3.007782-1.8629303,4.5125427-2.806015
			c5.3887787,3.5322418,10.7182465,7.1330872,15.8942184,10.8909302
			c21.8057098,15.8337479,41.3327484,33.8752136,55.5204468,55.6570816l71.6780548-41.3833389v-0.0011597L142.7041473-172.6996155z"
			/>
		<g id="XMLID_197_">
			<path id="XMLID_199_" fill="#0B772F" d="M89.7635422,227.2629547c-6.212677-4.2200775-12.7340927-8.4372559-19.7433395-12.697464
				c-5.7172928-3.4746704-11.7096024-6.9836578-17.9083214-10.5420685c1.728035-0.9628601,3.4206047-1.914093,5.1823654-2.8897552
				c15.5011635-8.5861053,31.5296898-17.4652557,47.1954002-27.1398163c1.496048-0.9239197,3.0229034-1.8844452,4.5497589-2.8461456
				c5.3800583,3.4828186,10.7031326,7.0330811,15.873291,10.7391663
				c6.3981552,4.5858154,12.5340805,9.4181519,18.4601059,14.4249268l108.4319763-62.6035309l0.0011597-0.0005798V-109.708847
				l-71.6780548,41.3833389c11.1816559,17.1658249,19.0508423,36.6521721,22.0818939,59.2294464h-54.1499939
				c-2.9391785-11.4002743-8.4477386-21.7324448-15.9698029-31.4948063L41,11.9997091v0.0005817v8.4401674h14.6191216h94.6448822
				h53.1580658c-1.1465912,22.3813305-6.8673706,41.8444214-15.8395538,59.0724564
				c-2.2943573,4.4055634-4.8230438,8.6500702-7.5244141,12.7724686
				c-19.6206512,29.9417801-49.3868408,52.7045441-81.2334137,72.372879
				c-15.416275,9.5210571-31.3075867,18.3252106-46.7523499,26.8799133
				c-3.7636528,2.0850525-7.4430008,4.1375275-11.070015,6.1737213c-0.0005836,0.0005798-0.0017471,0.0005798-0.002327,0.0011749
				v57.7019958l0.0005798,0.0005798L89.7635422,227.2629547z"/>
			<polygon id="XMLID_198_" fill="#0B772F" points="267.6524658,-118.8577881 267.6524658,142.8566284 267.6513062,142.8572083 
				41.0017433,273.717041 41,273.7158508 41,286.9988403 41.0017433,287 279.1550903,149.4989777 279.1574097,149.497818 
				279.1574097,-125.500145 			"/>
		</g>
		<polygon id="XMLID_89_" fill="#0DAC49" points="-185.6513062,142.8572083 -185.6524811,142.8566284 -185.6524811,-118.8577881 
			-197.1574097,-125.500145 -197.1574097,149.497818 -197.1556702,149.4989777 41,286.9988403 41,273.7158508 		"/>
		<polygon id="XMLID_33_" fill="#D50936" points="41.0017433,-263 41,-262.9988403 -197.1574097,-125.5018921 
			-197.1574097,-125.500145 -185.6524811,-118.8577881 -185.6524811,-118.8606949 41,-249.7158661 41.0017433,-249.7170258 
			267.6524658,-118.8606949 267.6524658,-118.8577881 279.1574097,-125.500145 279.1574097,-125.5018921 		"/>
	</g>
</svg>
