<svg enable-background="new -289 -318 660 660" height="550" viewBox="-289 -318 476.01123 550" width="476.01123" xmlns="http://www.w3.org/2000/svg"><g fill="#0dac49" transform="translate(-91.994385 -55)"><path d="m214.79037-75.540688c-6.42361 5.373879-13.47563 10.229561-20.77908 14.72427-6.88661 4.238282-13.9593 8.18845-20.84276 12.027577-2.12581 1.185783-4.20526 2.353061-6.23954 3.507-31.41161 17.816948-51.6203 32.283451-51.6203 56.662059 0 20.596005 14.49652 34.016945 37.99345 48.37024 2.68402 1.639621 5.49708 3.293918 8.4072 4.969894-1.03505.577713-2.05127 1.149101-3.11036 1.735489-7.04333 3.901154-14.32627 7.935356-21.53735 12.365707-.71461.439164-1.42972.884171-2.14465 1.332169-2.5443-1.656959-5.06093-3.346435-7.50436-5.111443-20.68453-14.939849-37.023918-34.127983-37.023918-63.662056 0-35.244575 23.261518-55.908271 49.457828-72.19664 7.31144-4.54623 14.85115-8.751827 22.17776-12.838054 1.66631-.929352 3.2956-1.844528 4.9047-2.753044 8.41371-4.750977 15.95907-9.241349 22.59376-13.721558l-22.59442-13.044792-22.60127 13.048797c2.83975 1.919732 5.81254 3.840798 9.00192 5.784371 2.68053 1.633285 5.48943 3.284912 8.3942 4.960548-.72394.405991-1.43204.806313-2.16916 1.217301-7.35697 4.103393-14.9647 8.346176-22.38636 12.961097-.71876.446839-1.4162.891343-2.11596 1.336342-2.54348-1.646957-5.06043-3.325096-7.50619-5.075599-2.93646-2.101464-5.75552-4.311806-8.48306-6.597512l-51.340038 29.641118v114.553085l51.032418 29.463547c6.46529-5.454575 13.583-10.364113 20.96264-14.898003 7.04402-4.327644 14.29043-8.345673 21.33862-12.249664 1.99959-1.107582 3.9545-2.197998 5.8729-3.277413 15.03256-8.459385 27.49696-16.153644 36.41203-24.542671h-53.43401l16.0201-27.799744h52.42094 25.01619c-.53937 10.532841-3.23156 19.692326-7.45418 27.799744-8.92338 17.132687-24.71907 29.539406-41.76971 40.069748-7.25476 4.480537-14.73344 8.623947-22.00171 12.649811-1.77118.981209-3.50284 1.947075-5.20965 2.905441-8.56142 4.806836-16.2255 9.355056-22.94089 13.911126l22.94023 13.24454 22.94789-13.24887c-2.92378-1.98593-5.99261-3.97052-9.29137-5.97545-2.69035-1.63512-5.51059-3.28658-8.4277-4.96105.81331-.45334 1.60977-.90085 2.43892-1.36002 7.29478-4.040703 14.83798-8.219124 22.2103-12.772027.7041-.434829 1.42269-.887001 2.14114-1.339508 2.53197 1.639122 5.03691 3.309761 7.47017 5.053925 3.01082 2.157989 5.89842 4.43219 8.68715 6.788246l51.02923-29.461708v-114.553085zm2.5203 76.9924633c-3.95668-15.3470063-17.28893-26.7330033-36.84386-38.7729183-2.66868-1.643124-5.46107-3.300755-8.35017-4.979729 1.17044-.658417 2.3222-1.310329 3.522-1.979588 6.54082-3.647888 13.95381-7.782627 21.03183-12.13845.70761-.435498 1.41554-.876835 2.12348-1.320668 2.53596 1.662297 5.04408 3.356942 7.47984 5.125451 18.34932 13.323734 33.28401 29.959398 36.52006 54.0659022z"/><path d="m-37.065376-220.50435c-6.423611 5.37389-13.475628 10.22957-20.779076 14.72427-6.886619 4.23829-13.959312 8.18845-20.842766 12.02758-2.125808 1.18579-4.205261 2.35307-6.23954 3.507-31.411612 17.81694-51.620302 32.28345-51.620302 56.66206 0 20.59601 14.49652 34.016942 37.993456 48.370237 2.684021 1.639625 5.497086 3.293922 8.407196 4.969894-1.035057.577721-2.051277 1.149101-3.110352 1.735496-7.04334 3.901146-14.32629 7.935349-21.53736 12.3657-.71461.439171-1.42971.884171-2.14465 1.332176-2.5443-1.656967-5.06092-3.346443-7.50435-5.111442-20.68454-14.939858-37.02392-34.127991-37.02392-63.662061 0-35.24458 23.26152-55.90827 49.45782-72.19664 7.31144-4.54623 14.851147-8.75183 22.177769-12.83805 1.666297-.92936 3.295585-1.84453 4.904693-2.75304 8.413704-4.75098 15.959076-9.24135 22.593765-13.72156l-22.594429-13.0448-22.601268 13.0488c2.83975 1.91974 5.81255 3.84081 9.001926 5.78438 2.680519 1.63328 5.489426 3.28491 8.394196 4.96054-.723946.40599-1.432045.80632-2.169159 1.2173-7.356964 4.10339-14.964693 8.34618-22.386353 12.9611-.71877.44684-1.41621.89133-2.11597 1.33634-2.54347-1.64696-5.06043-3.32509-7.50619-5.07559-2.93645-2.10147-5.75553-4.31182-8.48306-6.59752l-51.34003 29.64111v114.553094l51.03241 29.463539c6.46529-5.454574 13.58301-10.364109 20.96265-14.897998 7.04401-4.327649 14.290431-8.345677 21.33861-12.249661 1.999596-1.10759 3.954506-2.198006 5.872902-3.277412 15.032555-8.459389 27.496964-16.153649 36.412026-24.542672h-53.433998l16.020096-27.79974h52.420944 25.0161855c-.5393715 10.53283-3.2315625 19.69232-7.4541695 27.79974-8.923395 17.132683-24.719074 29.539406-41.769726 40.069744-7.25476 4.480538-14.733436 8.623948-22.001709 12.649811-1.771171.981209-3.50283 1.947075-5.209648 2.905442-8.561424 4.806827-16.225503 9.355056-22.940893 13.911125l22.94023 13.244539 22.947898-13.248873c-2.923782-1.985924-5.992614-3.970512-9.291366-5.975441-2.690361-1.635124-5.510597-3.286583-8.427712-4.961056.813309-.453338 1.60978-.90084 2.438927-1.360015 7.294777-4.040707 14.837982-8.219128 22.210285-12.772027.704102-.434833 1.422711-.887004 2.141152-1.339511 2.531963 1.639125 5.036914 3.309761 7.470173 5.053924 3.010814 2.157986 5.89841 4.432186 8.687141 6.78825l51.029247-29.461708v-114.553094zm2.52029 76.99246c-3.956673-15.347-17.28891-26.733-36.843853-38.77292-2.668678-1.64312-5.461075-3.30075-8.350174-4.97972 1.170441-.65841 2.322212-1.31033 3.522003-1.97958 6.540825-3.64789 13.953812-7.78264 21.031838-12.13846.707603-.4355 1.415539-.87683 2.123474-1.32066 2.535965 1.66229 5.044086 3.35693 7.479847 5.12544 18.349314 13.32375 33.283997 29.9594 36.5200614 54.0659z"/><path d="m-37.065376 70.663498c-6.423611 5.373878-13.475628 10.229561-20.779076 14.724266-6.886619 4.238281-13.959312 8.188454-20.842766 12.02758-2.125808 1.185784-4.205261 2.353058-6.23954 3.506996-31.411612 17.81695-51.620302 32.28346-51.620302 56.66206 0 20.596 14.49652 34.01695 37.993456 48.37024 2.684021 1.63963 5.497086 3.29393 8.407196 4.96989-1.035057.57773-2.051277 1.14911-3.110352 1.73549-7.04334 3.90115-14.32629 7.93536-21.53736 12.36571-.71461.43916-1.42971.88417-2.14465 1.33218-2.5443-1.65697-5.06092-3.34645-7.50435-5.11145-20.68454-14.93985-37.02392-34.12799-37.02392-63.66206 0-35.24457 23.26152-55.90827 49.45782-72.196636 7.31144-4.546226 14.851147-8.751831 22.177769-12.838051 1.666297-.929352 3.295585-1.844536 4.904693-2.753044 8.413704-4.750976 15.959076-9.241352 22.593765-13.721557l-22.594429-13.044796-22.601268 13.048797c2.83975 1.919731 5.81255 3.840794 9.001926 5.784367 2.680519 1.633289 5.489426 3.284919 8.394196 4.960556-.723946.40599-1.432045.806305-2.169159 1.217293-7.356964 4.103401-14.964693 8.346176-22.386353 12.961105-.71877.446831-1.41621.891334-2.11597 1.336342-2.54347-1.646965-5.06043-3.325104-7.50619-5.0756-2.93645-2.101471-5.75553-4.311806-8.48306-6.597511l-51.34003 29.641115v114.55308l51.03241 29.46355c6.46529-5.45457 13.58301-10.36412 20.96265-14.89801 7.04401-4.32764 14.290431-8.34567 21.33861-12.24966 1.999596-1.10758 3.954506-2.198 5.872902-3.27741 15.032555-8.45938 27.496964-16.15364 36.412026-24.54268h-53.433998l16.020096-27.79974h52.420944 25.0161855c-.5393715 10.53285-3.2315625 19.69234-7.4541695 27.79974-8.923395 17.13269-24.71907 29.53942-41.769726 40.06975-7.25476 4.48054-14.733436 8.62395-22.001709 12.64981-1.771171.98122-3.50283 1.94708-5.209648 2.90544-8.561424 4.80684-16.225503 9.35506-22.940893 13.91113l22.94023 13.24454 22.947898-13.24887c-2.923782-1.98593-5.992614-3.97052-9.291366-5.97545-2.690361-1.63511-5.510597-3.28657-8.427712-4.96104.813309-.45334 1.60978-.90085 2.438927-1.36002 7.294777-4.04071 14.837982-8.21913 22.210285-12.77203.704102-.43483 1.422711-.88701 2.141152-1.33951 2.531963 1.63913 5.036914 3.30975 7.470173 5.05393 3.010814 2.15798 5.89841 4.43219 8.687141 6.78825l51.029247-29.46172v-114.55308zm2.52029 76.992462c-3.956673-15.34702-17.28891-26.73301-36.843853-38.77292-2.668678-1.64313-5.461075-3.30076-8.350174-4.97973 1.170441-.65841 2.322212-1.31033 3.522003-1.97959 6.540825-3.647887 13.953812-7.782622 21.031838-12.138449.707603-.435501 1.415539-.876831 2.123474-1.320671 2.535965 1.6623 5.044086 3.356949 7.479847 5.12545 18.349316 13.32374 33.283997 29.9594 36.5200614 54.06591z"/><path d="m166.92883-118.03632-108.648557 62.726628-31.130371-17.973145v-125.010073l-112.076782-64.70709-112.07874 64.70709v129.416079l112.07874 64.7089843 109.490479-63.2157593 30.286499 17.485962v123.16571l-30.830139 17.799805-108.946839-62.900024-112.07874 64.707092v129.416081l112.07874 64.70898 112.076782-64.70898v-125.637761l31.661133-18.279602 108.117795 62.422123 112.07679-64.708988v-129.416077zm-358.5202 46.034001v-123.165101l106.66449-61.5816 106.662537 61.5816v123.165101l-106.662537 61.583496zm213.327027 291.167789-106.662537 61.58349-106.66449-61.58349v-123.165043l106.66449-61.581604 106.662537 61.581604zm251.855713-146.204166-106.66254 61.583496-106.664487-61.583496v-123.165039l106.664487-61.581605 106.66254 61.581605z"/></g></svg>