<?xml version="1.0" encoding="utf-8"?>
<!-- Generator: Adobe Illustrator 19.0.0, SVG Export Plug-In . SVG Version: 6.00 Build 0)  -->
<svg version="1.1" id="Layer_1" xmlns="http://www.w3.org/2000/svg" xmlns:xlink="http://www.w3.org/1999/xlink" x="0px" y="0px" viewBox="-289 -318 660 660"
	 enable-background="new -289 -318 660 660" xml:space="preserve">
	<g>
		<g id="PoR">
			<g>
				<path id="XMLID_31_" fill="#0DAC49" d="M214.7903748-75.5406876
					c-6.4236145,5.3738785-13.4756317,10.2295609-20.7790833,14.7242699
					c-6.8866119,4.2382812-13.9593048,8.1884499-20.8427582,12.0275764c-2.1258087,1.1857834-4.2052612,2.3530617-6.2395477,3.507
					c-31.4116058,17.8169479-51.6203003,32.2834511-51.6203003,56.6620598c0,20.5960045,14.496521,34.0169449,37.993454,48.3702393
					c2.684021,1.6396217,5.4970856,3.2939186,8.407196,4.9698944c-1.0350494,0.577713-2.0512695,1.1491013-3.1103516,1.7354889
					c-7.043335,3.9011536-14.3262787,7.9353561-21.5373535,12.3657074c-0.7146149,0.4391632-1.429718,0.8841705-2.1446533,1.3321686
					c-2.5442963-1.6569595-5.0609283-3.3464355-7.5043564-5.1114426
					c-20.6845322-14.9398499-37.0239182-34.1279831-37.0239182-63.662056c0-35.2445755,23.2615204-55.9082718,49.4578247-72.19664
					c7.3114471-4.5462303,14.8511505-8.7518272,22.1777649-12.8380547c1.6663055-0.9293518,3.2955933-1.8445282,4.9046936-2.7530441
					c8.4137115-4.7509766,15.9590759-9.2413483,22.5937653-13.7215576l-22.5944214-13.0447922l-22.6012726,13.0487976
					c2.8397522,1.9197311,5.8125458,3.8407974,9.0019226,5.7843704c2.6805267,1.6332855,5.4894257,3.2849121,8.3941956,4.9605484
					c-0.723938,0.4059906-1.4320374,0.8063126-2.1691589,1.2173004
					c-7.3569641,4.1033936-14.9646912,8.3461761-22.3863525,12.9610977
					c-0.7187653,0.4468384-1.4161987,0.8913422-2.1159668,1.3363419c-2.5434723-1.6469574-5.0604248-3.3250961-7.5061874-5.0755997
					c-2.9364548-2.1014633-5.7555237-4.3118057-8.4830627-6.5975113L67.7224121-45.8974075V68.6556778l51.0324173,29.4635468
					c6.4652939-5.4545746,13.5830002-10.3641129,20.9626389-14.8980026
					c7.0440216-4.3276443,14.2904358-8.3456726,21.338623-12.2496643c1.999588-1.1075821,3.9544983-2.197998,5.8728943-3.2774124
					c15.0325623-8.4593849,27.4969635-16.1536446,36.4120331-24.5426712h-53.4340057l16.0200958-27.7997437h52.4209442h25.0161896
					c-0.5393677,10.5328407-3.2315674,19.6923256-7.4541779,27.7997437
					c-8.9233856,17.1326866-24.7190704,29.5394058-41.7697144,40.0697479
					c-7.2547607,4.4805374-14.7334442,8.6239471-22.001709,12.6498108
					c-1.7711792,0.9812088-3.5028381,1.9470749-5.2096558,2.9054413
					c-8.5614166,4.8068314-16.2254944,9.3550568-22.9408875,13.9111252l22.9402313,13.2445374l22.9478912-13.2488708
					c-2.9237823-1.9859238-5.9926147-3.9705124-9.2913666-5.975441c-2.6903534-1.6351242-5.5105896-3.2865829-8.4277039-4.9610519
					c0.8133087-0.4533386,1.6097717-0.9008484,2.4389191-1.3600235c7.2947845-4.0407028,14.8379822-8.2191238,22.2102966-12.7720261
					c0.7041016-0.4348297,1.422699-0.887001,2.1411438-1.3395081c2.5319672,1.639122,5.036911,3.309761,7.4701691,5.0539246
					c3.0108185,2.1579895,5.8984222,4.4321899,8.687149,6.7882462l51.0292358-29.4617081V-45.8974075L214.7903748-75.5406876z
					 M217.3106689,1.4517753c-3.9566803-15.3470058-17.2889252-26.7330036-36.8438568-38.7729187
					c-2.6686859-1.6431236-5.4610748-3.3007545-8.350174-4.9797287c1.1704407-0.6584167,2.3222046-1.3103294,3.5220032-1.9795876
					c6.5408173-3.6478882,13.9538116-7.7826271,21.0318298-12.1384506c0.7076111-0.4354973,1.4155426-0.8768349,2.1234741-1.3206673
					c2.535965,1.6622963,5.0440826,3.3569412,7.4798431,5.1254501
					c18.3493195,13.3237343,33.2840118,29.9593983,36.5200653,54.0659027H217.3106689z"/>
				<path id="XMLID_22_" fill="#0DAC49" d="M-37.0653763-220.5043488
					c-6.4236107,5.3738861-13.4756279,10.2295685-20.7790756,14.7242737
					c-6.8866196,4.2382812-13.9593124,8.188446-20.8427658,12.0275726c-2.1258087,1.185791-4.2052612,2.3530731-6.2395401,3.5070038
					c-31.4116135,17.8169403-51.6203003,32.2834473-51.6203003,56.6620636c0,20.5960007,14.4965134,34.0169373,37.993454,48.3702316
					c2.684021,1.6396255,5.4970856,3.2939224,8.407196,4.9698944c-1.0350571,0.5777206-2.0512772,1.1491013-3.1103516,1.7354965
					c-7.0433426,3.9011459-14.3262863,7.9353485-21.5373611,12.3656998
					c-0.7146072,0.4391708-1.4297104,0.8841705-2.1446457,1.3321762c-2.5443039-1.6569672-5.0609283-3.3464432-7.5043564-5.1114426
					c-20.6845322-14.9398575-37.0239182-34.1279907-37.0239182-63.662056c0-35.2445831,23.2615204-55.9082794,49.4578171-72.19664
					c7.3114471-4.5462341,14.8511505-8.7518311,22.1777725-12.8380585c1.6662979-0.9293518,3.2955856-1.8445282,4.9046936-2.7530365
					c8.4137039-4.7509766,15.9590759-9.2413483,22.5937653-13.7215576l-22.594429-13.0447998l-22.601265,13.0487976
					c2.8397446,1.9197388,5.8125458,3.8408051,9.0019226,5.7843781c2.6805191,1.6332855,5.4894257,3.2849121,8.3941956,4.9605408
					c-0.7239456,0.4059906-1.432045,0.8063202-2.1691589,1.2173004
					c-7.3569641,4.1033936-14.9646912,8.3461761-22.3863525,12.9611053
					c-0.7187729,0.4468384-1.4162064,0.8913269-2.1159744,1.3363342c-2.5434647-1.6469574-5.0604248-3.3250885-7.5061874-5.075592
					c-2.9364471-2.1014709-5.7555237-4.3118134-8.4830627-6.5975189l-51.3400269,29.6411133v114.553093l51.0324097,29.4635391
					c6.4652939-5.4545746,13.5830078-10.364109,20.9626465-14.8979988
					c7.044014-4.3276482,14.2904358-8.3456764,21.3386154-12.2496605c1.9995956-1.1075897,3.9545059-2.1980057,5.8729019-3.2774124
					c15.0325546-8.4593887,27.4969635-16.1536484,36.4120255-24.5426712h-53.4339981l16.0200958-27.7997437h52.4209442h25.0161858
					c-0.5393715,10.5328369-3.2315626,19.6923218-7.4541693,27.7997437
					c-8.9233952,17.1326828-24.7190742,29.5394058-41.7697258,40.0697441
					c-7.2547607,4.4805374-14.7334366,8.6239471-22.001709,12.6498108
					c-1.7711716,0.9812088-3.5028305,1.9470749-5.2096481,2.9054413
					c-8.5614243,4.8068275-16.225502,9.3550568-22.9408951,13.9111252l22.9402313,13.2445393l22.9478989-13.2488728
					c-2.9237823-1.9859238-5.9926147-3.9705124-9.2913666-5.975441c-2.690361-1.6351242-5.5105972-3.2865829-8.4277115-4.9610558
					c0.8133087-0.4533386,1.6097794-0.9008408,2.4389267-1.3600159c7.2947769-4.0407066,14.8379822-8.2191277,22.2102852-12.7720261
					c0.7041016-0.4348335,1.4227104-0.8870049,2.1411514-1.3395119c2.5319633,1.6391258,5.0369148,3.309761,7.4701729,5.0539246
					c3.0108147,2.1579857,5.8984108,4.4321861,8.6871414,6.78825l51.0292473-29.4617081v-114.553093L-37.0653763-220.5043488z
					 M-34.5450859-143.5118866c-3.9566727-15.3470001-17.2889099-26.7330017-36.843853-38.7729187
					c-2.6686783-1.6431274-5.4610748-3.3007507-8.350174-4.9797211c1.1704407-0.6584167,2.3222122-1.3103333,3.5220032-1.9795837
					c6.5408249-3.6478882,13.9538116-7.7826385,21.0318375-12.1384583c0.7076035-0.4355011,1.4155388-0.8768311,2.1234741-1.3206635
					c2.535965,1.6622925,5.0440865,3.3569336,7.479847,5.1254425
					c18.3493137,13.3237457,33.2839966,29.9593964,36.5200615,54.0659027H-34.5450859z"/>
				<path id="XMLID_13_" fill="#0DAC49" d="M-37.0653763,70.6634979
					c-6.4236107,5.3738785-13.4756279,10.2295609-20.7790756,14.7242661
					c-6.8866196,4.2382812-13.9593124,8.1884537-20.8427658,12.0275803
					c-2.1258087,1.1857834-4.2052612,2.3530579-6.2395401,3.5069962
					c-31.4116135,17.8169479-51.6203003,32.2834549-51.6203003,56.662056c0,20.5960083,14.4965134,34.0169525,37.993454,48.3702393
					c2.684021,1.6396332,5.4970856,3.2939301,8.407196,4.9698944c-1.0350571,0.5777283-2.0512772,1.1491089-3.1103516,1.7354889
					c-7.0433426,3.9011536-14.3262863,7.9353638-21.5373611,12.3657074
					c-0.7146072,0.4391632-1.4297104,0.8841705-2.1446457,1.3321838c-2.5443039-1.6569672-5.0609283-3.3464508-7.5043564-5.1114502
					c-20.6845322-14.9398499-37.0239182-34.1279907-37.0239182-63.6620636
					c0-35.2445679,23.2615204-55.9082642,49.4578171-72.1966324c7.3114471-4.5462265,14.8511505-8.7518311,22.1777725-12.8380508
					c1.6662979-0.9293518,3.2955856-1.8445358,4.9046936-2.7530441c8.4137039-4.7509766,15.9590759-9.2413521,22.5937653-13.7215576
					l-22.594429-13.044796l-22.601265,13.0487976c2.8397446,1.9197311,5.8125458,3.8407936,9.0019226,5.7843666
					c2.6805191,1.6332893,5.4894257,3.2849197,8.3941956,4.960556c-0.7239456,0.4059906-1.432045,0.8063049-2.1691589,1.2172928
					c-7.3569641,4.1034012-14.9646912,8.3461761-22.3863525,12.9611053
					c-0.7187729,0.4468307-1.4162064,0.8913345-2.1159744,1.3363419c-2.5434647-1.646965-5.0604248-3.3251038-7.5061874-5.0755997
					c-2.9364471-2.1014709-5.7555237-4.3118057-8.4830627-6.5975113l-51.3400269,29.6411133v114.5530853l51.0324097,29.4635468
					c6.4652939-5.4545746,13.5830078-10.3641205,20.9626465-14.8980103
					c7.044014-4.3276367,14.2904358-8.3456726,21.3386154-12.2496643c1.9995956-1.1075745,3.9545059-2.197998,5.8729019-3.2774048
					c15.0325546-8.4593811,27.4969635-16.1536407,36.4120255-24.5426788h-53.4339981l16.0200958-27.7997437h52.4209442h25.0161858
					c-0.5393715,10.5328522-3.2315626,19.692337-7.4541693,27.7997437
					c-8.9233952,17.1326904-24.7190704,29.5394135-41.7697258,40.0697479
					c-7.2547607,4.480545-14.7334366,8.6239471-22.001709,12.6498108c-1.7711716,0.9812164-3.5028305,1.9470825-5.2096481,2.9054413
					c-8.5614243,4.806839-16.225502,9.3550568-22.9408951,13.9111328l22.9402313,13.2445374l22.9478989-13.2488708
					c-2.9237823-1.9859314-5.9926147-3.97052-9.2913666-5.9754486c-2.690361-1.6351166-5.5105972-3.2865753-8.4277115-4.9610443
					c0.8133087-0.4533386,1.6097794-0.9008484,2.4389267-1.3600159c7.2947769-4.0407104,14.8379822-8.2191315,22.2102852-12.7720337
					c0.7041016-0.4348297,1.4227104-0.8870087,2.1411514-1.3395081c2.5319633,1.6391296,5.0369148,3.3097534,7.4701729,5.0539246
					c3.0108147,2.1579895,5.8984108,4.4321899,8.6871414,6.7882538l51.0292473-29.4617157V100.306778L-37.0653763,70.6634979z
					 M-34.5450859,147.6559601c-3.9566727-15.3470154-17.2889099-26.7330093-36.843853-38.7729187
					c-2.6686783-1.6431274-5.4610748-3.3007584-8.350174-4.9797287c1.1704407-0.6584167,2.3222122-1.3103333,3.5220032-1.9795914
					c6.5408249-3.6478882,13.9538116-7.7826233,21.0318375-12.1384506c0.7076035-0.4355011,1.4155388-0.8768311,2.1234741-1.3206711
					c2.535965,1.6623001,5.0440865,3.3569489,7.479847,5.1254501c18.3493156,13.3237381,33.2839966,29.959404,36.5200615,54.0659103
					H-34.5450859z"/>
				<path fill="#0DAC49" d="M166.928833-118.0363159L58.2802734-55.3096924L27.1499023-73.2828369v-125.0100708L-84.9268799-263
					l-112.0787354,64.7070923v129.4160767L-84.9268799-4.1678467L24.5635986-67.383606l30.286499,17.4859619V73.2680664
					L24.0199585,91.0678711L-84.9268799,28.1678467L-197.0056152,92.874939v129.4160767L-84.9268799,287l112.0767822-64.7089844
					V96.6532593l31.6611328-18.2796021l108.1177979,62.4221191L279.0056152,76.086792V-53.3292847L166.928833-118.0363159z
					 M-191.5913696-72.0023193v-123.1651001l106.6644897-61.581604l106.6625366,61.581604v123.1651001L-84.9268799-10.4188232
					L-191.5913696-72.0023193z M21.7356567,219.1654663l-106.6625366,61.5834961l-106.6644897-61.5834961V96.0004272
					l106.6644897-61.581604l106.6625366,61.581604V219.1654663z M273.5913696,72.9613037L166.928833,134.5447998
					L60.2643433,72.9613037V-50.2037354l106.6644897-61.581604l106.6625366,61.581604V72.9613037z"/>
			</g>
		</g>
	</g>
</svg>
