<?xml version="1.0" encoding="UTF-8"?>
<!DOCTYPE svg PUBLIC "-//W3C//DTD SVG 1.1//EN" "http://www.w3.org/Graphics/SVG/1.1/DTD/svg11.dtd">
<svg version="1.2" width="168.03mm" height="194.03mm" viewBox="0 0 16803 19403" preserveAspectRatio="xMidYMid" fill-rule="evenodd" stroke-width="28.222" stroke-linejoin="round" xmlns="http://www.w3.org/2000/svg" xmlns:ooo="http://xml.openoffice.org/svg/export" xmlns:xlink="http://www.w3.org/1999/xlink" xmlns:presentation="http://sun.com/xmlns/staroffice/presentation" xmlns:smil="http://www.w3.org/2001/SMIL20/" xmlns:anim="urn:oasis:names:tc:opendocument:xmlns:animation:1.0" xml:space="preserve">
 <defs class="ClipPathGroup">
  <clipPath id="presentation_clip_path" clipPathUnits="userSpaceOnUse">
   <rect x="0" y="0" width="16803" height="19403"/>
  </clipPath>
  <clipPath id="presentation_clip_path_shrink" clipPathUnits="userSpaceOnUse">
   <rect x="16" y="19" width="16770" height="19365"/>
  </clipPath>
 </defs>
 <defs class="TextShapeIndex">
  <g ooo:slide="id1" ooo:id-list="id3 id4 id5 id6 id7 id8 id9 id10 id11 id12 id13"/>
 </defs>
 <defs class="EmbeddedBulletChars">
  <g id="bullet-char-template-57356" transform="scale(0.00048828125,-0.00048828125)">
   <path d="M 580,1141 L 1163,571 580,0 -4,571 580,1141 Z"/>
  </g>
  <g id="bullet-char-template-57354" transform="scale(0.00048828125,-0.00048828125)">
   <path d="M 8,1128 L 1137,1128 1137,0 8,0 8,1128 Z"/>
  </g>
  <g id="bullet-char-template-10146" transform="scale(0.00048828125,-0.00048828125)">
   <path d="M 174,0 L 602,739 174,1481 1456,739 174,0 Z M 1358,739 L 309,1346 659,739 1358,739 Z"/>
  </g>
  <g id="bullet-char-template-10132" transform="scale(0.00048828125,-0.00048828125)">
   <path d="M 2015,739 L 1276,0 717,0 1260,543 174,543 174,936 1260,936 717,1481 1274,1481 2015,739 Z"/>
  </g>
  <g id="bullet-char-template-10007" transform="scale(0.00048828125,-0.00048828125)">
   <path d="M 0,-2 C -7,14 -16,27 -25,37 L 356,567 C 262,823 215,952 215,954 215,979 228,992 255,992 264,992 276,990 289,987 310,991 331,999 354,1012 L 381,999 492,748 772,1049 836,1024 860,1049 C 881,1039 901,1025 922,1006 886,937 835,863 770,784 769,783 710,716 594,584 L 774,223 C 774,196 753,168 711,139 L 727,119 C 717,90 699,76 672,76 641,76 570,178 457,381 L 164,-76 C 142,-110 111,-127 72,-127 30,-127 9,-110 8,-76 1,-67 -2,-52 -2,-32 -2,-23 -1,-13 0,-2 Z"/>
  </g>
  <g id="bullet-char-template-10004" transform="scale(0.00048828125,-0.00048828125)">
   <path d="M 285,-33 C 182,-33 111,30 74,156 52,228 41,333 41,471 41,549 55,616 82,672 116,743 169,778 240,778 293,778 328,747 346,684 L 369,508 C 377,444 397,411 428,410 L 1163,1116 C 1174,1127 1196,1133 1229,1133 1271,1133 1292,1118 1292,1087 L 1292,965 C 1292,929 1282,901 1262,881 L 442,47 C 390,-6 338,-33 285,-33 Z"/>
  </g>
  <g id="bullet-char-template-9679" transform="scale(0.00048828125,-0.00048828125)">
   <path d="M 813,0 C 632,0 489,54 383,161 276,268 223,411 223,592 223,773 276,916 383,1023 489,1130 632,1184 813,1184 992,1184 1136,1130 1245,1023 1353,916 1407,772 1407,592 1407,412 1353,268 1245,161 1136,54 992,0 813,0 Z"/>
  </g>
  <g id="bullet-char-template-8226" transform="scale(0.00048828125,-0.00048828125)">
   <path d="M 346,457 C 273,457 209,483 155,535 101,586 74,649 74,723 74,796 101,859 155,911 209,963 273,989 346,989 419,989 480,963 531,910 582,859 608,796 608,723 608,648 583,586 532,535 482,483 420,457 346,457 Z"/>
  </g>
  <g id="bullet-char-template-8211" transform="scale(0.00048828125,-0.00048828125)">
   <path d="M -4,459 L 1135,459 1135,606 -4,606 -4,459 Z"/>
  </g>
  <g id="bullet-char-template-61548" transform="scale(0.00048828125,-0.00048828125)">
   <path d="M 173,740 C 173,903 231,1043 346,1159 462,1274 601,1332 765,1332 928,1332 1067,1274 1183,1159 1299,1043 1357,903 1357,740 1357,577 1299,437 1183,322 1067,206 928,148 765,148 601,148 462,206 346,322 231,437 173,577 173,740 Z"/>
  </g>
 </defs>
 <defs class="TextEmbeddedBitmaps"/>
 <g>
  <g id="id2" class="Master_Slide">
   <g id="bg-id2" class="Background"/>
   <g id="bo-id2" class="BackgroundObjects"/>
  </g>
 </g>
 <g class="SlideGroup">
  <g>
   <g id="container-id1">
    <g id="id1" class="Slide" clip-path="url(#presentation_clip_path)">
     <g class="Page">
      <g class="com.sun.star.drawing.ClosedBezierShape">
       <g id="id3">
        <rect class="BoundingBox" stroke="none" fill="none" x="8401" y="12082" width="2733" height="1843"/>
        <path fill="rgb(211,151,0)" stroke="none" d="M 11133,12083 L 8402,12083 8402,13924 C 9529,13289 10464,12712 11133,12083 Z"/>
       </g>
      </g>
      <g class="com.sun.star.drawing.ClosedBezierShape">
       <g id="id4">
        <rect class="BoundingBox" stroke="none" fill="none" x="965" y="5408" width="7439" height="10798"/>
        <path fill="rgb(255,187,0)" stroke="none" d="M 5186,7845 C 4766,8391 4533,8989 4533,9702 4533,10415 4767,11013 5190,11557 5683,12190 6433,12749 7381,13328 7582,13451 7793,13575 8011,13701 7934,13744 7858,13787 7778,13831 7250,14124 6704,14426 6164,14758 6110,14791 6056,14824 6003,14858 5812,14734 5623,14607 5440,14475 4677,13924 3994,13295 3496,12535 2981,11751 2664,10827 2664,9702 2664,8579 2981,7655 3494,6868 L 965,5408 965,13996 4791,16205 C 5276,15796 5809,15428 6363,15088 6891,14763 7434,14462 7963,14170 8112,14087 8259,14005 8403,13924 L 8403,12084 7127,12084 8328,10000 8403,10000 8403,9702 5186,7845 Z"/>
       </g>
      </g>
      <g class="com.sun.star.drawing.ClosedBezierShape">
       <g id="id5">
        <rect class="BoundingBox" stroke="none" fill="none" x="6682" y="16253" width="1722" height="2038"/>
        <path fill="rgb(255,187,0)" stroke="none" d="M 6682,17296 L 8403,18290 8403,16253 C 7760,16613 7186,16955 6682,17296 Z"/>
       </g>
      </g>
      <g class="com.sun.star.drawing.ClosedBezierShape">
       <g id="id6">
        <rect class="BoundingBox" stroke="none" fill="none" x="965" y="1114" width="9132" height="5756"/>
        <path fill="rgb(234,195,106)" stroke="none" d="M 8403,1114 L 6708,2092 C 6921,2236 7144,2380 7383,2526 7584,2648 7795,2772 8012,2898 7958,2928 7905,2958 7850,2989 7298,3297 6728,3615 6171,3961 6117,3994 6065,4028 6013,4061 5822,3938 5633,3812 5450,3681 5230,3523 5019,3357 4814,3186 L 965,5408 3494,6869 C 4188,5804 5243,4992 6372,4290 6920,3949 7486,3634 8035,3327 8160,3258 8282,3189 8403,3121 9033,2765 9599,2428 10096,2092 L 8403,1114 Z"/>
       </g>
      </g>
      <g class="com.sun.star.drawing.ClosedBezierShape">
       <g id="id7">
        <rect class="BoundingBox" stroke="none" fill="none" x="5186" y="3186" width="10655" height="6518"/>
        <path fill="rgb(234,195,106)" stroke="none" d="M 11991,3186 C 11509,3589 10980,3953 10433,4290 9917,4608 9386,4904 8870,5192 8711,5281 8555,5368 8402,5455 6966,6270 5844,6992 5186,7846 L 8402,9703 11616,7847 C 11122,7206 10371,6639 9417,6051 9217,5928 9008,5804 8791,5678 8879,5629 8965,5580 9055,5530 9546,5256 10102,4946 10632,4620 10685,4587 10738,4554 10791,4521 10981,4645 11170,4772 11352,4905 12121,5464 12810,6100 13311,6869 L 15840,5409 15840,5408 11991,3186 Z"/>
       </g>
      </g>
      <g class="com.sun.star.drawing.ClosedBezierShape">
       <g id="id8">
        <rect class="BoundingBox" stroke="none" fill="none" x="8402" y="5407" width="7440" height="12884"/>
        <path fill="rgb(211,151,0)" stroke="none" d="M 10123,17297 C 9903,17148 9673,16999 9426,16849 9224,16726 9013,16602 8794,16477 8855,16443 8915,16409 8977,16375 9524,16072 10089,15759 10642,15417 10695,15385 10749,15351 10803,15317 10992,15440 11180,15565 11363,15696 11588,15857 11805,16028 12014,16205 L 15840,13996 15840,5408 13311,6868 C 13705,7474 13983,8161 14090,8958 L 12179,8958 C 12076,8555 11881,8191 11616,7847 L 8402,9702 8402,10000 8918,10000 12257,10000 14133,10000 C 14092,10789 13890,11476 13574,12084 13493,12239 13404,12389 13308,12534 12616,13591 11566,14394 10442,15088 9898,15424 9338,15734 8793,16036 8660,16110 8530,16182 8402,16254 L 8402,18290 10123,17297 Z"/>
       </g>
      </g>
      <g class="com.sun.star.drawing.PolyPolygonShape">
       <g id="id9">
        <rect class="BoundingBox" stroke="none" fill="none" x="8402" y="4851" width="8404" height="14554"/>
        <path fill="rgb(211,151,0)" stroke="none" d="M 16399,14319 L 8402,18935 8402,18935 8402,19404 8402,19404 16805,14553 16805,14553 16805,4851 16399,5085 16399,14319 Z"/>
       </g>
      </g>
      <g class="com.sun.star.drawing.PolyPolygonShape">
       <g id="id10">
        <rect class="BoundingBox" stroke="none" fill="none" x="0" y="4851" width="8404" height="14554"/>
        <path fill="rgb(255,187,0)" stroke="none" d="M 406,5085 L 0,4851 0,14553 0,14553 8403,19404 8403,18935 406,14319 406,14319 406,5085 Z"/>
       </g>
      </g>
      <g class="com.sun.star.drawing.PolyPolygonShape">
       <g id="id11">
        <rect class="BoundingBox" stroke="none" fill="none" x="0" y="0" width="16805" height="5087"/>
        <path fill="rgb(234,195,106)" stroke="none" d="M 0,4852 L 0,4852 406,5086 406,5086 8402,469 8402,469 16398,5086 16398,5086 16804,4852 16804,4852 8402,0 8402,0 0,4852 Z"/>
       </g>
      </g>
      <g class="com.sun.star.drawing.CustomShape">
       <g id="id12">
        <rect class="BoundingBox" stroke="none" fill="none" x="0" y="15746" width="4067" height="3658"/>
        <path fill="rgb(255,255,255)" stroke="none" d="M 2033,19402 L 1,19402 1,15747 4065,15747 4065,19402 2033,19402 Z"/>
        <path fill="none" stroke="rgb(52,101,164)" d="M 2033,19402 L 1,19402 1,15747 4065,15747 4065,19402 2033,19402 Z"/>
       </g>
      </g>
      <g class="com.sun.star.drawing.CustomShape">
       <g id="id13">
        <rect class="BoundingBox" stroke="none" fill="none" x="254" y="15591" width="8132" height="7271"/>
        <path fill="rgb(0,69,134)" stroke="none" d="M 3150,18192 L 3091,18248 3036,18306 2984,18367 2936,18430 2892,18496 2852,18563 2815,18632 2783,18702 2754,18774 2730,18848 2710,18922 2695,18997 2684,19073 2677,19149 2675,19225 255,19225 261,19036 277,18848 304,18661 343,18475 392,18292 451,18111 521,17933 601,17758 691,17588 791,17421 901,17260 1020,17104 1147,16954 1284,16810 1428,16672 705,16033 3853,16016 3872,18831 3150,18192 Z M 255,15592 L 255,15592 Z M 8384,22860 L 8384,22860 Z"/>
        <path fill="none" stroke="rgb(52,101,164)" d="M 3150,18192 L 3091,18248 3036,18306 2984,18367 2936,18430 2892,18496 2852,18563 2815,18632 2783,18702 2754,18774 2730,18848 2710,18922 2695,18997 2684,19073 2677,19149 2675,19225 255,19225 261,19036 277,18848 304,18661 343,18475 392,18292 451,18111 521,17933 601,17758 691,17588 791,17421 901,17260 1020,17104 1147,16954 1284,16810 1428,16672 705,16033 3853,16016 3872,18831 3150,18192 Z"/>
        <path fill="none" stroke="rgb(52,101,164)" d="M 255,15592 L 255,15592 Z"/>
        <path fill="none" stroke="rgb(52,101,164)" d="M 8384,22860 L 8384,22860 Z"/>
       </g>
      </g>
     </g>
    </g>
   </g>
  </g>
 </g>
</svg>