<svg height="32" viewBox="0 0 32 32" width="32" xmlns="http://www.w3.org/2000/svg"><g fill="none" transform="translate(2)"><path d="m18.3582575 19.9280158h-4.5018179v3.0343423c.0000337-.0000337.0000989-.0000337.0001338-.0000582 1.8585074-1.0458624 3.3994941-1.9971389 4.5016841-3.0342841z" fill="#d39700"/><path d="m8.55232047 12.9376982c-.69356579.8996871-1.077696 1.8872622-1.077696 3.0623526 0 1.1762065.38656605 2.1619548 1.08439435 3.0583942.81291503 1.0442392 2.04970968 1.9668963 3.61282068 2.9217586.3318304.2027043.6796282.4072018 1.0394014.6144396-.1279757.0714129-.2536173.1420486-.3845362.2145443-.8707969.4823028-1.7711943.9810798-2.6627284 1.5288076-.088328.0542964-.17675751.1093026-.26511928.1646807-.31457757-.2048349-.62570438-.4137303-.9277991-.6319285-1.25830988-.9088209-2.384923-1.9459898-3.20643089-3.198955-.84809758-1.2934925-1.37092754-2.8169892-1.37092754-4.6717417 0-1.8517754.52289804-3.3756109 1.36879639-4.6730948l-4.17107013-2.40816365v14.16238255l6.30924357 3.6426246c.79931573-.6743512 1.67931416-1.2813475 2.59165298-1.8418636.8708984-.5350423 1.7667627-1.03179 2.6381686-1.5144646.2471558-.136907.4887978-.271716.7259402-.4051048v-3.034342h-2.104344l1.9805968-3.436943h.1237472v-.4910643-.0000338z" fill="#fb0"/><path d="m11.0203366 28.5249228 2.836103 1.6374004v-3.3572079c-1.0584474.5942435-2.0059012 1.1565522-2.836103 1.7198075z" fill="#fb0"/><path d="m13.8564649 1.8374656-.0000338.00003375-2.7941885 1.61324567c.3510792.23731142.7185994.47482647 1.1129123.71511505.3313906.2019264.6786809.40611957 1.0378114.61328931-.0895119.05020277-.1770618.09969455-.2681977.15050589-.9095651.5073024-1.8501177 1.03185746-2.7676664 1.60238662-.0888693.05524306-.1750999.11021556-.26160111.16522182-.31444218-.20361775-.62563689-.41109178-.92800198-.62749731-.36305483-.259808-.71156294-.53308044-1.04877219-.81565498l-6.34730117 3.66457891v.00011636l4.17107025 2.40816361c1.14457652-1.75556503 2.88346374-3.09476085 4.7457937-4.25273321.9039494-.56207244 1.8360785-1.08199273 2.7418887-1.58719767.205986-.11484975.4073372-.22800873.6062527-.34028742.0000338-.00003375.0000989-.00003375.0001338-.00005818 1.0402133-.58737687 1.9730531-1.1425472 2.7933088-1.69643229z" fill="#eac36a"/><path d="m19.7737635 5.25384029c-.7941399.66437178-1.6660195 1.264704-2.5689544 1.82038226-.8514124.52397963-1.7258291 1.0123712-2.5768359 1.4869952-.2628189.14661585-.5199208.29093061-.7714067.43358836-.000034.00003433-.0000989.00003433-.0001338.00005818-2.3693618 1.34393131-4.21876911 2.53488741-5.30411066 3.94282401l5.30410906 3.0622948 5.2997807-3.0598154c-.8143023-1.0567557-2.053465-1.9930122-3.6259468-2.96116913-.329936-.20314455-.6751627-.40808151-1.0323311-.61565719.1446873-.08139287.2870743-.16200785.4354153-.24472029.8086528-.45101033 1.7251527-.96220334 2.6002124-1.50073018.0874822-.05382226.1749981-.10838924.2625478-.16325935.313529.20551215.6236073.41501615.9247546.63365411 1.2686959.92123637 2.4048145 1.97092153 3.2302801 3.23823023l4.1703599-2.40775808v-.00005818z" fill="#eac36a"/><path d="m16.6935827 28.5243898c-.3614649-.2455313-.7408927-.4908945-1.1487034-.7387613-.3326425-.2021626-.681286-.406322-1.0419387-.6133568.1005402-.0560209.199017-.1113652.3015194-.1681309.9018859-.4995555 1.8344547-1.0161606 2.7459144-1.5790441.0870423-.0537553.1758778-.1096401.2647133-.1655936.3130211.2026362.6227276.4091974.9235369.6248239.372256.2668113.7292555.5479651 1.0740422.8392686l6.3087697-3.6423872.0000582-.0000337v-14.16241688l-4.1703599 2.40775808c.6505693.9987389 1.1084131 2.13249 1.2847651 3.4460769h-3.1505454c-.170997-.6632887-.491495-1.2644332-.9291427-1.8324251l-5.2997807 3.0598154v.0000338.4910643h.8505671 5.5066111 3.0928332c-.0667107 1.3021865-.3995561 2.4345845-.9215738 3.4369429-.1334901.2563237-.2806139.5032768-.4377845.7431255-1.1415651 1.742067-2.8734161 3.0664463-4.7263076 4.2107855-.8969469.5539526-1.8215323 1.0661941-2.7201367 1.5639226-.2189762.121312-.4330473.2407285-.6440736.3591983-.0000339.0000337-.0000989.0000337-.0001338.0000582l-.0000014 3.357241z" fill="#d39700"/><path d="m27.0434164 23.6135104-13.1868839 7.6136628-.0001014-.0000692v.7728285l.0001014.0000675 13.8561948-8.0000593.000135-.0000675v-15.99988193l-.6693784.38646458v15.22702085z" fill="#d39700"/><path d="m.66937775 8.38645585-.66937775-.38646458v15.99988193l.00010124.0000675 13.85632986 7.9999918v-.7728285l-13.18698528-7.6135936-.00006807-.0000337z" fill="#fb0"/><path d="m0 7.99989004v.00010123l.66937775.38646458v-.00016872l13.18705335-7.61339229.0001014-.00006749 13.1869514 7.61345978v.00016872l.6693784-.38646458v-.00010123l-13.8563298-7.99989004-.0001014.00006749z" fill="#eac36a"/></g></svg>