<svg enable-background="new -289 -318 660 660" height="550" viewBox="-289 -318 476.31482 550" width="476.31482" xmlns="http://www.w3.org/2000/svg"><g transform="translate(-91.84259 -55)"><path d="m118.37514 79.512772h-77.374995v52.152758c.00058-.00058.0017-.00058.0023-.001 31.943096-17.97576 58.428806-34.325826 77.372675-52.151578z" fill="#d39700"/><path d="m-50.164402-40.633312c-11.920662 15.463371-18.5229 32.4373195-18.5229 52.634185 0 20.216049 6.644104 37.158599 18.638028 52.56615 13.971977 17.947861 35.229385 33.806031 62.095356 50.217727 5.703335 3.48398 11.681109 6.99878 17.864711 10.56068-2.199583 1.22741-4.359047 2.44146-6.609216 3.68748-14.966821 8.28958-30.4424022 16.86231-45.765644 26.27638-1.518137.93322-3.03802 1.87864-4.556738 2.83045-5.406802-3.5206-10.754294-7.11099-15.946547-10.86127-21.627201-15.62036-40.990864-33.4467-55.110531-54.982039-14.576677-22.231903-23.562817-48.417003-23.562817-80.295562 0-31.827389 8.98731-58.018311 23.526188-80.318817l-71.690268-41.390312v243.41595l108.440124 62.60761c13.738239-11.59041 28.863212-22.02316 44.544036-31.65703 14.9685663-9.19604 30.366234-17.73389 45.343522-26.02986 4.247991-2.35309 8.401212-4.67012 12.477098-6.96274v-52.152753h-36.1684122l34.0415072-59.072457h2.126905v-8.440167-.000582z" fill="#fb0"/><path d="m-7.7453752 227.27211 48.7455212 28.14282v-57.70201c-18.192065 10.21356-34.4764272 19.87824-48.7455212 29.55919z" fill="#fb0"/><path d="m41.00058-231.41856-.00058.00058-48.025116 27.72766c6.034174 4.07879 12.3509274 8.16108 19.12818 12.29104 5.695776 3.47061 11.664829 6.98018 17.837385 10.54091-1.538487.86286-3.043251 1.7135-4.609648 2.58682-15.6331501 8.71926-31.7988987 17.73505-47.569267 27.54102-1.527441.94949-3.009529 1.89433-4.496269 2.83975-5.404475-3.49968-10.753134-7.06564-15.950034-10.78511-6.240005-4.46545-12.229988-9.16232-18.025772-14.01907l-109.094239 62.98495v.002l71.69027 41.390312c19.672409-30.173774 49.559533-53.191202 81.568329-73.093852 15.5366309-9.66062 31.5576-18.59675 47.126213-27.27996 3.540383-1.97398 7.001107-3.9189 10.419968-5.84869.00058-.00058.0017-.00058.0023-.001 17.878666-10.09554 33.91185-19.63753 48.009994-29.15743z" fill="#eac36a"/><path d="m142.70415-172.69962c-13.64928 11.41889-28.63471 21.7371-44.153903 31.28782-14.633652 9.0059-29.662689 17.40013-44.289368 25.55773-4.5172 2.51996-8.936138 5.00037-13.258552 7.4523-.000584.00059-.0017.00059-.0023.001-40.7234052 23.098819-72.510094 43.568378-91.164402 67.767288l91.164375 52.633191 91.08998-52.590576c-13.99582-18.16299-35.293929-34.254897-62.32096-50.895095-5.670776-3.491547-11.604359-7.013901-17.743191-10.581608 2.486813-1.39894 4.93409-2.78451 7.4837-4.20613 13.89872-7.75174 29.651062-16.53787 44.691151-25.7938 1.5036-.92507 3.00778-1.86294 4.51254-2.80602 5.38878 3.53224 10.71825 7.13309 15.89422 10.89093 21.80571 15.83375 41.33275 33.875214 55.52044 55.657082l71.67806-41.383342v-.001z" fill="#eac36a"/><path d="m89.763542 227.26295c-6.212677-4.22007-12.734093-8.43725-19.743339-12.69746-5.717293-3.47467-11.709603-6.98366-17.908322-10.54207 1.728035-.96286 3.420605-1.91409 5.182366-2.88975 15.501163-8.58611 31.52969-17.46526 47.195403-27.13982 1.49604-.92392 3.0229-1.88444 4.54976-2.84614 5.38005 3.48281 10.70313 7.03308 15.87329 10.73916 6.39815 4.58582 12.53408 9.41815 18.4601 14.42493l108.43198-62.60353.001-.00058v-243.41654l-71.67806 41.383342c11.18166 17.165825 19.05085 36.652172 22.0819 59.2294463h-54.15c-2.93901-11.4002743-8.44757-21.7324453-15.96964-31.4948063l-91.08998 52.590577v.000582 8.440167h14.619122 94.644878 53.15807c-1.14659 22.381331-6.86737 41.844422-15.83955 59.072457-2.29436 4.405563-4.82305 8.65007-7.52442 12.772468-19.62065 29.941777-49.38684 52.704547-81.233412 72.372877-15.416275 9.52106-31.307587 18.32521-46.75235 26.87992-3.763653 2.08505-7.443001 4.13752-11.070015 6.17372-.000583.00058-.0017.00058-.0023.001v57.702l.00058.00058z" fill="#d39700"/><path d="m267.65131 142.85721-226.649567 130.85983-.001743-.00119v13.28299l.001743.00116 238.153347-137.50102.00232-.00116v-274.99797l-11.50494 6.64236v261.71442z" fill="#d39700"/><path d="m-185.65248-118.85779-11.50493-6.64236v274.99797l.00174.00116 238.15567 137.49986v-13.28299l-226.65131-130.85864-.00117-.00058z" fill="#fb0"/><path d="m-197.15741-125.50189v.00174l11.50493 6.64236v-.0029l226.65248-130.85518.001743-.00116 226.650727 130.85634v.0029l11.50494-6.64236v-.00174l-238.155667-137.49811-.001743.00116z" fill="#eac36a"/></g></svg>