<?xml version="1.0" encoding="utf-8"?>
<!-- Generator: Adobe Illustrator 19.0.0, SVG Export Plug-In . SVG Version: 6.00 Build 0)  -->
<svg version="1.1" id="Layer_1" xmlns="http://www.w3.org/2000/svg" xmlns:xlink="http://www.w3.org/1999/xlink" x="0px" y="0px" viewBox="-289 -318 660 660"
	 enable-background="new -289 -318 660 660" xml:space="preserve">
	<g>
		<g id="XMLID_1_">
			<path id="XMLID_23_" fill="#FF0936" d="M-37.1000061-75.9999924C-43.7000046-70.5-50.3000031-64.9999847-58.0000076-60.5999832
				c-6.5999985,4.4000053-14.3000031,7.7000046-20.9000015,12.0999908
				c-2.1999893,1.1000061-4.4000015,2.1999931-6.5999985,3.2999992C-117.4000092-27.5999908-137.2000122-13.2999878-137.2000122,12
				c0,20.9000015,14.3000107,34.0999985,38.5000076,48.4000015c2.1999969,1.1000061,5.4999924,3.3000183,8.7999954,5.4999924
				c-1.1000061-1.1000061-2.1999969,0-3.3000031,1.1000061c-6.5999985,4.3999863-14.3000031,7.7000046-22.0000076,12.0999908
				c-1.1000061,0-1.1000061,1.1000061-2.1999893,1.1000061c-2.1999969-2.2000122-4.4000092-3.3000183-6.5999985-5.4999924
				c-20.9000015-15.4000092-37.4000015-34.0999985-37.4000015-63.8000107c0-35.2000046,23.0999908-56.1000061,49.4999924-72.6000061
				C-104.2000122-66.1000137-96.5000076-70.5-89.9000092-74.9000092c2.1999893-1.1000061,3.2999954-2.1999893,4.4000015-3.2999954
				c8.7999954-4.4000015,16.5-8.7999954,23.0999985-13.1999969l-23.0999985-13.1999969l-23.0999908,13.1999969
				c3.2999954,2.1999893,5.4999924,3.2999954,8.7999878,5.4999924c2.1999969,1.1000061,5.4999924,3.3000031,8.7999954,5.4999924
				c-1.1000061,0-1.1000061,1.1000061-2.1999969,1.1000061c-7.7000046,4.4000015-15.3999863,8.7999954-22.0000076,13.1999969
				c-1.1000061,0-1.1000061,1.1000061-2.1999893,1.1000061c-2.1999969,0-4.4000092-2.1999893-6.5999985-4.4000015
				c-3.3000031-2.1999969-5.5000076-4.4000092-8.8000107-6.6000061l-51.6999969,29.6999969V69.1999741l50.6000061,29.7000122
				c6.5999985-5.4999924,13.1999969-9.9000168,20.9000015-15.4000092
				c6.5999985-4.3999863,14.3000031-8.8000107,20.9000015-12.0999908c2.1999969-1.1000061,4.4000092-2.2000122,5.4999924-3.3000183
				c15.3999939-8.8000107,27.5-16.5000153,36.2999954-24.2000198H-102l16.4999924-27.5h52.8000107h25.300005
				c0,10.9999847-3.2999992,19.7999954-7.7000046,27.5c-9.8999977,16.5000153-25.300005,28.6000061-42.8999863,39.5999908
				c-7.7000046,4.3999863-14.3000031,8.8000107-22.0000076,12.0999908
				c-2.1999969,1.1000061-3.3000031,2.2000122-5.4999924,3.3000183c-8.7999954,4.3999863-16.5,9.9000168-23.0999985,14.3000031
				l23.0999985,13.1999969l23.0999908-13.1999969c-2.1999893-2.2000122-5.4999924-4.3999863-8.7999878-6.5999985
				c-2.1999969-1.1000061-5.4999924-3.3000183-8.7999954-5.4999924c1.1000061,0,1.1000061-1.1000061,2.1999969-1.1000061
				c7.7000046-4.3999863,14.3000031-7.7000046,22.0000076-13.1999969c1.1000061,0,1.1000061-1.1000061,2.1999893-1.1000061
				c2.1999969,1.1000061,5.4999924,3.3000183,7.7000046,5.4999924c3.3000031,2.2000122,5.4999924,4.3999863,8.7999954,6.5999985
				l50.5999908-29.7000122V-46.2999992L-37.1000061-75.9999924z M-34.9000092,0.9999962
				c-4.4000092-15.3999901-17.6000061-26.3999939-36.3000107-38.5000038
				C-73.4000168-38.6000137-76.7000122-40.8000069-80.0000153-43c1.1000061-1.1000061,2.1999969-1.1000061,3.3000031-2.1999931
				c6.5999985-3.2999992,14.3000031-7.7000046,20.9000015-12.1000099c1.1000061,0,1.1000061-1.1000061,2.1999893-1.1000061
				c3.3000031,2.1999931,5.4999924,4.4000053,7.7000046,5.4999924
				C-27.2000065-39.7000198-12.9000225-23.2000237-9.6000233,0.9999771L-34.9000092,0.9999962L-34.9000092,0.9999962z"/>
			<path id="XMLID_17_" fill="#FF0936" d="M214.8000031,70.3000183
				c-6.6000061,5.4999924-13.1999969,9.9000168-20.9000092,14.3000031
				C187.3000031,89.0000076,179.5999908,92.3000259,173,96.7000122c-2.2000122,1.1000061-4.3999939,2.2000122-6.6000061,3.3000183
				c-30.8000183,18.6999893-51.6999741,33-51.6999741,57.2000122c0,20.8999939,14.2999954,34.1000061,38.4999771,48.3999939
				c2.2000122,1.1000061,5.5,3.3000183,8.8000183,5.5c-1.1000061,1.1000061-2.2000122,1.1000061-3.3000183,2.2000122
				c-6.6000061,4.3999939-14.3000031,7.7000122-22.0000153,12.0999908c-1.1000061,0-1.1000061,1.1000061-2.2000122,1.1000061
				c-2.2000122-2.2000122-5.4999847-3.3000183-7.6999969-5.4999847
				c-20.9000015-15.4000244-37.4000168-34.1000061-37.4000168-63.8000183c1.1000061-35.2000046,24.1999817-55,50.6000137-71.5000153
				c7.6999969-4.3999863,15.4000092-8.8000107,22-13.1999969c2.2000122-1.1000061,3.3000183-2.2000122,4.3999939-3.3000183
				c8.8000031-4.3999863,16.5000153-8.8000107,23.1000061-13.1999969l-23.1000061-13.1999969l-22.0000153,13.1999969
				c3.3000183,2.2000122,5.5,3.3000183,8.8000183,5.4999924c2.2000122,2.2000122,5.4999847,3.3000183,8.8000031,5.4999924
				c-1.1000061,0-1.1000061,1.1000061-2.2000122,1.1000061c-7.6999969,4.3999863-15.4000092,8.8000107-22,13.1999969
				c-1.1000061,0-1.1000061,1.1000061-2.2000122,1.1000061c-3.3000183-2.2000122-5.5-3.3000183-7.7000046-5.4999924
				c-3.3000183-2.2000122-6.5999985-4.3999863-8.8000107-6.5999985L67.39991,100.0000305v114.3999939l50.6000137,29.7000122
				c6.5999985-5.5,13.1999969-9.9000244,20.8999939-15.4000244c6.6000061-4.3999786,14.3000031-8.8000031,20.9000092-12.0999756
				c2.2000122-1.1000061,4.3999786-2.2000122,5.4999847-3.3000183c15.4000092-8.8000183,27.5-16.5000305,36.3000183-24.2000275
				h-51.7000275l16.5000153-27.5h52.7999878h25.2999878c0,10.9999847-3.3000183,19.8000031-7.6999969,27.5
				c-8.8000183,17.5999908-24.2000275,29.7000122-41.8000031,39.5999908
				c-7.7000122,4.3999939-14.3000031,8.8000183-22.0000153,12.0999908
				c-2.2000122,1.1000061-3.3000183,2.2000122-5.4999847,3.3000183
				c-8.8000183,4.3999786-16.5000153,9.9000092-23.1000214,14.3000031l23.1000214,13.1999817l23.1000061-13.1999817
				c-3.3000183-2.2000122-5.4999847-4.3999939-8.8000031-5.5c-2.2000122-1.1000061-5.5-3.3000183-8.8000183-5.4999847
				c1.1000061,0,1.1000061-1.1000061,2.2000122-1.1000061c7.7000122-4.3999786,14.3000031-7.6999969,22.0000153-13.1999969
				c1.1000061,0,1.1000061-1.1000061,2.2000122-1.1000061c2.2000122,1.1000061,5.4999847,3.3000183,7.6999969,5.5
				c3.3000183,2.2000122,5.5,4.3999786,8.8000183,6.5999908l50.6000061-29.7000122V99.9999924L214.8000031,70.3000183z
				 M216.9999695,147.2999878c-4.3999786-15.4000092-17.5999756-26.3999939-36.3000031-38.4999847
				c-2.2000122-1.1000061-5.5-3.3000183-8.8000183-5.4999924c1.1000061-1.1000061,2.2000122-1.1000061,3.3000183-2.2000122
				c6.6000061-3.3000183,14.3000031-7.7000046,20.9000092-12.0999908c1.1000061,0,2.2000122,0,2.2000122,0
				C200.5,91.2000198,203.7999725,92.3000259,205.9999847,94.5c18.6999969,13.1999969,33,29.7000122,36.3000183,53.8999939
				h-25.3000336V147.2999878L216.9999695,147.2999878z"/>
			<path id="XMLID_11_" fill="#FF0936" d="M214.8000031-220.1000061c-6.6000061,5.5-13.1999969,9.9000092-20.9000092,14.3000031
				c-6.5999908,4.4000092-14.3000031,7.6999969-20.8999939,12.1000061
				c-2.2000122,1.0999908-4.3999939,2.1999969-6.6000061,3.3000031
				C134.5000153-172.7999878,114.7000198-158.5,114.7000198-133.2000122c0,20.9000092,14.2999954,34.1000061,38.4999771,48.4000092
				c2.2000122,1.1000061,5.5,3.3000031,8.8000183,5.4999924c-1.1000061,1.1000061-2.2000122,1.1000061-3.3000183,2.1999893
				c-6.6000061,4.4000092-14.3000031,7.7000122-22.0000153,12.1000137c0-1.1000061-1.1000061,0-2.2000122,0
				c-2.2000122-1.1000061-4.3999786-3.2999954-7.6999969-4.4000015
				c-19.7999954-15.3999939-36.3000107-35.2000122-36.3000107-63.8000031c0-35.1999969,23.1000137-56.1000061,49.5000076-72.5999908
				c7.6999969-4.3999939,15.4000092-8.8000031,22-13.1999969c2.2000122-1.1000061,3.3000183-2.2000122,4.3999939-3.3000031
				c8.8000031-4.3999939,16.5000153-8.8000031,23.1000061-13.1999969l-23.1000061-13.1999969L143.299942-235.5
				c3.3000183,2.1999969,5.5,3.3000031,8.8000183,5.5c2.2000122,1.1000061,5.4999847,3.3000031,8.8000031,5.5
				c-1.1000061,0-1.1000061,1.1000061-2.2000122,1.1000061c-7.6999969,4.3999939-15.4000092,8.7999878-22,13.1999969
				c-1.1000061,0-1.1000061,1.0999908-2.2000122,1.0999908c-2.2000122-1.0999908-5.5-3.3000031-7.7000046-5.5
				c-3.3000183-2.2000122-5.4999924-4.3999939-8.8000107-6.6000061L66.2999039-191.5v115.5000076l50.6000137,29.6999931
				c7.7000046-5.4999924,15.4000092-11.0000038,23.1000061-15.3999901
				c6.6000061-4.4000015,14.3000031-8.7999954,20.9000092-12.0999908c2.2000122-1.1000061,4.3999786-2.1999893,5.4999847-3.2999954
				c15.4000092-8.7999954,27.5-16.5,36.3000183-24.2000046h-52.7999878l16.5000153-27.5000076h52.7999878h25.2999878
				c0,11.0000153-3.3000183,19.8000031-7.7000122,27.5000076c-8.8000031,17.5999985-24.1999817,29.6999893-41.8000031,39.5999908
				c-7.6999969,4.4000053-14.3000031,8.7999916-22,12.0999908c-2.2000122,1.1000061-3.3000183,2.1999931-5.5,3.2999992
				c-8.8000031,4.4000053-16.5000153,9.8999977-24.1999817,14.3000031l23.1000214,13.1999969l23.1000061-13.1999969
				c-3.3000183-2.1999931-5.4999847-4.4000053-8.8000031-5.4999924c-2.2000122-1.1000061-5.5-3.2999992-8.8000183-5.4999924
				c1.1000061,0,1.1000061-1.1000061,2.2000122-1.1000061c7.7000122-4.4000053,14.3000031-7.7000046,22.0000153-13.1999969
				c1.1000061,0,1.1000061-1.1000061,2.2000122-1.1000061c3.3000183,1.1000061,5.4999847,3.2999992,7.6999969,4.4000053
				c3.3000183,2.1999931,5.5,4.4000053,8.8000183,6.5999985l51.7000275-28.6000061v-114.4000015L214.8000031-220.1000061z
				 M216.9999695-143.1000061c-4.3999786-15.3999939-17.5999756-26.3999939-36.3000031-38.5
				c-2.2000122-1.0999908-5.5-3.3000031-8.8000183-5.5c1.1000061-1.1000061,2.2000122-1.1000061,3.3000183-2.2000122
				c6.6000061-3.2999878,14.3000031-7.6999969,20.9000092-12.0999908c1.1000061,0,1.1000061-1.0999908,2.2000122-1.0999908
				c2.2000122,2.1999969,5.4999847,3.2999878,7.6999969,5.5c18.6999969,13.1999969,33,29.6999969,36.3000183,53.8999939H216.9999695
				z"/>
			<path id="XMLID_6_" fill="#FF0936" d="M27.7999935-50.4600029l29.1899891-17.329998L166.3999939-4.4999962
				l112.2000122-64.8999939v-128.7000122L166.3999939-263L54.1999893-199.1999969v126.2600021L24.0699825-55.0499992
				l-108.4700012-62.7499962l-112.1999893,64.8999939V75.8000107l112.1999893,64.9000168L23.1599865,78.4800262
				l31.0400028,17.4599838v126.1599655L166.3999939,287l112.2000122-64.8999786V92.2999878L166.3999939,27.4000092
				L56.9099884,90.730011L27.7999935,74.3500061V-50.4600029z M59.6999817-194.8000031l106.7000122-61.5999908
				l106.6999817,61.5999908v123.1999969L166.3999939-10.0000076L59.7000198-71.6000061
				C59.7000198-71.6000061,59.7000198-194.8000031,59.6999817-194.8000031z M-191.1000061,72.4999924V-50.7000046
				l106.6999893-61.5999985L22.2999821-50.7000046V72.4999924l-106.6999969,61.5999985L-191.1000061,72.4999924z
				 M166.3999939,34.0000076l106.6999817,61.5999985v123.1999969l-106.6999817,61.5999908L59.7000198,218.8000031V95.6000061
				L166.3999939,34.0000076z"/>
		</g>
	</g>
</svg>
