<svg enable-background="new -289 -318 660 660" height="550" viewBox="-289 -318 475.20001 550" width="475.20001" xmlns="http://www.w3.org/2000/svg"><g fill="#ff0936" transform="translate(-92.399992 -55)"><path d="m-37.100006-75.999992c-6.599999 5.499992-13.199997 11.000007-20.900002 15.400009-6.599998 4.400005-14.300003 7.700004-20.900001 12.099991-2.199989 1.100006-4.400002 2.199993-6.599999 3.299999-31.900002 17.600002-51.700002 31.900005-51.700002 57.199993 0 20.900002 14.30001 34.099998 38.500005 48.400002 2.199997 1.100006 5.499993 3.300018 8.799996 5.499992-1.100006-1.100006-2.199997 0-3.300003 1.100006-6.599999 4.399986-14.300008 7.700005-22.000008 12.099991-1.10001 0-1.10001 1.100006-2.19999 1.100006-2.2-2.200012-4.40001-3.300018-6.6-5.499992-20.9-15.40001-37.4-34.099999-37.4-63.800011 0-35.200005 23.09999-56.100006 49.49999-72.600006 7.70001-4.400002 15.400012-8.799988 22.000011-13.199997 2.199989-1.100006 3.299995-2.199989 4.400001-3.299996 8.799996-4.400001 16.5-8.799995 23.099999-13.199997l-23.099999-13.199998-23.099992 13.199998c3.3 2.19999 5.49999 3.299996 8.799989 5.499993 2.199997 1.100006 5.499993 3.300003 8.799996 5.499992-1.100006 0-1.100006 1.100006-2.199997 1.100006-7.700008 4.400002-15.399988 8.799996-22.000008 13.199997-1.10001 0-1.10001 1.100006-2.19999 1.100006-2.2 0-4.40001-2.199989-6.6-4.400001-3.3-2.199997-5.50001-4.400009-8.80001-6.600006l-51.7 29.699997v115.499992l50.60001 29.700012c6.6-5.499992 13.2-9.900016 20.9-15.400009 6.6-4.399986 14.300005-8.800011 20.900004-12.099991 2.199997-1.100006 4.400009-2.200012 5.499992-3.300018 15.399994-8.800011 27.5-16.500015 36.299996-24.20002h-51.699982l16.499992-27.5h52.800011 25.3000051c0 10.999985-3.2999991 19.799996-7.7000051 27.5-9.899997 16.500016-25.300005 28.600006-42.899986 39.599991-7.700004 4.399986-14.300003 8.800011-22.000007 12.099991-2.199997 1.100006-3.300003 2.200012-5.499993 3.300018-8.799995 4.399982-16.499997 9.900012-23.099997 14.300002l23.099997 13.2 23.099991-13.2c-2.199989-2.20001-5.499992-4.39999-8.799988-6.6-2.199997-1.1-5.499992-3.30002-8.799995-5.49999 1.100006 0 1.100006-1.100006 2.199997-1.100006 7.700004-4.399986 14.300003-7.700004 22.000007-13.199997 1.100006 0 1.100006-1.100006 2.19999-1.100006 2.199997 1.100006 5.499992 3.300019 7.700004 5.499993 3.300003 2.200012 5.499993 4.399986 8.799996 6.599998l50.59999-29.700012v-114.399929zm2.199997 76.9999882c-4.400009-15.3999902-17.600006-26.3999942-36.300011-38.5000042-2.199997-1.100006-5.499992-3.299999-8.799995-5.499992 1.100006-1.100006 2.199997-1.100006 3.300003-2.199993 6.599998-3.299999 14.300003-7.700005 20.900001-12.10001 1.100006 0 1.100006-1.100006 2.19999-1.100006 3.300003 2.199993 5.499992 4.400005 7.700004 5.499992 18.700011 13.199997 32.999994 29.699993 36.2999937 53.8999941z"/><path d="m214.8 70.300018c-6.6 5.499993-13.19999 9.900017-20.90001 14.300003-6.59999 4.399987-14.3 7.700005-20.89999 12.099991-2.20001 1.100006-4.39999 2.200012-6.60001 3.300018-30.80001 18.69999-51.69997 33-51.69997 57.20001 0 20.9 14.3 34.10001 38.49998 48.4 2.20001 1.1 5.5 3.30001 8.80002 5.5-1.10001 1.1-2.20002 1.1-3.30002 2.20001-6.60001 4.39999-14.30001 7.70001-22.00002 12.09999-1.1 0-1.1 1.10001-2.20001 1.10001-2.20001-2.20002-5.49999-3.30002-7.7-5.49999-20.9-15.40002-37.400014-34.10001-37.400014-63.80002 1.100006-35.2 24.199984-55 50.600014-71.500013 7.7-4.399986 15.40001-8.80001 22-13.199996 2.20001-1.100007 3.30002-2.200013 4.39999-3.300019 8.80001-4.399986 16.50002-8.80001 23.10001-13.199997l-23.10001-13.199997-22.00001 13.199997c3.30002 2.200013 5.5 3.300019 8.80002 5.499993 2.20001 2.200012 5.49998 3.300018 8.8 5.499992-1.10001 0-1.10001 1.100006-2.20001 1.100006-7.7 4.399986-15.40001 8.800011-22 13.199997-1.10001 0-1.10001 1.100006-2.20002 1.100006-3.30001-2.200012-5.5-3.300018-7.7-5.499992-3.30002-2.200012-6.6-4.399986-8.80001-6.599999l-51.70002 29.700012v114.39999l50.60001 29.70002c6.6-5.5 13.2-9.90003 20.9-15.40003 6.6-4.39998 14.3-8.8 20.90001-12.09997 2.20001-1.10001 4.39998-2.20002 5.49998-3.30002 15.40001-8.80002 27.5-16.50003 36.30002-24.20003h-51.70003l16.50002-27.5h52.79999 25.29998c0 10.99999-3.30002 19.8-7.69999 27.5-8.80002 17.59999-24.20003 29.70001-41.80001 39.59999-7.70001 4.4-14.3 8.80002-22.00001 12.09999-2.20001 1.10001-3.30002 2.20001-5.49999 3.30002-8.80002 4.39998-16.50001 9.90001-23.10002 14.3l23.10002 13.19999 23.10001-13.19999c-3.30002-2.20001-5.49999-4.39999-8.8-5.5-2.20002-1.1-5.5-3.30001-8.80002-5.49998 1.1 0 1.1-1.10001 2.20001-1.10001 7.70001-4.39998 14.3-7.69999 22.00002-13.19999 1.1 0 1.1-1.10001 2.20001-1.10001 2.20001 1.10001 5.49998 3.30002 7.69999 5.5 3.30002 2.20001 5.5 4.39998 8.80002 6.59999l50.60001-29.70001v-114.399988zm2.19997 76.999972c-4.39998-15.40001-17.59998-26.4-36.3-38.49999-2.20002-1.1-5.5-3.30002-8.80002-5.49999 1.1-1.10001 2.20001-1.10001 3.30002-2.20001 6.6-3.30002 14.3-7.700006 20.90001-12.099992h2.20001c2.20001 2.200012 5.49998 3.300018 7.69999 5.499992 18.7 13.2 33 29.70001 36.30002 53.89999h-25.30003z"/><path d="m214.8-220.10001c-6.6 5.5-13.19999 9.90001-20.90001 14.30001-6.59999 4.40001-14.3 7.69999-20.89999 12.1-2.20001 1.09999-4.39999 2.2-6.60001 3.30001-31.89997 17.6-51.69997 31.89999-51.69997 57.19998 0 20.90001 14.3 34.100004 38.49998 48.400007 2.20001 1.100006 5.5 3.300003 8.80002 5.499992-1.10001 1.100006-2.20002 1.100006-3.30002 2.19999-6.60001 4.400009-14.30001 7.700012-22.00002 12.100013 0-1.100006-1.1 0-2.20001 0-2.20001-1.100006-4.39998-3.299995-7.7-4.400001-19.79999-15.399994-36.300008-35.200011-36.300008-63.800001 0-35.2 23.100018-56.10001 49.500008-72.59999 7.7-4.4 15.40001-8.80001 22-13.2 2.20001-1.10001 3.30002-2.20001 4.39999-3.3 8.80001-4.4 16.50002-8.80001 23.10001-13.2l-23.10001-13.2-23.10002 13.2c3.30002 2.2 5.5 3.3 8.80002 5.5 2.20001 1.10001 5.49998 3.3 8.8 5.5-1.1 0-1.1 1.10001-2.20001 1.10001-7.7 4.39999-15.40001 8.79998-22 13.19999-1.1 0-1.1 1.09999-2.20001 1.09999-2.20001-1.09999-5.5-3.3-7.70001-5.5-3.30001-2.20001-5.49999-4.39999-8.80001-6.6l-51.700016 29.70001v115.500008l50.600016 29.699993c7.7-5.499993 15.40001-11.000004 23.1-15.39999 6.60001-4.400002 14.30001-8.799996 20.90001-12.099991 2.20002-1.100006 4.39998-2.199989 5.49999-3.299996 15.40001-8.799995 27.5-16.5 36.30002-24.200004h-52.79999l16.50001-27.50001h52.79999 25.29999c0 11.00002-3.30002 19.80001-7.70001 27.50001-8.80001 17.599998-24.19998 29.699989-41.80001 39.599991-7.69999 4.400005-14.3 8.799991-22 12.09999-2.20001 1.100007-3.30001 2.199994-5.5 3.3-8.8 4.400005-16.50001 9.899997-24.19998 14.300003l23.10002 13.199997 23.10001-13.199997c-3.30002-2.199993-5.49999-4.400006-8.8-5.499993-2.20002-1.100006-5.5-3.299999-8.80002-5.499992 1.1 0 1.1-1.100006 2.20001-1.100006 7.70001-4.400005 14.3-7.700005 22.00002-13.199997 1.1 0 1.1-1.100006 2.20001-1.100006 3.30002 1.100006 5.49998 3.299999 7.69999 4.400005 3.30002 2.199993 5.5 4.400005 8.80002 6.599999l51.70003-28.600006v-114.399998zm2.19997 77c-4.39998-15.39999-17.59998-26.39999-36.3-38.5-2.20002-1.09999-5.5-3.3-8.80002-5.5 1.1-1.1 2.20001-1.1 3.30002-2.20001 6.6-3.29999 14.3-7.7 20.90001-12.09999 1.1 0 1.1-1.09999 2.20001-1.09999 2.20001 2.2 5.49998 3.29999 7.69999 5.5 18.7 13.2 33 29.7 36.30002 53.89999z"/><path d="m27.799993-50.460003 29.18999-17.329998 109.410007 63.2900048 112.20002-64.8999938v-128.70001l-112.20002-64.9-112.200001 63.8v126.260005l-30.130007 17.889996-108.470001-62.750001-112.199991 64.899998v128.700013l112.199991 64.900019 107.560005-62.220004 31.040003 17.459984v126.15997l112.200001 64.90002 112.20002-64.89998v-129.800032l-112.20002-64.899979-109.490002 63.330002-29.109995-16.380005zm31.899989-144.339997 106.700008-61.59999 106.69999 61.59999v123.199994l-106.69999 61.599998-106.69997-61.599998s0-123.199994-.000038-123.199994zm-250.799992 267.299992v-123.199997l106.699993-61.599995 106.699999 61.599995v123.199997l-106.699997 61.599998zm357.5-38.499984 106.69999 61.599998v123.199994l-106.69999 61.59999-106.69997-61.59999v-123.199994z"/></g></svg>