<?xml version="1.0" encoding="UTF-8"?>
<!DOCTYPE svg PUBLIC "-//W3C//DTD SVG 1.1//EN" "http://www.w3.org/Graphics/SVG/1.1/DTD/svg11.dtd">
<svg version="1.2" width="129.7mm" height="194.03mm" viewBox="0 0 12970 19403" preserveAspectRatio="xMidYMid" fill-rule="evenodd" stroke-width="28.222" stroke-linejoin="round" xmlns="http://www.w3.org/2000/svg" xmlns:ooo="http://xml.openoffice.org/svg/export" xmlns:xlink="http://www.w3.org/1999/xlink" xmlns:presentation="http://sun.com/xmlns/staroffice/presentation" xmlns:smil="http://www.w3.org/2001/SMIL20/" xmlns:anim="urn:oasis:names:tc:opendocument:xmlns:animation:1.0" xml:space="preserve">
 <defs class="ClipPathGroup">
  <clipPath id="presentation_clip_path" clipPathUnits="userSpaceOnUse">
   <rect x="0" y="0" width="12970" height="19403"/>
  </clipPath>
  <clipPath id="presentation_clip_path_shrink" clipPathUnits="userSpaceOnUse">
   <rect x="12" y="19" width="12945" height="19365"/>
  </clipPath>
 </defs>
 <defs class="TextShapeIndex">
  <g ooo:slide="id1" ooo:id-list="id3 id4 id5 id6 id7 id8 id9 id10 id11"/>
 </defs>
 <defs class="EmbeddedBulletChars">
  <g id="bullet-char-template-57356" transform="scale(0.00048828125,-0.00048828125)">
   <path d="M 580,1141 L 1163,571 580,0 -4,571 580,1141 Z"/>
  </g>
  <g id="bullet-char-template-57354" transform="scale(0.00048828125,-0.00048828125)">
   <path d="M 8,1128 L 1137,1128 1137,0 8,0 8,1128 Z"/>
  </g>
  <g id="bullet-char-template-10146" transform="scale(0.00048828125,-0.00048828125)">
   <path d="M 174,0 L 602,739 174,1481 1456,739 174,0 Z M 1358,739 L 309,1346 659,739 1358,739 Z"/>
  </g>
  <g id="bullet-char-template-10132" transform="scale(0.00048828125,-0.00048828125)">
   <path d="M 2015,739 L 1276,0 717,0 1260,543 174,543 174,936 1260,936 717,1481 1274,1481 2015,739 Z"/>
  </g>
  <g id="bullet-char-template-10007" transform="scale(0.00048828125,-0.00048828125)">
   <path d="M 0,-2 C -7,14 -16,27 -25,37 L 356,567 C 262,823 215,952 215,954 215,979 228,992 255,992 264,992 276,990 289,987 310,991 331,999 354,1012 L 381,999 492,748 772,1049 836,1024 860,1049 C 881,1039 901,1025 922,1006 886,937 835,863 770,784 769,783 710,716 594,584 L 774,223 C 774,196 753,168 711,139 L 727,119 C 717,90 699,76 672,76 641,76 570,178 457,381 L 164,-76 C 142,-110 111,-127 72,-127 30,-127 9,-110 8,-76 1,-67 -2,-52 -2,-32 -2,-23 -1,-13 0,-2 Z"/>
  </g>
  <g id="bullet-char-template-10004" transform="scale(0.00048828125,-0.00048828125)">
   <path d="M 285,-33 C 182,-33 111,30 74,156 52,228 41,333 41,471 41,549 55,616 82,672 116,743 169,778 240,778 293,778 328,747 346,684 L 369,508 C 377,444 397,411 428,410 L 1163,1116 C 1174,1127 1196,1133 1229,1133 1271,1133 1292,1118 1292,1087 L 1292,965 C 1292,929 1282,901 1262,881 L 442,47 C 390,-6 338,-33 285,-33 Z"/>
  </g>
  <g id="bullet-char-template-9679" transform="scale(0.00048828125,-0.00048828125)">
   <path d="M 813,0 C 632,0 489,54 383,161 276,268 223,411 223,592 223,773 276,916 383,1023 489,1130 632,1184 813,1184 992,1184 1136,1130 1245,1023 1353,916 1407,772 1407,592 1407,412 1353,268 1245,161 1136,54 992,0 813,0 Z"/>
  </g>
  <g id="bullet-char-template-8226" transform="scale(0.00048828125,-0.00048828125)">
   <path d="M 346,457 C 273,457 209,483 155,535 101,586 74,649 74,723 74,796 101,859 155,911 209,963 273,989 346,989 419,989 480,963 531,910 582,859 608,796 608,723 608,648 583,586 532,535 482,483 420,457 346,457 Z"/>
  </g>
  <g id="bullet-char-template-8211" transform="scale(0.00048828125,-0.00048828125)">
   <path d="M -4,459 L 1135,459 1135,606 -4,606 -4,459 Z"/>
  </g>
  <g id="bullet-char-template-61548" transform="scale(0.00048828125,-0.00048828125)">
   <path d="M 173,740 C 173,903 231,1043 346,1159 462,1274 601,1332 765,1332 928,1332 1067,1274 1183,1159 1299,1043 1357,903 1357,740 1357,577 1299,437 1183,322 1067,206 928,148 765,148 601,148 462,206 346,322 231,437 173,577 173,740 Z"/>
  </g>
 </defs>
 <defs class="TextEmbeddedBitmaps"/>
 <g>
  <g id="id2" class="Master_Slide">
   <g id="bg-id2" class="Background"/>
   <g id="bo-id2" class="BackgroundObjects"/>
  </g>
 </g>
 <g class="SlideGroup">
  <g>
   <g id="container-id1">
    <g id="id1" class="Slide" clip-path="url(#presentation_clip_path)">
     <g class="Page">
      <g class="com.sun.star.drawing.ClosedBezierShape">
       <g id="id3">
        <rect class="BoundingBox" stroke="none" fill="none" x="3" y="3490" width="12973" height="15916"/>
        <path fill="rgb(65,0,127)" stroke="none" d="M 9471,8520 L 9471,4831 C 9742,4750 9973,4506 9973,4181 9973,3815 9664,3490 9317,3490 L 3792,3490 C 3444,3490 3135,3815 3135,4181 3135,4506 3329,4750 3638,4831 L 3638,8480 C 3638,8480 -2132,19404 868,19404 L 12125,19404 C 15054,19404 9471,8520 9471,8520 Z"/>
       </g>
      </g>
      <g class="com.sun.star.drawing.ClosedBezierShape">
       <g id="id4">
        <rect class="BoundingBox" stroke="none" fill="none" x="-1" y="13254" width="12974" height="6151"/>
        <path fill="rgb(107,18,221)" stroke="none" d="M 3634,13354 L 1401,13254 C 189,16194 -762,19404 864,19404 L 12122,19404 C 13552,19404 12952,16807 11963,14150 11545,14103 10992,14070 10264,14070 6569,14070 5774,13354 3634,13354 Z"/>
       </g>
      </g>
      <g class="com.sun.star.drawing.ClosedBezierShape">
       <g id="id5">
        <rect class="BoundingBox" stroke="none" fill="none" x="7244" y="0" width="2231" height="2231"/>
        <path fill="rgb(66,0,127)" stroke="none" d="M 9474,1115 C 9474,1320 9427,1495 9325,1672 9222,1850 9094,1978 8916,2081 8739,2183 8564,2230 8359,2230 8154,2230 7979,2183 7801,2081 7624,1978 7496,1850 7393,1672 7291,1495 7244,1320 7244,1115 7244,910 7291,735 7393,557 7496,380 7624,252 7801,149 7979,47 8154,0 8359,0 8564,0 8739,47 8916,149 9094,252 9222,380 9325,557 9427,735 9474,910 9474,1115 Z"/>
       </g>
      </g>
      <g class="com.sun.star.drawing.ClosedBezierShape">
       <g id="id6">
        <rect class="BoundingBox" stroke="none" fill="none" x="5116" y="1329" width="1838" height="1837"/>
        <path fill="rgb(98,2,198)" stroke="none" d="M 6952,2247 C 6952,2416 6913,2560 6829,2706 6744,2852 6639,2957 6493,3042 6347,3126 6203,3165 6034,3165 5865,3165 5721,3126 5575,3042 5429,2957 5323,2852 5239,2706 5154,2560 5116,2416 5116,2247 5116,2078 5154,1934 5239,1788 5323,1642 5429,1536 5575,1452 5721,1367 5865,1329 6034,1329 6203,1329 6347,1367 6493,1452 6639,1536 6744,1642 6829,1788 6913,1934 6952,2078 6952,2247 Z"/>
       </g>
      </g>
      <g class="com.sun.star.drawing.ClosedBezierShape">
       <g id="id7">
        <rect class="BoundingBox" stroke="none" fill="none" x="3583" y="787" width="1213" height="1213"/>
        <path fill="rgb(66,0,127)" stroke="none" d="M 4795,1393 C 4795,1504 4769,1599 4713,1696 4658,1792 4588,1862 4492,1917 4395,1973 4300,1999 4189,1999 4077,1999 3982,1973 3886,1917 3789,1862 3720,1792 3664,1696 3608,1599 3583,1504 3583,1393 3583,1281 3608,1186 3664,1090 3720,993 3789,924 3886,868 3982,812 4077,787 4189,787 4300,787 4395,812 4492,868 4588,924 4658,993 4713,1090 4769,1186 4795,1281 4795,1393 Z"/>
       </g>
      </g>
      <g class="com.sun.star.drawing.ClosedBezierShape">
       <g id="id8">
        <rect class="BoundingBox" stroke="none" fill="none" x="3230" y="10742" width="6598" height="7619"/>
        <path fill="rgb(240,240,240)" stroke="none" d="M 8120,11661 C 7907,11840 7672,12001 7429,12150 7200,12291 6965,12423 6736,12550 6666,12590 6596,12629 6529,12667 5484,13259 4812,13740 4812,14551 4812,15236 5294,15682 6076,16159 6165,16214 6258,16269 6355,16325 6321,16344 6287,16363 6252,16382 6018,16512 5775,16646 5536,16793 5512,16808 5488,16823 5464,16838 5380,16783 5296,16726 5215,16668 4527,16171 3984,15533 3984,14551 3984,13379 4757,12692 5628,12150 5871,11999 6122,11859 6366,11724 6421,11693 6475,11662 6529,11632 6809,11474 7059,11325 7280,11176 L 6529,10742 5777,11176 C 5872,11240 5970,11304 6077,11368 6166,11423 6259,11477 6356,11533 6332,11547 6308,11560 6284,11574 6039,11710 5786,11851 5539,12005 5515,12019 5492,12034 5469,12049 5384,11994 5301,11938 5219,11880 5122,11810 5028,11737 4937,11661 L 3230,12646 3230,16455 4927,17435 C 5142,17254 5379,17091 5624,16940 5858,16796 6099,16662 6333,16532 6400,16496 6465,16459 6529,16423 7029,16142 7443,15886 7739,15607 L 5963,15607 6495,14683 8238,14683 9070,14683 C 9052,15033 8963,15338 8822,15607 8526,16177 8001,16590 7434,16940 7192,17089 6944,17226 6702,17360 6643,17393 6585,17425 6529,17457 6244,17617 5989,17768 5766,17920 L 6529,18360 7292,17919 C 7195,17853 7093,17787 6983,17721 6893,17666 6800,17611 6703,17556 6730,17541 6756,17526 6784,17511 7026,17376 7277,17237 7522,17086 7546,17071 7570,17056 7593,17041 7678,17096 7761,17151 7842,17209 7942,17281 8038,17357 8131,17435 L 9827,16455 9827,12646 8120,11661 Z M 8204,14221 C 8072,13711 7629,13332 6979,12932 6890,12877 6797,12822 6701,12766 6740,12744 6778,12722 6818,12700 7036,12579 7282,12441 7518,12297 7541,12282 7565,12267 7588,12253 7673,12308 7756,12364 7837,12423 8447,12866 8944,13419 9051,14221 L 8204,14221 Z"/>
       </g>
      </g>
      <g class="com.sun.star.drawing.PolyPolygonShape">
       <g id="id9">
        <rect class="BoundingBox" stroke="none" fill="none" x="2801" y="10248" width="7455" height="8607"/>
        <path fill="rgb(240,240,240)" stroke="none" d="M 6529,18854 L 2802,16703 2802,12400 6529,10248 10255,12400 10255,16703 6529,18854 Z M 2982,16599 L 6529,18646 10075,16599 10075,12503 6529,10456 2982,12503 2982,16599 Z"/>
       </g>
      </g>
      <g class="com.sun.star.drawing.CustomShape">
       <g id="id10">
        <rect class="BoundingBox" stroke="none" fill="none" x="-1" y="15746" width="4067" height="3658"/>
        <path fill="rgb(255,255,255)" stroke="none" d="M 2032,19402 L 0,19402 0,15747 4064,15747 4064,19402 2032,19402 Z"/>
        <path fill="none" stroke="rgb(52,101,164)" d="M 2032,19402 L 0,19402 0,15747 4064,15747 4064,19402 2032,19402 Z"/>
       </g>
      </g>
      <g class="com.sun.star.drawing.CustomShape">
       <g id="id11">
        <rect class="BoundingBox" stroke="none" fill="none" x="253" y="15591" width="8132" height="7271"/>
        <path fill="rgb(0,69,134)" stroke="none" d="M 3149,18192 L 3090,18248 3035,18306 2983,18367 2935,18430 2891,18496 2851,18563 2814,18632 2782,18702 2753,18774 2729,18848 2709,18922 2694,18997 2683,19073 2676,19149 2674,19225 254,19225 260,19036 276,18848 303,18661 342,18475 391,18292 450,18111 520,17933 600,17758 690,17588 790,17421 900,17260 1019,17104 1146,16954 1283,16810 1427,16672 704,16033 3852,16016 3871,18831 3149,18192 Z M 254,15592 L 254,15592 Z M 8383,22860 L 8383,22860 Z"/>
        <path fill="none" stroke="rgb(52,101,164)" d="M 3149,18192 L 3090,18248 3035,18306 2983,18367 2935,18430 2891,18496 2851,18563 2814,18632 2782,18702 2753,18774 2729,18848 2709,18922 2694,18997 2683,19073 2676,19149 2674,19225 254,19225 260,19036 276,18848 303,18661 342,18475 391,18292 450,18111 520,17933 600,17758 690,17588 790,17421 900,17260 1019,17104 1146,16954 1283,16810 1427,16672 704,16033 3852,16016 3871,18831 3149,18192 Z"/>
        <path fill="none" stroke="rgb(52,101,164)" d="M 254,15592 L 254,15592 Z"/>
        <path fill="none" stroke="rgb(52,101,164)" d="M 8383,22860 L 8383,22860 Z"/>
       </g>
      </g>
     </g>
    </g>
   </g>
  </g>
 </g>
</svg>