<?xml version="1.0" encoding="UTF-8" standalone="no"?>
<svg
   xmlns:dc="http://purl.org/dc/elements/1.1/"
   xmlns:cc="http://creativecommons.org/ns#"
   xmlns:rdf="http://www.w3.org/1999/02/22-rdf-syntax-ns#"
   xmlns:svg="http://www.w3.org/2000/svg"
   xmlns="http://www.w3.org/2000/svg"
   id="svg189"
   version="1.1"
   width="32"
   viewBox="0 0 32 32"
   height="32">
  <metadata
     id="metadata195">
    <rdf:RDF>
      <cc:Work
         rdf:about="">
        <dc:format>image/svg+xml</dc:format>
        <dc:type
           rdf:resource="http://purl.org/dc/dcmitype/StillImage" />
        <dc:title></dc:title>
      </cc:Work>
    </rdf:RDF>
  </metadata>
  <defs
     id="defs193" />
  <g
     id="g187"
     transform="translate(2)"
     fill="none">
    <path
       id="path169"
       fill="#d39700"
       d="m18.3582575 19.9280158h-4.5018179v3.0343423c.0000337-.0000337.0000989-.0000337.0001338-.0000582 1.8585074-1.0458624 3.3994941-1.9971389 4.5016841-3.0342841z" />
    <path
       id="path171"
       fill="#fb0"
       d="m8.55232047 12.9376982c-.69356579.8996871-1.077696 1.8872622-1.077696 3.0623526 0 1.1762065.38656605 2.1619548 1.08439435 3.0583942.81291503 1.0442392 2.04970968 1.9668963 3.61282068 2.9217586.3318304.2027043.6796282.4072018 1.0394014.6144396-.1279757.0714129-.2536173.1420486-.3845362.2145443-.8707969.4823028-1.7711943.9810798-2.6627284 1.5288076-.088328.0542964-.17675751.1093026-.26511928.1646807-.31457757-.2048349-.62570438-.4137303-.9277991-.6319285-1.25830988-.9088209-2.384923-1.9459898-3.20643089-3.198955-.84809758-1.2934925-1.37092754-2.8169892-1.37092754-4.6717417 0-1.8517754.52289804-3.3756109 1.36879639-4.6730948l-4.17107013-2.40816365v14.16238255l6.30924357 3.6426246c.79931573-.6743512 1.67931416-1.2813475 2.59165298-1.8418636.8708984-.5350423 1.7667627-1.03179 2.6381686-1.5144646.2471558-.136907.4887978-.271716.7259402-.4051048v-3.034342h-2.104344l1.9805968-3.436943h.1237472v-.4910643-.0000338z" />
    <path
       id="path173"
       fill="#fb0"
       d="m11.0203366 28.5249228 2.836103 1.6374004v-3.3572079c-1.0584474.5942435-2.0059012 1.1565522-2.836103 1.7198075z" />
    <path
       id="path179"
       fill="#d39700"
       d="m16.6935827 28.5243898c-.3614649-.2455313-.7408927-.4908945-1.1487034-.7387613-.3326425-.2021626-.681286-.406322-1.0419387-.6133568.1005402-.0560209.199017-.1113652.3015194-.1681309.9018859-.4995555 1.8344547-1.0161606 2.7459144-1.5790441.0870423-.0537553.1758778-.1096401.2647133-.1655936.3130211.2026362.6227276.4091974.9235369.6248239.372256.2668113.7292555.5479651 1.0740422.8392686l6.3087697-3.6423872.0000582-.0000337v-14.16241688l-4.1703599 2.40775808c.6505693.9987389 1.1084131 2.13249 1.2847651 3.4460769h-3.1505454c-.170997-.6632887-.491495-1.2644332-.9291427-1.8324251l-5.2997807 3.0598154v.0000338.4910643h.8505671 5.5066111 3.0928332c-.0667107 1.3021865-.3995561 2.4345845-.9215738 3.4369429-.1334901.2563237-.2806139.5032768-.4377845.7431255-1.1415651 1.742067-2.8734161 3.0664463-4.7263076 4.2107855-.8969469.5539526-1.8215323 1.0661941-2.7201367 1.5639226-.2189762.121312-.4330473.2407285-.6440736.3591983-.0000339.0000337-.0000989.0000337-.0001338.0000582l-.0000014 3.357241z" />
    <path
       id="path181"
       fill="#d39700"
       d="m27.0434164 23.6135104-13.1868839 7.6136628-.0001014-.0000692v.7728285l.0001014.0000675 13.8561948-8.0000593.000135-.0000675v-15.99988193l-.6693784.38646458v15.22702085z" />
    <path
       id="path183"
       fill="#fb0"
       d="m.66937775 8.38645585-.66937775-.38646458v15.99988193l.00010124.0000675 13.85632986 7.9999918v-.7728285l-13.18698528-7.6135936-.00006807-.0000337z" />
    <path
       id="path252"
       d="m 19.773761,5.2538505 c -0.794139,0.6643718 -1.666019,1.264704 -2.568954,1.8203822 -0.851412,0.5239795 -1.725829,1.0123715 -2.576836,1.4869955 -0.262819,0.146616 -0.519921,0.29093 -0.771406,0.433588 -3.4e-5,3.4e-5 -9.9e-5,3.4e-5 -1.34e-4,5.8e-5 -2.369362,1.3439318 -4.2187695,2.5348878 -5.3041105,3.9428238 l 5.3041085,3.062295 5.299781,-3.059815 C 18.341908,11.883422 17.102745,10.947166 15.530263,9.9790092 15.200327,9.7758642 14.8551,9.5709272 14.497932,9.3633512 c 0.144687,-0.08139 0.287074,-0.162008 0.435415,-0.24472 0.808653,-0.45101 1.725153,-0.962203 2.600213,-1.50073 0.08748,-0.05382 0.174998,-0.108389 0.262547,-0.1632594 0.313529,0.2055124 0.623608,0.4150164 0.924755,0.6336544 1.268696,0.921236 2.404815,1.9709208 3.23028,3.2382298 l 4.17036,-2.4077578 v -5.8e-5 z"
       style="fill:#50be75" />
    <path
       id="path250"
       d="m 13.856465,1.8374514 -3.4e-5,3.38e-5 -2.794188,1.6132456 c 0.351079,0.2373114 0.718599,0.474827 1.112912,0.715115 0.331391,0.201927 0.678681,0.40612 1.037811,0.613289 -0.08951,0.0502 -0.177062,0.0997 -0.268197,0.150506 -0.909565,0.507303 -1.850118,1.031858 -2.767667,1.602387 -0.08887,0.05524 -0.1751,0.110215 -0.2616011,0.165222 C 9.6010589,6.4936318 9.2898639,6.2861578 8.9874991,6.0697518 8.6244443,5.8099438 8.2759362,5.5366718 7.9387268,5.2540968 l -6.3473012,3.664579 v 1.17e-4 L 5.7624959,11.326956 C 6.9070724,9.5713908 8.6459597,8.2321948 10.50829,7.0742228 c 0.903949,-0.562072 1.836078,-1.081993 2.741888,-1.587198 0.205986,-0.114849 0.407338,-0.228008 0.606253,-0.340287 3.4e-5,-3.4e-5 9.9e-5,-3.4e-5 1.34e-4,-5.8e-5 1.040213,-0.587377 1.973053,-1.142547 2.793309,-1.6964325 z"
       style="fill:#50be75" />
    <path
       id="path260"
       d="m -5.0000001e-8,8.0000579 v 1.02e-4 L 0.66937775,8.3866239 v -1.68e-4 L 13.856431,0.77306305 l 1.02e-4,-6.74e-5 13.186951,7.61346025 v 1.68e-4 l 0.669378,-0.386464 v -1.02e-4 l -13.85633,-7.99988965 -1.01e-4,6.75e-5 z"
       style="fill:#50be75" />
  </g>
</svg>
