<?xml version="1.0" encoding="utf-8"?>
<!-- Generator: Adobe Illustrator 19.0.0, SVG Export Plug-In . SVG Version: 6.00 Build 0)  -->
<svg version="1.1" id="Layer_1" xmlns="http://www.w3.org/2000/svg" xmlns:xlink="http://www.w3.org/1999/xlink" x="0px" y="0px" viewBox="-289 -318 660 660"
	 enable-background="new -289 -318 660 660" xml:space="preserve">
	<g>
		<g id="XMLID_588_">
			<g id="XMLID_79_">
				<g id="XMLID_224_">
					<defs>
						<path id="XMLID_252_" d="M125.5262604-21.484766v-104.5668793c7.6650848-2.3039627,14.2351379-9.2158127,14.2351379-18.431633
							c0-10.3678131-8.7600861-19.5836334-18.6151962-19.5836334H-35.4403229
							c-9.855114,0-18.6151962,9.2158203-18.6151962,19.5836334c0,9.2158203,5.4750557,16.1277161,14.2351379,18.431633v103.414917
							c0,0-163.5258179,309.6367188-78.5106735,309.6367188h319.0829163
							C283.7571411,287,125.5262604-21.484766,125.5262604-21.484766z"/>
					</defs>
					<clipPath id="XMLID_5_">
						<use xlink:href="#XMLID_252_"  overflow="visible"/>
					</clipPath>
					<g id="XMLID_258_" clip-path="url(#XMLID_5_)">
						<path id="XMLID_1_" fill="#41007F" d="M125.5262604-21.484766v-104.5668793
							c7.6650848-2.3039627,14.2351379-9.2158127,14.2351379-18.431633c0-10.3678131-8.7600861-19.5836334-18.6151962-19.5836334
							H-35.4403229c-9.855114,0-18.6151962,9.2158203-18.6151962,19.5836334c0,9.2158203,5.4750557,16.1277161,14.2351379,18.431633
							v103.414917c0,0-163.5258179,309.6367188-78.5106735,309.6367188h319.0829163
							C283.7571411,287,125.5262604-21.484766,125.5262604-21.484766z"/>
					</g>
					<path clip-path="url(#XMLID_5_)" fill="#6B12DD" d="M-39.8203735,115.5396729l-63.3057251-2.8438721
						C-137.4684448,196.0222778-164.4140015,287-118.3310547,287h319.0829468
						c40.5463257,0,23.5287476-73.6083374-4.487854-148.9124756c-11.869812-1.3408203-27.5386963-2.2787476-48.1670532-2.2787476
						C43.3589478,135.8087769,20.8222656,115.5396729-39.8203735,115.5396729z"/>
				</g>
				<g id="XMLID_106_">
					<circle id="XMLID_188_" fill="#42007F" cx="94.1076431" cy="-231.4089661" r="31.5910358"/>
					<circle id="XMLID_185_" fill="#6202C6" cx="28.181572" cy="-199.3087006" r="26.0049038"/>
					<circle id="XMLID_137_" fill="#42007F" cx="-24.1087742" cy="-223.53479" r="17.1583176"/>
				</g>
			</g>
			<g id="XMLID_2_">
				<g id="XMLID_584_">
					<path id="XMLID_585_" fill="#F0F0F0" d="M87.3216171,67.5451965
						c-6.053688,5.0644073-12.6996002,9.6404648-19.5824585,13.8763351
						c-6.490036,3.9942093-13.1554298,7.7168961-19.6424789,11.334938
						c-2.0033913,1.1175003-3.9630966,2.2175522-5.8802223,3.3050385
						c-29.6027031,16.7909164-48.647625,30.4243317-48.647625,53.3990326c0,19.4099426,13.6616983,32.0579987,35.8055077,45.5847321
						c2.5294552,1.5451965,5.1805305,3.1042175,7.9230499,4.6836853c-0.9754524,0.5444489-1.9331512,1.0829315-2.9312325,1.6355438
						c-6.6377373,3.6764984-13.5012703,7.4783783-20.297081,11.653595c-0.6734524,0.4138794-1.3473768,0.833252-2.0211439,1.2554626
						c-2.3977814-1.5615387-4.7694798-3.1537323-7.0721989-4.8170929
						c-19.4933662-14.0794983-34.8918076-32.1626434-34.8918076-59.9959259
						c0-33.2149277,21.9219456-52.688652,46.6096687-68.0390091c6.8904018-4.2844238,13.9959106-8.2478333,20.9006119-12.0987396
						c1.570343-0.8758392,3.1058006-1.7383118,4.6222496-2.5945053c7.9291763-4.4773827,15.0400276-8.7091675,21.2926445-12.9313698
						L42.2158279,41.5033379L20.916111,53.8006897c2.6762142,1.8091774,5.4778156,3.6196136,8.4835281,5.4512596
						c2.5261555,1.5392303,5.1732979,3.0957489,7.9107933,4.6748886c-0.682251,0.3826103-1.3495789,0.7598763-2.0442429,1.1471977
						c-6.9332962,3.8670883-14.1029148,7.8655396-21.0971775,12.2146988
						c-0.6773815,0.4211044-1.33465,0.8400116-1.9941187,1.2593842c-2.3969965-1.5521164-4.7690086-3.1336136-7.0739269-4.7833023
						c-2.7673481-1.9804535-5.4240775-4.0635071-7.9945431-6.2175827l-48.3834915,27.9341583v107.9562607l48.0935898,27.7668152
						c6.0929737-5.1404572,12.8007917-9.7672577,19.7554569-14.0400543
						c6.6383667-4.0784302,13.4674892-7.8650818,20.1097851-11.5442352c1.8844414-1.043808,3.7267723-2.0714264,5.5346947-3.0886841
						c14.1668663-7.972229,25.9134789-15.2233887,34.3151436-23.1293182H26.1747322l15.097538-26.198822h49.4021606h23.5755615
						c-0.5083084,9.9262695-3.0454636,18.5582886-7.0249023,26.198822
						c-8.4095154,16.1460571-23.2955627,27.8383026-39.3643112,37.7622375
						c-6.8369789,4.2225037-13.8849792,8.1273041-20.734684,11.9213409
						c-1.6691742,0.9246979-3.3011131,1.8349457-4.9096375,2.7381134c-8.0683937,4.530014-15.2911224,8.81633-21.6197891,13.1100311
						l21.6191597,12.4818115l21.6263885-12.4859009c-2.7554054-1.8715668-5.6475143-3.7418671-8.7563019-5.6313324
						c-2.5354271-1.5409546-5.1932564-3.0973206-7.942379-4.675354c0.7664757-0.4272308,1.5170784-0.8489685,2.2984772-1.2817078
						c6.8746872-3.8079987,13.9834976-7.7458038,20.9312477-12.0365143c0.663559-0.40979,1.3407822-0.8359222,2.0178452-1.2623749
						c2.3861542,1.5447388,4.7468567,3.1191711,7.0399933,4.7628784c2.8374252,2.0337219,5.5587311,4.1769562,8.1868668,6.3973389
						l48.0906067-27.7650909V95.4813919L87.3216171,67.5451965z M89.6967773,140.1038513
						c-3.7288208-14.4632034-16.2932892-25.193512-34.7221107-36.5400772
						c-2.5149994-1.5485077-5.1465874-3.1106796-7.8693123-4.6929626c1.1030426-0.6204987,2.188488-1.2348709,3.3191833-1.8655853
						c6.1641541-3.4378128,13.1502457-7.3344498,19.8206635-11.4394302
						c0.6668549-0.4104233,1.3340225-0.8263397,2.0011902-1.2446136C74.6363144,85.8877487,77,87.4848099,79.2954941,89.1514664
						c17.2926254,12.5564575,31.3672562,28.2341156,34.4169617,50.9523849H89.6967773z"/>
				</g>
				<g id="XMLID_80_">
					<path id="XMLID_581_" fill="#F0F0F0" d="M42.2155724,271.4236145l-105.6233673-60.9825287V88.4775314L42.2155724,27.4955082
						L147.839447,88.4775314v121.9635544L42.2155724,271.4236145z M-58.3058662,207.4957275l100.5214386,58.0361633
						l100.5219421-58.0361633V91.4228897L42.2155724,33.3872337l-100.5214386,58.035656V207.4957275z"/>
				</g>
			</g>
		</g>
	</g>
</svg>
