<svg enable-background="new -289 -318 660 660" height="550" viewBox="-289 -318 367.66284 550" width="367.66284" xmlns="http://www.w3.org/2000/svg" xmlns:xlink="http://www.w3.org/1999/xlink"><defs><clipPath id="a"><path d="m125.52626-21.484766v-104.566884c7.66509-2.30396 14.23514-9.21581 14.23514-18.43163 0-10.36781-8.76009-19.58363-18.6152-19.58363h-156.586523c-9.855114 0-18.615196 9.21582-18.615196 19.58363 0 9.21582 5.475056 16.12772 14.235138 18.43163v103.414922s-163.525819 309.636718-78.510669 309.636718h319.08291c83.00528.00001-75.2256-308.484756-75.2256-308.484756z" height="100%" transform="" width="100%"/></clipPath></defs><g transform="translate(-146.16858 -54.999998)"><g clip-path="url(#a)"><path d="m125.52626-21.484766v-104.566884c7.66509-2.30396 14.23514-9.21581 14.23514-18.43163 0-10.36781-8.76009-19.58363-18.6152-19.58363h-156.586523c-9.855114 0-18.615196 9.21582-18.615196 19.58363 0 9.21582 5.475056 16.12772 14.235138 18.43163v103.414922s-163.525819 309.636718-78.510669 309.636718h319.08291c83.00528.00001-75.2256-308.484756-75.2256-308.484756z" fill="#41007f"/></g><path clip-path="url(#a)" d="m-39.820374 115.53967-63.305726-2.84387c-34.34234 83.32648-61.2879 174.3042-15.20495 174.3042h319.08294c40.54633 0 23.52875-73.60834-4.48785-148.91248-11.86981-1.34082-27.5387-2.27874-48.16706-2.27874-104.738032 0-127.274714-20.26911-187.917354-20.26911z" fill="#6b12dd"/><circle cx="94.107643" cy="-231.40897" fill="#42007f" r="31.591036"/><circle cx="28.181572" cy="-199.3087" fill="#6202c6" r="26.004904"/><circle cx="-24.108774" cy="-223.53479" fill="#42007f" r="17.158318"/><path d="m87.321617 67.545197c-6.053688 5.064407-12.6996 9.640464-19.582458 13.876335-6.490036 3.994209-13.15543 7.716896-19.642479 11.334938-2.003392 1.1175-3.963097 2.217552-5.880223 3.305038-29.602703 16.790912-48.6476246 30.424332-48.6476246 53.399032 0 19.40994 13.6616983 32.058 35.8055076 45.58473 2.529455 1.5452 5.180531 3.10422 7.92305 4.68369-.975452.54445-1.933151 1.08293-2.931233 1.63554-6.637737 3.6765-13.50127 7.47838-20.29708 11.6536-.673453.41388-1.347377.83325-2.021144 1.25546-2.3977818-1.56154-4.7694802-3.15373-7.0721993-4.81709-19.4933667-14.0795-34.8918077-32.16265-34.8918077-59.99593 0-33.21493 21.9219457-52.688651 46.609669-68.039008 6.890402-4.284424 13.99591-8.247834 20.900612-12.09874 1.570343-.875839 3.1058-1.738312 4.622249-2.594505 7.929177-4.477383 15.040028-8.709168 21.292645-12.93137l-21.293273-12.293579-21.299717 12.297352c2.676214 1.809177 5.477816 3.619613 8.483528 5.451259 2.526156 1.539231 5.173298 3.095749 7.910793 4.674889-.682251.38261-1.349578.759876-2.044242 1.147198-6.933297 3.867088-14.102915 7.865539-21.097178 12.214698-.677381.421105-1.33465.840012-1.994119 1.259385-2.3969962-1.552117-4.7690083-3.133614-7.0739266-4.783303-2.7673481-1.980453-5.4240775-4.063507-7.9945431-6.217582l-48.3834913 27.934158v107.956258l48.0935896 27.76682c6.0929737-5.14046 12.8007917-9.76726 19.7554564-14.04006 6.638367-4.07843 13.46749-7.86508 20.109786-11.54423 1.884441-1.04381 3.726772-2.07143 5.534694-3.08869 14.166867-7.97222 25.913479-15.22338 34.315144-23.12931h-50.35687l15.097538-26.19883h49.402161 23.575559c-.50831 9.92627-3.04546 18.55829-7.0249 26.19883-8.409515 16.14605-23.295563 27.8383-39.364311 37.76223-6.836979 4.22251-13.884979 8.12731-20.734684 11.92134-1.669174.9247-3.301113 1.83495-4.909638 2.73812-8.068393 4.53001-15.291122 8.81633-21.619789 13.11003l21.61916 12.48181 21.626388-12.4859c-2.755405-1.87157-5.647514-3.74187-8.756301-5.63133-2.535428-1.54096-5.193257-3.09732-7.942379-4.67536.766475-.42723 1.517078-.84897 2.298477-1.2817 6.874687-3.808 13.983497-7.74581 20.931247-12.03652.663559-.40979 1.340783-.83592 2.017846-1.26237 2.386154 1.54473 4.746856 3.11917 7.039993 4.76287 2.837425 2.03373 5.558731 4.17696 8.186867 6.39734l48.090604-27.76509v-107.956258zm2.37516 72.558653c-3.728821-14.4632-16.293289-25.19351-34.72211-36.54008-2.515-1.5485-5.146588-3.11068-7.869313-4.692958 1.103043-.620499 2.188488-1.234871 3.319184-1.865586 6.164154-3.437813 13.150245-7.33445 19.820663-11.43943.666855-.410423 1.334023-.82634 2.00119-1.244614 2.389923 1.566567 4.753609 3.163628 7.049103 4.830284 17.292626 12.556454 31.367256 28.234114 34.416966 50.952384z" fill="#f0f0f0"/><path d="m42.215572 271.42361-105.623367-60.98252v-121.963559l105.623367-60.982023 105.623878 60.982023v121.963559zm-100.521438-63.92788 100.521438 58.03616 100.521938-58.03616v-116.07284l-100.521938-58.035656-100.521438 58.035656z" fill="#f0f0f0"/></g></svg>
