<?xml version="1.0" encoding="UTF-8" standalone="no"?>
<svg
   xmlns:dc="http://purl.org/dc/elements/1.1/"
   xmlns:cc="http://creativecommons.org/ns#"
   xmlns:rdf="http://www.w3.org/1999/02/22-rdf-syntax-ns#"
   xmlns:svg="http://www.w3.org/2000/svg"
   xmlns="http://www.w3.org/2000/svg"
   xmlns:sodipodi="http://sodipodi.sourceforge.net/DTD/sodipodi-0.dtd"
   xmlns:inkscape="http://www.inkscape.org/namespaces/inkscape"
   id="svg189"
   version="1.1"
   width="32"
   viewBox="0 0 32 32"
   height="32"
   inkscape:version="0.48.4 r9939"
   sodipodi:docname="tx_pos_ss.svg">
  <sodipodi:namedview
     pagecolor="#ffffff"
     bordercolor="#666666"
     borderopacity="1"
     objecttolerance="10"
     gridtolerance="10"
     guidetolerance="10"
     inkscape:pageopacity="0"
     inkscape:pageshadow="2"
     inkscape:window-width="2026"
     inkscape:window-height="1551"
     id="namedview5624"
     showgrid="false"
     inkscape:zoom="7.375"
     inkscape:cx="-23.186441"
     inkscape:cy="16"
     inkscape:window-x="5534"
     inkscape:window-y="120"
     inkscape:window-maximized="0"
     inkscape:current-layer="svg189" />
  <metadata
     id="metadata195">
    <rdf:RDF>
      <cc:Work
         rdf:about="">
        <dc:format>image/svg+xml</dc:format>
        <dc:type
           rdf:resource="http://purl.org/dc/dcmitype/StillImage" />
        <dc:title></dc:title>
      </cc:Work>
    </rdf:RDF>
  </metadata>
  <defs
     id="defs193" />
  <path
     style="fill:#d39700"
     inkscape:connector-curvature="0"
     d="M 20.358257,19.928016 H 15.85644 v 3.034342 c 3.3e-5,-3.4e-5 9.9e-5,-3.4e-5 1.33e-4,-5.8e-5 1.858508,-1.045863 3.399494,-1.997139 4.501684,-3.034284 z"
     id="path169" />
  <path
     style="fill:#ffbb00"
     inkscape:connector-curvature="0"
     d="m 10.552321,12.937698 c -0.6935663,0.899687 -1.0776965,1.887262 -1.0776965,3.062353 0,1.176206 0.386566,2.161955 1.0843945,3.058394 0.812915,1.044239 2.04971,1.966896 3.612821,2.921759 0.33183,0.202704 0.679628,0.407201 1.039401,0.614439 -0.127976,0.07141 -0.253617,0.142049 -0.384536,0.214544 -0.870797,0.482303 -1.771195,0.98108 -2.662729,1.528808 -0.08833,0.0543 -0.176757,0.109303 -0.265119,0.164681 C 11.584279,24.297841 11.273153,24.088945 10.971058,23.870747 9.712748,22.961926 8.5861349,21.924758 7.764627,20.671792 6.9165294,19.3783 6.3936995,17.854803 6.3936995,16.000051 c 0,-1.851776 0.522898,-3.375611 1.3687964,-4.673095 L 3.5914257,8.9187922 V 23.081175 l 6.3092436,3.642624 c 0.7993157,-0.674351 1.6793147,-1.281347 2.5916527,-1.841863 0.870899,-0.535043 1.766763,-1.03179 2.638169,-1.514465 0.247156,-0.136907 0.488798,-0.271716 0.72594,-0.405105 v -3.034342 h -2.104344 l 1.980597,-3.436943 h 0.123747 v -0.491064 -3.4e-5 z"
     id="path171" />
  <path
     style="fill:#ffbb00"
     inkscape:connector-curvature="0"
     d="m 13.020337,28.524923 2.836103,1.6374 v -3.357208 c -1.058448,0.594244 -2.005902,1.156552 -2.836103,1.719808 z"
     id="path173" />
  <path
     style="fill:#d39700"
     inkscape:connector-curvature="0"
     d="m 18.693583,28.52439 c -0.361465,-0.245531 -0.740893,-0.490895 -1.148704,-0.738761 -0.332642,-0.202163 -0.681286,-0.406322 -1.041938,-0.613357 0.10054,-0.05602 0.199017,-0.111365 0.301519,-0.168131 0.901886,-0.499556 1.834455,-1.016161 2.745914,-1.579044 0.08704,-0.05376 0.175878,-0.10964 0.264714,-0.165594 0.313021,0.202636 0.622727,0.409197 0.923537,0.624824 0.372256,0.266811 0.729255,0.547965 1.074042,0.839269 l 6.30877,-3.642388 5.8e-5,-3.3e-5 V 8.9187578 l -4.17036,2.4077582 c 0.650569,0.998739 1.108413,2.13249 1.284765,3.446077 H 22.085355 C 21.914358,14.109304 21.59386,13.50816 21.156212,12.940168 l -5.299781,3.059815 v 3.4e-5 0.491064 h 0.850567 5.506611 3.092834 c -0.06671,1.302187 -0.399557,2.434585 -0.921574,3.436943 -0.13349,0.256324 -0.280614,0.503277 -0.437785,0.743126 -1.141565,1.742067 -2.873416,3.066446 -4.726307,4.210785 -0.896947,0.553953 -1.821533,1.066194 -2.720137,1.563923 -0.218976,0.121312 -0.433047,0.240728 -0.644074,0.359198 -3.4e-5,3.4e-5 -9.9e-5,3.4e-5 -1.33e-4,5.8e-5 l -2e-6,3.357241 z"
     id="path179" />
  <path
     style="fill:#d39700"
     inkscape:connector-curvature="0"
     d="m 29.043416,23.61351 -13.186883,7.613663 -1.02e-4,-6.9e-5 v 0.772828 l 1.02e-4,6.8e-5 13.856194,-8.000059 1.35e-4,-6.8e-5 V 7.9999913 L 29.043484,8.3864558 V 23.613477 z"
     id="path181" />
  <path
     style="fill:#ffbb00"
     inkscape:connector-curvature="0"
     d="M 2.6693777,8.3864559 2,7.9999913 V 23.999873 l 1.012e-4,6.8e-5 13.8563298,7.999992 V 31.227104 L 2.6694458,23.61351 l -6.81e-5,-3.3e-5 z"
     id="path183" />
  <path
     inkscape:connector-curvature="0"
     style="fill:#d50936;fill-opacity:1"
     d="m 21.773761,5.2538505 c -0.794139,0.6643718 -1.666019,1.264704 -2.568954,1.8203822 -0.851412,0.5239795 -1.725829,1.0123715 -2.576836,1.4869955 -0.262819,0.146616 -0.519921,0.29093 -0.771406,0.433588 -3.4e-5,3.4e-5 -9.9e-5,3.4e-5 -1.34e-4,5.8e-5 -2.369362,1.3439318 -4.218769,2.5348878 -5.304111,3.9428238 l 5.304109,3.062295 5.299781,-3.059815 C 20.341908,11.883422 19.102745,10.947166 17.530263,9.9790092 17.200327,9.7758642 16.8551,9.5709272 16.497932,9.3633512 c 0.144687,-0.08139 0.287074,-0.162008 0.435415,-0.24472 0.808653,-0.45101 1.725153,-0.962203 2.600213,-1.50073 0.08748,-0.05382 0.174998,-0.108389 0.262547,-0.1632594 0.313529,0.2055124 0.623608,0.4150164 0.924755,0.6336544 1.268696,0.921236 2.404815,1.9709208 3.23028,3.2382298 l 4.17036,-2.4077578 v -5.8e-5 z"
     id="path252" />
  <path
     inkscape:connector-curvature="0"
     style="fill:#d50936;fill-opacity:1"
     d="m 15.856465,1.8374514 -3.4e-5,3.38e-5 -2.794188,1.6132456 c 0.351079,0.2373114 0.718599,0.474827 1.112912,0.715115 0.331391,0.201927 0.678681,0.40612 1.037811,0.613289 -0.08951,0.0502 -0.177062,0.0997 -0.268197,0.150506 -0.909565,0.507303 -1.850118,1.031858 -2.767667,1.602387 -0.08887,0.05524 -0.1751,0.110215 -0.261601,0.165222 -0.314442,-0.203618 -0.625637,-0.411092 -0.928002,-0.627498 -0.363055,-0.259808 -0.711563,-0.53308 -1.0487722,-0.815655 l -6.3473012,3.664579 v 1.17e-4 L 7.7624959,11.326956 C 8.9070724,9.5713908 10.64596,8.2321948 12.50829,7.0742228 c 0.903949,-0.562072 1.836078,-1.081993 2.741888,-1.587198 0.205986,-0.114849 0.407338,-0.228008 0.606253,-0.340287 3.4e-5,-3.4e-5 9.9e-5,-3.4e-5 1.34e-4,-5.8e-5 1.040213,-0.587377 1.973053,-1.142547 2.793309,-1.6964325 z"
     id="path250" />
  <path
     inkscape:connector-curvature="0"
     style="fill:#d50936;fill-opacity:1"
     d="m 1.9999999,8.0000579 v 1.02e-4 l 0.6693778,0.386464 v -1.68e-4 l 13.1870533,-7.61339285 1.02e-4,-6.74e-5 13.186951,7.61346025 v 1.68e-4 l 0.669378,-0.386464 v -1.02e-4 l -13.85633,-7.99988965 -1.01e-4,6.75e-5 z"
     id="path260" />
</svg>
