<?xml version="1.0" encoding="UTF-8" standalone="no"?>
<svg
   xmlns:dc="http://purl.org/dc/elements/1.1/"
   xmlns:cc="http://creativecommons.org/ns#"
   xmlns:rdf="http://www.w3.org/1999/02/22-rdf-syntax-ns#"
   xmlns:svg="http://www.w3.org/2000/svg"
   xmlns="http://www.w3.org/2000/svg"
   xmlns:sodipodi="http://sodipodi.sourceforge.net/DTD/sodipodi-0.dtd"
   xmlns:inkscape="http://www.inkscape.org/namespaces/inkscape"
   id="svg6966"
   version="1.1"
   width="32"
   viewBox="0 0 32 32"
   height="32"
   inkscape:version="0.48.4 r9939"
   sodipodi:docname="tx_por_ss.svg">
  <sodipodi:namedview
     pagecolor="#ffffff"
     bordercolor="#666666"
     borderopacity="1"
     objecttolerance="10"
     gridtolerance="10"
     guidetolerance="10"
     inkscape:pageopacity="0"
     inkscape:pageshadow="2"
     inkscape:window-width="2386"
     inkscape:window-height="1486"
     id="namedview15"
     showgrid="false"
     inkscape:zoom="7.375"
     inkscape:cx="-23.186441"
     inkscape:cy="16"
     inkscape:window-x="4689"
     inkscape:window-y="210"
     inkscape:window-maximized="0"
     inkscape:current-layer="svg6966" />
  <metadata
     id="metadata6972">
    <rdf:RDF>
      <cc:Work
         rdf:about="">
        <dc:format>image/svg+xml</dc:format>
        <dc:type
           rdf:resource="http://purl.org/dc/dcmitype/StillImage" />
        <dc:title></dc:title>
      </cc:Work>
    </rdf:RDF>
  </metadata>
  <defs
     id="defs6970" />
  <g
     id="g6964"
     transform="translate(2)"
     fill="none">
    <path
       id="path6946"
       fill="#3e1c75"
       d="m18.3582575 19.9280158h-4.5018179v3.0343423c.0000337-.0000337.0000989-.0000337.0001338-.0000582 1.8585074-1.0458624 3.3994941-1.9971389 4.5016841-3.0342841z" />
    <path
       id="path6948"
       fill="#4e2fad"
       d="m8.55232047 12.9376982c-.69356579.8996871-1.077696 1.8872622-1.077696 3.0623526 0 1.1762065.38656605 2.1619548 1.08439435 3.0583942.81291503 1.0442392 2.04970968 1.9668963 3.61282068 2.9217586.3318304.2027043.6796282.4072018 1.0394014.6144396-.1279757.0714129-.2536173.1420486-.3845362.2145443-.8707969.4823028-1.7711943.9810798-2.6627284 1.5288076-.088328.0542964-.17675751.1093026-.26511928.1646807-.31457757-.2048349-.62570438-.4137303-.9277991-.6319285-1.25830988-.9088209-2.384923-1.9459898-3.20643089-3.198955-.84809758-1.2934925-1.37092754-2.8169892-1.37092754-4.6717417 0-1.8517754.52289804-3.3756109 1.36879639-4.6730948l-4.17107013-2.40816365v14.16238255l6.30924357 3.6426246c.79931573-.6743512 1.67931416-1.2813475 2.59165298-1.8418636.8708984-.5350423 1.7667627-1.03179 2.6381686-1.5144646.2471558-.136907.4887978-.271716.7259402-.4051048v-3.034342h-2.104344l1.9805968-3.436943h.1237472v-.4910643-.0000338z" />
    <path
       id="path6950"
       fill="#4e2fad"
       d="m11.0203366 28.5249228 2.836103 1.6374004v-3.3572079c-1.0584474.5942435-2.0059012 1.1565522-2.836103 1.7198075z" />
    <path
       id="path6956"
       fill="#3e1c75"
       d="m16.6935827 28.5243898c-.3614649-.2455313-.7408927-.4908945-1.1487034-.7387613-.3326425-.2021626-.681286-.406322-1.0419387-.6133568.1005402-.0560209.199017-.1113652.3015194-.1681309.9018859-.4995555 1.8344547-1.0161606 2.7459144-1.5790441.0870423-.0537553.1758778-.1096401.2647133-.1655936.3130211.2026362.6227276.4091974.9235369.6248239.372256.2668113.7292555.5479651 1.0740422.8392686l6.3087697-3.6423872.0000582-.0000337v-14.16241688l-4.1703599 2.40775808c.6505693.9987389 1.1084131 2.13249 1.2847651 3.4460769h-3.1505454c-.170997-.6632887-.491495-1.2644332-.9291427-1.8324251l-5.2997807 3.0598154v.0000338.4910643h.8505671 5.5066111 3.0928332c-.0667107 1.3021865-.3995561 2.4345845-.9215738 3.4369429-.1334901.2563237-.2806139.5032768-.4377845.7431255-1.1415651 1.742067-2.8734161 3.0664463-4.7263076 4.2107855-.8969469.5539526-1.8215323 1.0661941-2.7201367 1.5639226-.2189762.121312-.4330473.2407285-.6440736.3591983-.0000339.0000337-.0000989.0000337-.0001338.0000582l-.0000014 3.357241z" />
    <path
       id="path6958"
       fill="#3e1c75"
       d="m27.0434164 23.6135104-13.1868839 7.6136628-.0001014-.0000692v.7728285l.0001014.0000675 13.8561948-8.0000593.000135-.0000675v-15.99988193l-.6693784.38646458v15.22702085z" />
    <path
       id="path6960"
       fill="#4e2fad"
       d="m.66937775 8.38645585-.66937775-.38646458v15.99988193l.00010124.0000675 13.85632986 7.9999918v-.7728285l-13.18698528-7.6135936-.00006807-.0000337z" />
  </g>
  <path
     id="path7037"
     d="m 1.9999998,7.9998898 v 1.02e-4 l 0.6693777,0.386464 v -1.69e-4 l 13.1870535,-7.61339185 1.02e-4,-6.75e-5 13.186951,7.61345935 v 1.69e-4 l 0.669378,-0.386464 v -1.02e-4 L 15.856532,1.5e-7 l -1.01e-4,6.74e-5 z"
     style="fill:#d50936;fill-opacity:1" />
  <path
     id="path7027"
     d="m 15.856465,1.8374518 -3.4e-5,3.38e-5 -2.794188,1.6132452 c 0.351079,0.237312 0.718599,0.474827 1.112912,0.715115 0.331391,0.201927 0.678681,0.40612 1.037811,0.61329 -0.08951,0.0502 -0.177062,0.09969 -0.268197,0.150506 -0.909565,0.507302 -1.850118,1.031857 -2.767667,1.602386 -0.08887,0.05524 -0.1751,0.110216 -0.261601,0.165222 -0.314442,-0.203618 -0.625637,-0.411092 -0.928002,-0.627497 -0.363055,-0.259808 -0.711563,-0.533081 -1.0487721,-0.815655 l -6.347301,3.664579 v 1.16e-4 l 4.17107,2.4081632 C 8.9070719,9.5713918 10.64596,8.2321958 12.50829,7.0742228 c 0.903949,-0.562072 1.836078,-1.081992 2.741888,-1.587197 0.205986,-0.11485 0.407338,-0.228009 0.606253,-0.340288 3.4e-5,-3.3e-5 9.9e-5,-3.3e-5 1.34e-4,-5.8e-5 1.040213,-0.587377 1.973053,-1.142547 2.793309,-1.696432 z"
     style="fill:#d50936;fill-opacity:1" />
  <path
     id="path7029"
     d="m 21.773754,5.2538405 c -0.794139,0.6643714 -1.666019,1.2647044 -2.568954,1.8203824 -0.851412,0.523979 -1.725829,1.012371 -2.576836,1.486995 -0.262819,0.146616 -0.519921,0.290931 -0.771406,0.433588 -3.4e-5,3.5e-5 -9.9e-5,3.5e-5 -1.34e-4,5.9e-5 -2.369362,1.3439311 -4.21877,2.5348871 -5.304111,3.9428231 l 5.304109,3.062296 5.299781,-3.059816 c -0.814302,-1.056756 -2.053465,-1.993012 -3.625947,-2.9611691 -0.329936,-0.203145 -0.675163,-0.408082 -1.032331,-0.615657 0.144687,-0.08139 0.287074,-0.162008 0.435415,-0.244721 0.808653,-0.45101 1.725153,-0.962203 2.600213,-1.50073 0.08748,-0.05382 0.174998,-0.108389 0.262547,-0.163259 0.313529,0.205512 0.623608,0.415016 0.924755,0.633654 1.268696,0.921236 2.404815,1.9709211 3.23028,3.2382301 l 4.17036,-2.4077581 v -5.8e-5 z"
     style="fill:#d50936;fill-opacity:1" />
</svg>
