<?xml version="1.0" encoding="UTF-8" standalone="no"?>
<svg
   xmlns:dc="http://purl.org/dc/elements/1.1/"
   xmlns:cc="http://creativecommons.org/ns#"
   xmlns:rdf="http://www.w3.org/1999/02/22-rdf-syntax-ns#"
   xmlns:svg="http://www.w3.org/2000/svg"
   xmlns="http://www.w3.org/2000/svg"
   id="svg225"
   version="1.1"
   width="475.20001"
   viewBox="-289 -318 475.20001 550"
   height="550"
   enable-background="new -289 -318 660 660">
  <metadata
     id="metadata231">
    <rdf:RDF>
      <cc:Work
         rdf:about="">
        <dc:format>image/svg+xml</dc:format>
        <dc:type
           rdf:resource="http://purl.org/dc/dcmitype/StillImage" />
        <dc:title></dc:title>
      </cc:Work>
    </rdf:RDF>
  </metadata>
  <defs
     id="defs229" />
  <g
     transform="matrix(0.958192,0,0,0.958192,-451.53849,-258.5345)"
     id="g290">
    <path
       d="m 354.25781,408.63086 -34.20703,34.20703 H 431.0293 c 8e-5,-0.10351 -2.1e-4,-0.20712 0,-0.31055 7.4e-4,-0.54593 -0.002,-1.09078 -0.002,-1.63672 9.6e-4,-0.0715 -0.0201,-1.49997 0.0606,-0.76171 -0.11368,-1.32722 -0.18249,-1.36659 -0.0273,-2.71875 0.0393,-0.34194 0.11508,-0.67904 0.1875,-1.01563 5e-5,-0.3074 -2.8e-4,-0.61447 0,-0.92187 -4.9e-4,-0.58457 -0.005,-1.16936 0.002,-1.75391 0.007,-0.55052 -0.0182,-1.10001 -0.0176,-1.65039 -0.0859,-0.43126 -0.16213,-0.86377 -0.23437,-1.29883 -0.23954,-1.05468 -0.44731,-2.01634 -0.375,-3.04687 -0.0213,-0.0665 -0.052,-0.12987 -0.0703,-0.19727 -0.0567,-0.20822 -0.11099,-0.65427 -0.13281,-0.91797 -0.0898,-0.39239 -0.18775,-0.7832 -0.26758,-1.17773 -0.0271,-0.13406 -0.003,-0.2734 -0.002,-0.41016 9.6e-4,-0.17881 0.004,-0.35639 0.008,-0.53515 0.001,-0.0695 0.005,-0.13956 0.008,-0.20899 -0.0119,-0.0806 -0.0305,-0.16078 -0.0352,-0.24219 -0.0911,-1.5958 -0.006,-3.079 0.65625,-4.54297 0.006,-0.18957 0.001,-0.34508 0.0273,-0.61718 0.038,-0.39919 0.1131,-0.79535 0.17578,-1.19141 0.009,-0.052 0.0381,-0.20505 0.0371,-0.15234 -0.007,0.33936 -0.0955,1.35233 -0.0527,1.01562 0.0835,-0.65722 0.11718,-1.31861 0.17578,-1.97851 0.034,-0.11378 0.0683,-0.22779 0.10156,-0.3418 -0.001,-0.10874 0.001,-0.21749 0,-0.32617 -0.0856,-0.43346 -0.1888,-0.97935 -0.44726,-2.13282 -0.007,-0.44736 -0.008,-1.44091 0.0332,-1.90039 -0.0826,-0.34963 -0.16828,-0.69821 -0.24609,-1.04882 -0.0355,-0.15979 0,-0.32851 0,-0.49219 v -1.52734 c 0,-0.0242 0.002,-0.0462 0.002,-0.0703 h -76.33594 z m 76.16211,17.97656 c 0.0429,0.18735 0.0831,0.37537 0.12696,0.5625 -0.0376,-0.2359 -0.0694,-0.47303 -0.11719,-0.70703 -0.0281,-0.13775 -0.024,-0.0273 -0.01,0.14453 z m 0.12696,0.5625 c 0.0246,0.15452 0.0551,0.30808 0.0781,0.46289 -0.003,0.0305 1.8e-4,0.0594 -0.002,0.0899 0.006,0.0198 0.0149,0.0389 0.0215,0.0586 l -0.01,-0.0937 c 0.006,0.0405 0.0135,0.0806 0.0195,0.12109 0.0333,0.0983 0.0681,0.19598 0.10547,0.29297 -0.0726,-0.31016 -0.14015,-0.62151 -0.21289,-0.93164 z m 0.10742,0.63867 c -0.003,-0.009 -0.007,-0.0182 -0.01,-0.0273 l 0.0547,0.49023 c 0.0269,0.0976 0.0514,0.19578 0.0801,0.29297 -0.0433,-0.25159 -0.0875,-0.50319 -0.125,-0.75586 z M 20.519531,408.72656 c -11.115027,0 -20.21679662,9.00595 -20.21679662,20.2168 V 470.625 c 0,11.11503 9.00595042,20.21875 20.21679662,20.21875 H 430.63867 c 0.0261,-0.24595 0.0528,-0.4926 0.0937,-0.74023 0.0187,-0.11298 0.0477,-0.31971 0.0742,-0.50586 0.003,-0.15103 0.003,-0.30335 0.0176,-0.45118 0.006,-0.0593 -0.004,0.14176 0.0156,0.17774 -0.106,-1.21569 -0.0987,-1.85365 0.11719,-3.1836 0.0171,-0.10553 0.0484,-0.20734 0.0762,-0.31054 -0.003,-0.0479 0.001,-0.0841 -0.004,-0.14063 -0.0677,-1.18742 -0.0948,-0.95326 0.0312,-2.29101 0.0183,-0.19457 0.0588,-0.38744 0.0918,-0.58008 0.0232,-0.13594 -0.0311,-0.49291 0.0762,-0.40625 0.0104,0.008 0.0104,0.033 0.0176,0.0469 -0.002,-0.0667 0,-0.13265 0,-0.19921 v -1.99024 -2.02344 -1.50195 c 1e-5,-0.75406 2e-5,-1.50767 0,-2.26172 0,-0.63731 1.4e-4,-1.27479 0,-1.91211 -2.2e-4,-0.55434 6.7e-4,-1.10777 0.002,-1.66211 1.3e-4,-0.60304 -0.0104,-1.20757 0.002,-1.81054 0.007,-0.27985 0.008,-0.39658 0.01,-0.39063 0.0193,0.0792 0.0116,0.16299 0.0195,0.24414 0.007,0.0647 0.0306,0.25791 0.0234,0.19336 -0.0919,-0.82277 -0.0287,-0.0964 -0.11132,-1.43164 0.0992,-1.50138 0.0529,-1.40481 0.27343,-2.42383 v -1.5332 c 0,-0.7875 -2e-5,-1.57578 0,-2.36328 2e-5,-0.56835 3e-5,-1.13673 0,-1.70508 1.3e-4,-0.52318 0.001,-1.04517 0,-1.56836 -7.4e-4,-0.52079 8e-5,-1.04171 0.004,-1.5625 -5e-5,-0.005 5e-5,-0.0104 0,-0.0156 H 58.65625 v -6.80469 -6.80274 h 146.31641 l -34.20899,-34.20703 z m 410.562499,4.14453 c 0.0276,0.24763 0.0429,0.28107 0.0762,0.64258 0.0684,0.15604 0.13369,0.31391 0.20508,0.46875 0.002,-0.013 0.006,-0.026 0.008,-0.0391 -0.0993,-0.35675 -0.19782,-0.7133 -0.28906,-1.07227 z M 431.38672,414 c -5.9e-4,0.009 -0.003,0.0182 -0.004,0.0273 0.01,0.0207 0.0178,0.0419 0.0274,0.0625 -0.008,-0.0298 -0.0151,-0.06 -0.0234,-0.0898 z m 0.39844,3.10156 c 0.13999,0.35444 0.32095,0.7291 0.57226,1.16211 0.32686,0.56319 1.59831,2.04805 1.26563,1.48828 -1.05905,-1.7819 -1.56203,-2.3748 -1.83789,-2.65039 z m -1.07422,2.85938 c -0.0141,0.0449 -0.0292,0.0897 -0.043,0.13476 -0.008,0.0247 -0.005,0.10333 0,0.0781 0.016,-0.0705 0.0283,-0.1421 0.043,-0.21289 z m -0.44336,4.90625 c 0.003,0.0201 0.005,0.0404 0.008,0.0605 0.005,0.0371 0.0313,0.14631 0.0254,0.10938 -0.009,-0.0569 -0.0221,-0.11325 -0.0332,-0.16992 z m 2.68554,10.66406 c 0.0392,0.0611 0.0765,0.12449 0.11524,0.18555 0.16771,0.26452 0.44627,0.43696 0.66992,0.65625 -0.24175,-0.29316 -0.51432,-0.56655 -0.78516,-0.8418 z m 70.75977,41.63086 c -0.18006,0.49769 -0.28746,0.59675 -0.11719,0.52344 0.0535,-0.2264 0.064,-0.27558 0.11719,-0.52344 z m -11.14453,3.37695 c -5e-4,-0.0134 -0.19634,0.0528 -0.41406,0.12696 0.004,0.0215 0.006,0.0413 0.01,0.0625 0.0509,-0.0221 0.10359,-0.0399 0.1543,-0.0625 0.17539,-0.0782 0.25036,-0.11716 0.25,-0.12696 z m 10.64062,0.0254 c -0.0378,0.13943 -0.0754,0.26684 -0.11132,0.37891 0.0251,0.009 0.0509,0.0166 0.0762,0.0254 0.10546,0.0167 0.2032,0.0314 0.23437,0.0254 -0.0657,-0.14345 -0.13545,-0.2853 -0.19922,-0.42969 z"
       style="fill:#8763e0;stroke-width:0.95819199"
       transform="matrix(1.0436322,0,0,1.0436322,169.6304,-62.060109)"
       id="path286" />
    <path
       d="m 500.53429,50.380006 c -4.225,0 -8.4501,1.625728 -11.7001,4.875724 L 286.23298,257.95479 c -6.50001,6.5 -6.50001,16.90019 0,23.40018 L 405.43331,400.5553 h 79.69924 L 659.63316,226.0547 c 6.4,-6.5 6.4,-16.89815 0,-23.39815 L 512.23438,55.25573 c -3.25,-3.249996 -7.47509,-4.875724 -11.70009,-4.875724 z m 10.64627,67.214404 c 0.93633,-0.0397 1.89118,0.0111 2.85368,0.16103 7.7,1.3 12.89817,8.50076 11.59817,16.20076 l -30.79937,186.70009 c -0.6,3.8 -2.79885,7.1988 -5.99885,9.39881 -2.4,1.59999 -5.10062,2.40117 -7.90062,2.40117 -1,0 -2.00044,-0.10165 -3.00044,-0.30168 l -92.40018,-20.29987 c -7.6,-1.7 -12.39927,-9.20003 -10.69927,-16.80003 1.7,-7.6 9.10003,-12.39927 16.80003,-10.69927 l 77.8994,17.09967 28.30038,-172.09944 c 1.13749,-6.7375 6.79277,-11.4837 13.34707,-11.76124 z"
       style="fill:#41007f;fill-opacity:1;stroke-width:1"
       id="path288" />
    <rect
       ry="19.923183"
       y="364.80219"
       x="600.77667"
       height="84.82119"
       width="64.336693"
       id="rect1043"
       style="opacity:1;fill:#8763e0;fill-opacity:1;fill-rule:evenodd;stroke:#8763e0;stroke-width:0.96153551;stroke-opacity:1" />
  </g>
</svg>
